<?xml version="1.0" encoding="utf-8"?>
<!-- Generator: Adobe Illustrator 24.2.0, SVG Export Plug-In . SVG Version: 6.00 Build 0)  -->
<svg version="1.1" id="Layer_1" xmlns="http://www.w3.org/2000/svg" xmlns:xlink="http://www.w3.org/1999/xlink" x="0px" y="0px"
	 viewBox="0 0 75.8 103.1" style="enable-background:new 0 0 75.8 103.1;" xml:space="preserve">
<style type="text/css">
	.st0{fill:#EFEFF0;}
	.st1{fill:#09376E;}
	.st2{fill:#448CC7;}
	.st3{fill:none;stroke:#C3E1F7;stroke-width:2;stroke-miterlimit:10;}
</style>
<g id="BACKGROUND">
</g>
<g id="OBJECTS">
	<g>
		<g>
			<path class="st0" d="M55.8,94.1c0,2.6-12.4,4.7-27.7,4.7S0.4,96.7,0.4,94.1s12.4-4.7,27.7-4.7S55.8,91.5,55.8,94.1z"/>
			<rect x="18.3" y="61.1" class="st1" width="19.6" height="32.9"/>
			<g>
				<path class="st2" d="M39.6,93.8c0,0.5-0.4,0.9-0.9,0.9H17.6c-0.5,0-0.9-0.4-0.9-0.9l0,0c0-0.5,0.4-0.9,0.9-0.9h21.1
					C39.2,92.9,39.6,93.3,39.6,93.8L39.6,93.8z"/>
				<path class="st2" d="M39.6,87.6c0,0.5-0.4,0.9-0.9,0.9H17.6c-0.5,0-0.9-0.4-0.9-0.9l0,0c0-0.5,0.4-0.9,0.9-0.9h21.1
					C39.2,86.7,39.6,87.1,39.6,87.6L39.6,87.6z"/>
				<path class="st2" d="M39.6,81.5c0,0.5-0.4,0.9-0.9,0.9H17.6c-0.5,0-0.9-0.4-0.9-0.9l0,0c0-0.5,0.4-0.9,0.9-0.9h21.1
					C39.2,80.6,39.6,81,39.6,81.5L39.6,81.5z"/>
				<path class="st2" d="M39.6,75.3c0,0.5-0.4,0.9-0.9,0.9H17.6c-0.5,0-0.9-0.4-0.9-0.9l0,0c0-0.5,0.4-0.9,0.9-0.9h21.1
					C39.2,74.4,39.6,74.8,39.6,75.3L39.6,75.3z"/>
				<path class="st2" d="M39.6,69.2c0,0.5-0.4,0.9-0.9,0.9H17.6c-0.5,0-0.9-0.4-0.9-0.9l0,0c0-0.5,0.4-0.9,0.9-0.9h21.1
					C39.2,68.3,39.6,68.7,39.6,69.2L39.6,69.2z"/>
			</g>
		</g>
		<path class="st0" d="M72.3,59.2l-7.9-18.4v-3.6c0-0.3,0-0.6-0.1-0.9C63.2,20.5,50.1,8.1,34.1,8.1V32h-1.2c-2.9,0-5.2,2.3-5.2,5.2
			v1.3H3.8C3.8,53,14,65.1,27.7,68.1v7.8c0,2.9,2.3,5.2,5.2,5.2h26.3c2.9,0,5.2-2.3,5.2-5.2v-15h6.8C72.2,60.9,72.7,60.1,72.3,59.2z
			"/>
		<path class="st2" d="M34.1,63.5V38.4h25.1c0-13.9-11.2-25.1-25.1-25.1C20.3,13.3,9,24.6,9,38.4C9,52.3,20.3,63.5,34.1,63.5z"/>
		<path class="st0" d="M30.3,4.5L30.3,4.5C13.6,4.5,0,18.1,0,34.8l0,0h30.3V4.5z"/>
		<ellipse class="st1" cx="34.1" cy="38.4" rx="16.6" ry="16.6"/>
		<path class="st3" d="M34.1,40.7c0,0,0,27.9,0,29.8s-0.3,3.6,2.6,3.6c5.2,0,19.8,0,19.8,0"/>
		<ellipse class="st0" cx="34.1" cy="38.4" rx="8.8" ry="8.8"/>
		<path class="st2" d="M37.8,38.4c0,2-1.7,3.7-3.7,3.7s-3.7-1.7-3.7-3.7s1.7-3.7,3.7-3.7C36.2,34.7,37.8,36.4,37.8,38.4z"/>
		<path class="st2" d="M66.5,41h-8.4c-2.5,0-4.4,2.2-4.4,4.9s2,4.9,4.4,4.9h12.1L66.5,41z"/>
		<path class="st2" d="M55.6,67.1c-0.9,0-1.6,0.7-1.6,1.6v13.8h5.2c3.5,0,6.3-2.8,6.3-6.3v-9.1H55.6z"/>
	</g>
</g>
<g id="DESIGNED_BY_FREEPIK">
</g>
</svg>
