<?xml version="1.0" encoding="utf-8"?>
<!-- Generator: Adobe Illustrator 24.2.0, SVG Export Plug-In . SVG Version: 6.00 Build 0)  -->
<svg version="1.1" id="Layer_1" xmlns="http://www.w3.org/2000/svg" xmlns:xlink="http://www.w3.org/1999/xlink" x="0px" y="0px"
	 viewBox="0 0 590.4 1272.3" style="enable-background:new 0 0 590.4 1272.3;" xml:space="preserve">
<style type="text/css">
	.st0{fill:#D896FF;}
</style>
<path class="st0" d="M0,303.8c48.9-1.6,83.2-16,102.3-26c97.2-51,153.3-173.8,128.3-264.2C228.9,7.7,227.2,3,226.1,0
	c13.4,19.1,32.9,52.1,41,97c10.9,59.9-4.4,107.4-13.5,134.6c-5,15-32.5,95.2-110.6,167.6C82.2,455.6,39.6,461.9,17.7,519.4
	c-3.5,9.2-13.3,37.4-9.3,72.6c11.4,101.4,124.8,155.6,145.7,165.6c84,40,165.7,30.9,190.5,27.2c108-15.9,148.9-76.5,195.5-53.9
	c49.3,23.9,50.2,114.1,50.2,123.1c-0.1,164.1-194.5,281.8-251.2,316c-59.1,35.7-173.5,92.7-339.2,102.3C0,949.5,0,626.6,0,303.8z"/>
</svg>
