<?xml version="1.0" encoding="utf-8"?>
<!-- Generator: Adobe Illustrator 24.2.0, SVG Export Plug-In . SVG Version: 6.00 Build 0)  -->
<svg version="1.1" id="Layer_1" xmlns="http://www.w3.org/2000/svg" xmlns:xlink="http://www.w3.org/1999/xlink" x="0px" y="0px"
	 viewBox="0 0 188.2 54.7" style="enable-background:new 0 0 188.2 54.7;" xml:space="preserve">
<style type="text/css">
	.st0{opacity:0.3;fill:#D896FF;enable-background:new    ;}
</style>
<path id="path2987" class="st0" d="M51.9,51.3c0-0.1,0-0.2-0.1-0.2s-0.2-0.1-0.2-0.3c-0.1-0.2-0.2-0.4-0.3-0.4c-0.1,0-0.1,0-0.1-0.1
	c0.1-0.1,0.1-0.2,0-0.2c-0.1,0-0.1-0.1,0-0.2c0.1-0.1,0.1-0.2,0-0.2c-0.1,0-0.1-0.1-0.1-0.1s0-0.1,0.1,0c0.1,0,0.1,0,0-0.1
	c0-0.1,0-0.2,0.1-0.2c0.1,0,0.1-0.1,0-0.2c-0.1-0.2-0.1-0.2,0.1-0.2c0.1,0,0.1,0,0-0.1c-0.1-0.1-0.4,0-0.3,0.2c0,0,0,0.1-0.1,0.1
	c-0.1,0-0.1,0-0.1-0.2c0-0.1,0-0.2,0-0.2c0,0-0.2,0-0.3,0c-0.2-0.1-0.1-0.1,0.2-0.1c0.3,0,0.4-0.1,0.4-0.2c0-0.1,0.1-0.1,0.2-0.1
	c0.1,0,0.3-0.1,0.3-0.2c0.1-0.2,0.6-0.5,0.8-0.4c0,0,0.3,0,0.6-0.1c0.3-0.1,0.8-0.2,1.2-0.2c0.3,0,0.7-0.1,0.7-0.2s0.2-0.1,0.3-0.1
	c0.1,0,0.5-0.1,0.8-0.3s0.7-0.3,0.8-0.3c0.1,0,0.2,0,0.2-0.1c0-0.1,0-0.1-0.1-0.1c-0.1,0-0.1-0.4,0.1-0.5c0.1,0,0.3-0.1,0.5-0.1
	s0.5-0.1,0.7-0.1c0.1,0,0.4,0,0.6,0c0.2-0.1,0.6-0.1,0.9-0.2c0.8-0.2,1.3-0.3,1.3-0.4c0-0.1-5.1,0-6.4,0.1c-0.7,0.1-0.9,0-1.2-0.1
	c-0.2-0.1-0.4-0.2-0.4-0.2c0,0-0.2-0.1-0.3-0.1c-0.2-0.1-0.4-0.1-0.4-0.1c-0.1,0-1.4,0.1-3,0.1c-1.5,0-3,0.1-3.2,0.1
	c-0.2,0.1-1,0.2-1.6,0.2c-0.7,0.1-1.3,0.2-1.4,0.2c-0.1,0.1-0.4,0.1-0.7,0.1c-0.3,0-0.5,0-0.5,0c0,0-0.1,0.1-0.1,0
	c-0.1,0-0.1,0-0.1,0c0,0.1,0,0.1-0.1,0.1c-0.2,0-1,0.1-1,0.2c0,0.1-0.8,0.3-1,0.2c-0.1,0-0.3,0.1-0.4,0.2c-0.1,0.1-0.3,0.2-0.4,0.2
	c-0.1,0-0.4,0-0.8,0c-0.3,0-0.8,0.1-1,0.1c-0.2,0.1-0.6,0.1-0.8,0.2c-0.2,0-0.4,0.1-0.3,0.1c0.1,0.2-0.1,0.2-1.9,0.3
	c-0.1,0-0.2,0.1-0.1,0.1c0,0.1-0.1,0.1-0.2,0.2c-0.1,0-0.3,0.1-0.5,0.2c-0.2,0.1-0.6,0.2-1.3,0.2c-0.6,0-1.2,0.1-1.3,0.1
	c-0.1,0-0.4,0.1-0.5,0.1c-0.2,0.1-0.3,0.1-0.4,0.1c-0.1-0.1-0.4-0.3-0.4-0.1c0.1,0.1,0,0.1-0.3,0c-0.5-0.3-3.1-0.1-3.3,0.3
	c-0.1,0.1-0.1,0.2,0,0.2c0.1,0,0.1,0.1,0.1,0.1s-0.1,0.1-0.1,0c-0.1,0-0.2,0-0.2,0.1c-0.1,0.2,0.5,0.1,0.8,0
	c0.1-0.1,0.5-0.2,0.7-0.2c0.2,0,0.5-0.1,0.6-0.1c0.1,0,0.2,0,0.2,0.1c0,0.1,0.1,0.1,0.4,0.1c0.3,0,0.4,0,0.2,0.1
	c-0.1,0.1-0.2,0.1-0.1,0.2c0.1,0.1-0.5,0.2-1.6,0.3c-0.6,0-0.8,0-0.9-0.1c-0.1-0.1-0.1-0.1-0.1,0c0,0.2-0.6,0.2-0.8,0
	c-0.1-0.1-0.2-0.1-0.2-0.1c0,0.1-0.3,0.1-0.8,0c-0.5,0-1.2-0.1-1.6-0.1s-0.9-0.1-1.1-0.2c-0.2-0.1-0.4-0.1-0.6-0.1
	c-0.1,0-0.3,0-0.3-0.1c0-0.1,0-0.1,0.1,0c0.1,0.1,0.1,0,0.1,0c-0.1-0.1-0.6-0.2-1.1-0.3c-0.3,0-0.4-0.1-0.4-0.2
	c0-0.2,0.1-0.2,0.6-0.3c0.4,0,0.8-0.1,0.9-0.1l0.2,0l-0.3-0.1c-0.5-0.3-0.9-0.4-1.8-0.4c-0.5,0-1.1-0.1-1.5-0.2
	c-0.8-0.2-3.7-0.2-3.8,0c0,0.1-0.1,0.1-0.2,0.1c-0.2-0.1-2-0.1-1.9,0c0.1,0.1,0,0.1-1.3,0.1c-0.9,0-1.3,0.1-2.7,0.2
	c-0.6,0.1-1,0-1.4-0.2c-0.2-0.1-0.1-0.1,0.2-0.4c0.3-0.2,0.7-0.3,1.2-0.4c0.9-0.1,1.8-0.3,2.4-0.4c0.4-0.1,0.5-0.1,0.4-0.3
	c0-0.1-0.1-0.2-0.2-0.1c-0.1,0-0.1,0-0.1-0.1c0-0.1,0.1-0.1,0.2-0.1c0.1,0,0.2,0,0-0.1c-0.1-0.1-0.1-0.1,0-0.1
	c0.1,0,0.1-0.1,0.1-0.2c0-0.1,0.1-0.2,0.3-0.3l0.4-0.2l-1-0.1c-0.5,0-1.2-0.1-1.6-0.1s-0.6,0-0.6,0c0,0,0.1-0.1,0.2-0.2
	C8,44,8.1,43.9,8.1,43.9c0,0,0.1,0,0.2-0.1c0.1-0.1,0.6-0.2,1-0.3c0.4-0.1,0.9-0.2,1.1-0.3c0.2-0.1,0.6-0.1,0.8-0.1
	c0.6,0,2-0.4,1.6-0.4c-0.1,0-0.2,0-0.3-0.1c-0.1,0-0.3-0.1-0.3-0.1c-0.2-0.1-0.2-0.1,0-0.2c0.1,0,0.3-0.2,0.5-0.3
	c0.1-0.1,0.4-0.2,0.5-0.2s0.3-0.1,0.3-0.1c0.1-0.1,0-0.1-0.5-0.2c-0.3,0-0.7-0.1-0.9-0.1c-0.4-0.1-2-0.1-2.1,0
	c-0.1,0.1-1.3,0.1-1.3,0c0,0,0.1-0.1,0.1-0.2C8.9,41.2,9,41.1,9,41.1s0-0.1-0.1,0s-0.1,0-0.2,0c-0.1-0.1-0.1-0.1-0.1,0
	c0,0.1-0.1,0.1-0.1,0.1c-0.2,0-0.2-0.1,0.2-0.3c0.4-0.2,0.3-0.2-0.3-0.4c-0.5-0.1-0.6-0.3-0.3-0.5c0.4-0.2,2.3-0.4,3.4-0.4
	c0.5,0,1,0,1.2-0.1l0.3-0.1l-0.3-0.2c-0.2-0.1-0.4-0.2-0.5-0.2c-0.2,0-0.3-0.2-0.2-0.4c0.1-0.3,1-0.7,1.4-0.7c0.1,0,0.2,0,0.2-0.1
	c0-0.1-0.1-0.1-0.2-0.1c-0.2,0-0.4-0.2-0.3-0.4c0-0.2-1.5,0-1.7,0.2c-0.1,0.1-2.7,0.5-2.9,0.4l-0.2-0.1l0.2-0.1
	c0.1-0.1,1-0.2,1.8-0.4c1.6-0.3,2-0.5,1-0.5c-0.3,0-0.6-0.1-0.7-0.1c-0.1-0.1-0.3-0.1-1.1,0C7.8,36.9,7,37,6.8,37.1
	c-0.1,0-0.2,0-0.1-0.1c0-0.2,0.3-0.4,0.8-0.6c0.4-0.1,0.2-0.3-0.4-0.2c-0.2,0-0.6,0.1-0.9,0.1l-0.4,0.1L6.1,36
	c0.2-0.2,0.4-0.4,0.4-0.4s-0.3-0.1-0.6-0.1c-0.8-0.1-1.2-0.3-1.2-0.6c0-0.2,0.6-0.4,1.3-0.4c0.2,0,0.8-0.1,1.3-0.2
	c0.4-0.1,1.1-0.2,1.5-0.2c0.4,0,1-0.1,1.3-0.2c2-0.4,2.5-0.4,2.6-0.5c0.1,0-0.1-0.1-0.3-0.2c-0.2-0.1-0.4-0.2-0.4-0.2
	c0-0.2,1-0.5,1.9-0.7c0.4-0.1,0.8-0.2,0.9-0.3c0.1-0.1,0.4-0.2,0.8-0.3c0.8-0.1,0.7-0.3-0.1-0.6c-0.2-0.1-0.3-0.2-0.3-0.2
	c0.1-0.1,0.5-0.4,0.8-0.4c0.1,0,0.2,0,0.1-0.1c0-0.1-0.4-0.1-0.8-0.1c-0.7,0-0.9-0.1-0.6-0.2c0.3-0.1-1.2-0.1-1.9,0.1
	c-0.9,0.2-1.4,0.1-1.4-0.2c0-0.1,0.3-0.3,1-0.7c0.7-0.3,0.9-0.5,0.8-0.6c-0.2-0.1,0-0.2,0.7-0.4c0.9-0.3,1.7-0.8,1.6-1.1
	c-0.1-0.2,0.3-0.3,1.8-0.5c0.8-0.1,1.5-0.3,1.7-0.4c0.2-0.1,0.5-0.2,0.8-0.2c0.7-0.1,2.2-0.4,2.4-0.6c0.1-0.1,0.3-0.1,0.5-0.1
	c0.2,0,0.4,0,0.5-0.1c0.2-0.1,0.1-0.1-0.2-0.1c-0.9,0-1.3-0.1-1.4-0.3c-0.1-0.1-0.2-0.1-0.3-0.1c-0.2,0.1-0.2,0-0.1,0
	c0.1-0.1,0.3-0.1,0.3-0.1c0.1,0,0.2,0,0.3-0.1c0.1,0,0.2,0,0.4,0c0.2,0.1,0.3,0.1,0.4,0c0.1-0.1,0.2-0.1,0.2,0
	c0,0.1,0.3,0.1,0.6,0.1c0.3,0,0.7,0.1,0.8,0.1c0.3,0.2,0.4,0.2,0.4,0c0-0.1-0.1-0.1-0.2-0.1s-0.1,0-0.1-0.1c0,0,0-0.1-0.2-0.1
	c-0.1,0-0.2-0.1-0.2-0.2c0-0.1,0.5-0.2,1.9-0.3c1.3-0.1,1.6-0.2,1.6-0.3c0-0.1-0.1-0.1-0.1-0.1c-0.1,0-0.1-0.1-0.1-0.2
	c0-0.1,0.1-0.2,0.2-0.2c0.3,0,0.3-0.2,0.1-0.2c-0.1,0-0.6,0-1.1,0c-1.5,0.1-2.1,0.1-2.4-0.1c-0.2-0.1-0.3-0.1-0.4-0.1
	c0,0,0-0.1,0-0.2c0-0.3-0.1-0.4-1.1-0.4c-0.6,0-0.7,0-0.4-0.1c0.4-0.2,1.6-0.4,2.4-0.5c0.4,0,0.8-0.1,0.9-0.2c0.3-0.2,0.5-0.2,0.6,0
	c0.1,0.1,0.3,0.1,0.6,0.1c0.7,0,3.5-0.3,3.9-0.4c0.4-0.1,0.4-0.1,0.3-0.4c0-0.2,0-0.4,0-0.4c0.1-0.1,0.1-0.1,0-0.2
	c-0.2-0.3,0.1-0.3,1.5-0.3c1.1,0,1.5,0,1.7-0.1c0.2-0.1,1.3-0.3,2.1-0.3c0.1,0,0.4,0,0.7-0.1l0.5-0.1L36.7,19c-0.2,0-1,0-1.6,0
	c-0.7,0-1.6,0-2.1,0c-0.5,0-1.5,0.1-2.1,0.1c-1.4,0.2-2.8,0.3-3.4,0.3c-0.2,0-0.4,0-0.4,0.1c0,0-0.2,0.1-0.4,0.1
	c-0.2,0-0.3,0.1-0.3,0.1c0,0-0.1,0.1-0.2,0c-0.2,0-0.2,0-0.1,0c0.1,0.1,0.1,0.1,0,0.1c-0.1,0-0.2,0.1-0.2,0.1c0,0.1-0.1,0-0.2,0
	c-0.3-0.2-0.4-0.2-0.3-0.1c0,0,0,0.1-0.1,0.1c-0.1,0-0.2,0-0.2-0.1c0-0.1-0.2-0.1-0.4-0.1c-0.2,0-0.4,0-0.4,0.1
	c0,0.1-0.1,0.1-0.3,0.1C23.4,20,23,19.7,23,19.6c0-0.1,0-0.1-0.1,0c-0.1,0.1-0.1,0.1-0.1-0.1c0-0.4,0.2-0.7,0.4-0.7
	c0.1,0,0.1,0,0.1-0.1c0-0.1,0-0.1,0.1-0.1c0.3,0,0.5-0.1,0.8-0.2c0.2-0.1,0.7-0.1,0.7,0.1c0,0-0.1,0-0.1,0c-0.1,0-0.2,0-0.3,0.1
	c-0.1,0.1-0.1,0.2,0,0.1c0.1-0.1,0.1,0,0.1,0.1c0,0.1,0,0.2,0.1,0.3c0.2,0.1,0.4,0.1,0.2,0c-0.1-0.1-0.1-0.1,0.2-0.1
	c0.2,0,0.5,0,0.6-0.1c0.1-0.1,0.2-0.1,0.3,0c0.1,0.1,0.2,0.1,0.2-0.1c0-0.1,0.1-0.2,0.1-0.3c0,0,0-0.1,0.1-0.1
	c0.1,0,0.2-0.1,0.2-0.1s0.2-0.1,0.3-0.1c0.2,0,0.3-0.1,0.4-0.2c0.1-0.1,0.1-0.1,0.2-0.1c0,0,0.1,0,0-0.1c-0.1-0.2,0.1-0.2,0.2,0
	c0.1,0.1,0.1,0.1,0.2,0c0.2-0.2,0.2-0.2,0.2,0c0,0.2,0,0.2,0.1,0c0.1-0.2,0.1-0.3-0.1-0.3c-0.2,0-0.2-0.1-0.2-0.3
	c0-0.2,0.4-0.4,0.8-0.4c0.4,0,0.7-0.1,0.7-0.3c0-0.1,0.1-0.1,0.4-0.1c0.4,0,1.1-0.1,1.3-0.2c0.1-0.1,0.1-0.1,0-0.1
	c-0.1,0-0.4,0-0.7-0.1c-0.9-0.1-2-0.1-2.4,0c-0.3,0.1-0.4,0-0.3,0c0-0.1,0-0.1-0.1-0.1c-0.1,0-0.2-0.1-0.3-0.2
	c-0.1-0.2-0.1-0.3-0.1-0.3c0.1,0,0.1-0.1-0.1-0.2c-0.2-0.1-0.2-0.1,0.1-0.1c0.2,0,0.2,0,0.2,0C27,15.1,27.1,15,27.5,15
	c0.3,0,0.4,0,0.4,0.1c0,0.1,0,0.1,0.1,0c0.1-0.1,0.1-0.1,0.1,0c0.1,0.1,0.2,0.1,0.5,0c0.1,0,0.3-0.1,0.5-0.1c0.4,0,0.5-0.3,0.1-0.3
	c-0.2,0-0.3-0.1-0.3-0.1c0-0.1,0-0.1,0.1-0.1c0.1,0,0.2-0.1,0.3-0.1c0.1-0.2,0.5-0.4,0.6-0.3c0,0,0.1,0,0.2,0c0-0.1,0.2-0.1,0.3-0.1
	c0.2,0,0.5-0.1,0.8-0.2c0.5-0.1,0.5-0.2,0.3-0.2c-0.1,0-1-0.1-1.9-0.1c-0.9,0-1.7,0-1.8-0.1c-0.1,0-0.2,0-0.2,0
	c-0.1,0.1-3.2,0.2-3.3,0.1c0,0-0.1-0.1-0.2,0c-0.1,0-0.1,0.1,0,0.1c0.1,0,0,0.1-0.2,0.1c-0.2,0-0.3,0-0.3-0.1s-0.1,0-0.2,0
	c-0.1,0.1-0.2,0.1-0.2,0.1c0,0,0-0.2,0.2-0.3l0.2-0.2l-0.2,0c-0.2,0-0.2,0,0,0c0.3-0.1,0.8-0.1,1,0c0.3,0.2,0.6,0.1,0.6-0.1
	c0-0.1,0.2-0.1,0.6-0.1c0.4,0,0.6,0,0.6,0.1c0,0.1,0.1,0,0.1-0.1c0.1-0.1,0.4-0.2,1-0.2c0.5,0,1.1-0.1,1.5-0.2
	c0.3-0.1,0.8-0.1,0.9-0.2c0.2,0,0.5-0.1,0.8-0.1c0.5-0.1,0.4-0.1-0.8-0.1c-0.7,0-1.4,0.1-1.5,0.1c-0.1,0-1.1,0.1-2.3,0.2
	c-1.2,0.1-2.5,0.2-2.9,0.3c-0.4,0-0.7,0.1-0.7,0.1s-0.1,0.1-0.4,0.1c-0.2,0-0.8,0.1-1.3,0.1c-0.8,0.1-2.8,0.3-2.6,0.2
	c0.1,0,0.1-0.1,0.1-0.1c0-0.1,0.1-0.1,0.2-0.1c0.2,0,0.4-0.1,0.6-0.2c0.2-0.1,0.4-0.2,0.5-0.3c0.4-0.2,6.3-1.1,7.6-1.3
	c0.4,0,1.6-0.2,2.6-0.3c1-0.1,2.4-0.2,3.1-0.3c0.6-0.1,1.4-0.2,1.6-0.2c0.3-0.1,0.5-0.1,0.5,0c0.1,0.1,1.1,0.1,2.4-0.1
	c0.2,0,0.8-0.1,1.3-0.1c1-0.1,2.5-0.3,3.3-0.5c0.2-0.1,0.5-0.1,0.5,0c0.1,0,0.7,0,1.5-0.2c1.2-0.2,1.5-0.2,1.7-0.1
	c0.2,0.1,0.4,0.1,1.3-0.1C49,9.1,51,8.7,51.9,8.5c0.4-0.1,1.1-0.2,1.4-0.3c0.3-0.1,0.8-0.1,0.9-0.1c0.2,0,0.5-0.1,0.8-0.1
	c0.4-0.1,1.3-0.3,3.5-0.6c1.2-0.2,1.4-0.2,2.6-0.4c0.5-0.1,1.4-0.3,2-0.4c0.5-0.1,1.1-0.2,1.3-0.2c1.2-0.2,1.4-0.2,1.6,0
	c0.1,0.1,0.2,0.3,0.2,0.3s0,0.1,0.1,0.1c0,0,0.2,0,0.3,0c0.2,0,0.2,0,0.1,0.2c-0.1,0.2,0,0.4,0.2,0.2c0.2-0.2,0.2,0-0.1,0.3
	c-0.1,0.1-0.4,0.3-0.6,0.3C66,7.8,66,7.8,66.1,8c0.2,0.2,0,0.2,6.4-0.6c0.4-0.1,1.2-0.1,1.7-0.1s1.5-0.1,2.1-0.2C77,7,77.8,7,78.2,7
	c0.4,0,0.9-0.1,1.1-0.1c0.2-0.1,1.1-0.1,1.9-0.1c0.8,0,1.6,0,1.7-0.1c0.2-0.1,2.5-0.2,3.1-0.2c0.2,0,0.5,0.1,0.6,0.2
	c0.2,0.2,0.7,0.2,2.9,0.1c1,0,2-0.1,2.3-0.2c0.4-0.1,1.1-0.1,2.8-0.1c1.3,0,3.4,0,4.7-0.1c2.7-0.1,2.5-0.1,5.3,0
	c1.8,0.1,2.8,0.1,4.4,0c0.3,0,0.4,0,0.3-0.1c-0.1,0-0.2-0.1-0.2-0.2c0-0.1,0.3-0.1,0.8,0c0.5,0,1.8,0.1,3,0.2
	c1.2,0.1,2.8,0.1,3.4,0.2c2.8,0.2,3.8,0.3,5.2,0.4c3.6,0.2,5.5,0.3,7.4,0.4c0.9,0,2,0.1,2.5,0.1c0.5,0,1.2,0.1,1.5,0.1
	c0.4,0,1.1,0,1.7,0.1s2.3,0.1,4,0.1c1.6,0,3.2,0.1,3.4,0.1c0.2,0.1,0.8,0.1,1.2,0.2c0.4,0,0.9,0.1,1.1,0.1c0.6,0.1,1.5,0.2,2.9,0.2
	c1.2,0,2.3,0.1,4,0.3c0.3,0,0.7,0.1,0.8,0.1c0.2,0,0.7,0.1,1.1,0.1c0.4,0,1.1,0.1,1.5,0.1c0.4,0,0.8,0.1,0.8,0.1
	c0,0,0.3,0.1,0.6,0.1c0.3,0,0.6,0.1,0.7,0.1c0.1,0,0.5,0.1,1,0.1c1.3,0,1.3,0,1.3,0.2c0,0.1,0,0.1,0.1,0.1c0.1,0,0.1-0.1,0-0.1
	c0-0.1,0-0.1,0.1,0c0.1,0,0.3,0.1,0.4,0.1c0.1,0,0.2,0.1,0.2,0.2c0,0.2,0,0.3-0.2,0c-0.2-0.2-0.4-0.2-0.4,0c0,0.1,0,0.1,0,0.1
	c-0.1-0.1-0.3-0.1-0.9,0c-0.9,0.1-1.6,0.1-2.9-0.1c-0.5-0.1-1.2-0.1-1.5-0.2c-0.3,0-0.6-0.1-0.7-0.1c-0.1,0-0.1,0-0.2,0.1
	c0,0.1-0.1,0.1-0.4,0.1c-0.4-0.1-0.6-0.1-1.5-0.2c-0.4,0-0.7-0.1-0.8-0.1c-0.1,0-1.4-0.1-3.2,0c-1.2,0-2,0-2.6-0.2
	c-0.3-0.1-2.8-0.1-2.8,0c0,0,0.3,0.1,0.7,0.1c0.4,0,0.8,0.1,0.9,0.1c0.8,0.2,2.8,0.3,4.5,0.4c0.4,0,0.7,0.1,0.8,0.1
	c0.1,0.1,3.2,0.3,3.3,0.3c0,0,0.4,0,0.8,0.1c0.6,0.1,2.3,0.2,2.7,0.2c0.1,0,0.2,0.1,0,0.2c-0.1,0.1-0.9,0.1-1.5,0
	c-0.2,0-0.4-0.1-0.5-0.2c-0.1-0.1-0.2-0.1-0.7-0.1c-0.3,0-0.6,0.1-0.7,0.1c0,0-0.1,0-0.2-0.1c-0.1-0.1-0.2-0.1-0.2-0.1
	c-0.1,0.1-2.1,0.1-2.7-0.1c-0.2,0-0.5-0.1-0.8-0.1c-0.2,0-0.5-0.1-0.6-0.1c-0.2-0.1-0.2-0.1-0.2,0c0,0.1-0.1,0.1-0.3,0.2
	c-0.8,0.1-1.9,0.1-2.8,0c-0.6-0.1-0.9,0-0.8,0c0.4,0.3-0.3,0.4-1.5,0.3c-1-0.1-1.2-0.1-1.6-0.1c-0.2,0-0.5,0-0.7,0
	c-0.4-0.1-2.7-0.3-3.6-0.3c-0.5,0-1.1,0-1.5-0.1c-0.4,0-1.1-0.1-1.6-0.1c-0.5,0-1.8-0.1-2.7-0.2c-1-0.1-2.5-0.2-3.3-0.2
	c-1.3-0.1-1.5,0-1.5,0.1c-0.1,0.1-0.2,0.2-1.2,0.2c-0.6,0-1.3,0-1.6,0.1l-0.4,0.1l0.7,0.1c0.4,0.1,0.9,0.1,1.1,0.1
	c0.2,0,1,0.1,1.7,0.2c0.8,0.1,2.2,0.2,3.2,0.3c1,0.1,1.9,0.1,2.1,0.2c0.1,0,1.1,0.1,2.2,0.1c2,0.1,3.4,0.2,4.5,0.3
	c0.3,0,1.3,0.1,2.3,0.1c1,0.1,1.8,0.1,1.9,0.1c0.1,0,0.2,0.1,0.3,0.1s0.4,0.1,0.6,0.1c0.2,0,0.4,0.1,0.5,0.2
	c0.1,0.1,0.4,0.2,1.3,0.2c0.6,0,1.2,0.1,1.2,0.1c0.1,0,0.4,0.1,0.8,0.1c2,0.2,3.9,0.3,4.8,0.3c0.5,0,1.7,0.1,2.6,0.2
	c0.9,0.1,2,0.2,2.5,0.2c3.4,0.1,6.2,0.3,7.6,0.4c0.5,0.1,1.4,0.1,1.9,0.2c0.6,0,1.1,0.1,1.1,0.1c0,0-0.1,0.1-0.3,0.1
	c-0.2,0-0.5,0-0.6,0c-0.2,0-0.3,0-0.3,0c0,0-0.2,0-0.4,0c-0.2,0.1-0.7,0.1-1,0c-0.4,0-2.3-0.1-4.3-0.1c-2,0-4.3-0.1-5.2-0.1
	c-1.6-0.1-2.1,0-1,0.1c0.3,0,0.6,0.1,0.6,0.1c0.1,0.1-0.3,0.2-0.6,0.3c-0.4,0-0.5,0.2-0.2,0.2c0.1,0,0.8,0.1,1.5,0.1
	c0.7,0.1,2.1,0.1,3.1,0.2c1.6,0.1,1.8,0.1,1.8,0.2c0,0.2,0.4,0.3,2.8,0.4c1,0,1.8,0.1,1.8,0.2c0,0,0.2,0.1,0.5,0.1
	c0.8,0,0.6,0.3-0.4,0.5c-0.3,0.1-0.7,0.1-0.8,0.1c-1.2-0.1-0.9,0.1,0.5,0.3c0.5,0.1,1.3,0.1,1.7,0.2c0.4,0,1.1,0.1,1.5,0.1
	c0.5,0.1,1.4,0.1,2.1,0.2c0.8,0,1.3,0.1,1.3,0.2c0.1,0.1,0.4,0.2,0.8,0.2c0.4,0,0.7,0.1,0.8,0.2c0.1,0.1,0.4,0.2,0.8,0.2
	c0.4,0,0.8,0.1,1,0.2c0.1,0.1,0.6,0.2,1.2,0.2c1.3,0.1,2.3,0.2,2.3,0.3c0.1,0.1-0.8,0.2-1,0.1c-0.1,0-0.1,0-0.1,0
	c0,0.1,0.2,0.1,0.3,0.2c0.4,0.1,0.5,0.2,0.2,0.3c-0.3,0.1,0.1,0.3,1.2,0.5c0.9,0.2,1.4,0.3,1,0.3c-0.4,0,0.2,0.2,0.8,0.2
	c0.4,0,0.7,0.1,0.8,0.2c0.1,0.1,0.4,0.1,0.7,0.2c1,0.2,1,0.3,0,0.4c-0.4,0-0.7,0.1-0.8,0.2c-0.1,0.1-0.3,0.1-0.9,0.1
	c-1.3-0.1-1.5-0.1-1.7,0.2c-0.1,0.1-0.2,0.3-0.1,0.3c0,0,0.3,0.1,0.7,0.1c0.4,0,0.7,0.1,0.8,0.1c0.1,0,0.3,0.1,0.6,0.1
	c0.7,0.1,0.6,0.2-0.3,0.2c-0.4,0-0.8,0-0.8,0.1c0,0-0.5,0.1-0.9,0.1c-0.6,0-0.9,0-0.9,0.1c0,0.1,0.1,0.1,0.3,0.1
	c0.2,0,0.5,0,0.7,0.1c0.2,0.1,0.7,0.1,1.2,0.2c0.5,0,0.9,0.1,1,0.2c0.1,0.1,0.1,0.1,0.2,0s0.2,0,0.3,0c0.2,0.1,0.1,0.1-0.5,0.1
	c-0.6,0.1-1.4,0.2-1.7,0.4c-0.2,0.1,0.1,0.2,1.3,0.3c0.6,0.1,1,0.2,1,0.2c0,0,0.3,0,0.6,0c0.5,0,0.6,0,0.6,0.1
	c0,0.2-0.3,0.5-0.5,0.5c-0.1,0-0.1,0,0-0.1c0.1-0.1,0.1-0.1,0-0.1c-0.1,0-0.2,0.1-0.2,0.2c-0.1,0.1-0.2,0.1-1.2,0.1
	c-1.2-0.1-1.5,0-1.3,0.3c0.4,0.5,1.9,1,3,1c0.6,0,1,0.1,1,0.4c0,0.1-0.2,0.1-0.8,0.1c-0.4,0-1,0-1.2-0.1c-0.2-0.1-1.3-0.1-2.3-0.2
	c-1.9,0-1.9,0-1.9,0.2c0,0.2,0.1,0.3,0.3,0.4c0.1,0,0.5,0.1,1,0.2c1.5,0.3,2.9,0.5,4.3,0.6c1.3,0.1,1.7,0.2,1.6,0.4
	c0,0-0.1,0.1-0.2,0c-0.1,0-0.1,0-0.1,0.1c0,0.1-0.1,0.1-0.1,0.1c-0.1,0-0.2,0-0.1,0.1c0,0-0.1,0.1-0.3,0.1c-0.4,0.1-0.5,0.3-0.3,0.6
	c0.1,0.2,0.1,0.3,0,0.3c-0.1,0.2,0,0.3,0.2,0.3c0.1,0,0.2,0,0.2,0c0,0,0,0.1,0.1,0.2c0.1,0.2,0,0.2-0.8,0.1c-0.5,0-1.1-0.1-1.3-0.1
	c-0.3,0-0.4,0-0.4,0.1c0,0.1-0.1,0.2-0.2,0.2c-0.2,0.1-0.1,0.7,0.2,0.8c0.2,0.1,0.2,0.1,0,0.1c-0.2,0-0.2,0,0,0.1
	c0.2,0.1-0.1,0.1-1.1,0.1c-0.4,0-0.7,0.1-0.7,0.3c0,0.1-0.1,0.1-0.3,0.1c-0.2,0-0.4,0-0.5,0.1c-0.2,0.1-0.2,0.1,0,0.2
	c0.1,0.1,0.3,0.1,0.5,0.1c0.2,0,0.6,0.2,0.9,0.4c0.4,0.2,0.8,0.3,1,0.3c0.6,0,1.6,0.1,1.5,0.2c0,0,0,0.1,0.1,0.1
	c0.1,0,0.2,0.1,0.2,0.2c0,0.2-0.5,0.6-0.8,0.5c-0.1,0-0.2,0-0.3,0.1c0,0.1-1.2,0.2-1.7,0.1c-0.2-0.1-1.2-0.1-2.3-0.1
	c-1.8,0-2.3,0-1.6,0.2c0.2,0,0.5,0.1,0.7,0.2c0.2,0.1,0.6,0.1,0.9,0.1c0.2,0,0.4,0,0.4,0.1c0,0.1,0.1,0.1,0.2,0.1s0.2,0,0.4,0.1
	c0.2,0.1,0.2,0.1,0,0.2c-0.4,0.2-0.3,0.4,0.4,0.6c0.4,0.1,0.7,0.3,0.7,0.3c0,0.1,0.1,0.2,0.1,0.2c0.2,0.1,0,0.4-0.2,0.3
	c-0.1,0-0.1,0-0.1,0c0,0-0.1,0.2-0.2,0.3c-0.2,0.2-0.4,0.3-0.7,0.3c-0.2,0-0.4,0-0.4,0.1c0,0-0.4,0-0.9,0c-0.8,0-1,0-1.1,0.1
	c-0.2,0.2-1.2,0.2-1.7,0.1c-0.2,0-0.3,0-0.4,0c0,0.1-0.2,0.1-0.3,0.1c-0.3,0-0.6,0.1-0.6,0.2c0,0,0.1,0.1,0.1,0.1s0.2,0.1,0.2,0.2
	c0.1,0.1,0.4,0.2,1,0.3c1.2,0.2,2,0.6,1.9,0.8c0,0.1-0.1,0.1-0.2,0.1c-0.1,0-0.1,0-0.1,0c0,0-0.1,0.2-0.2,0.4
	c-0.2,0.2-0.3,0.3-0.5,0.2c-0.1,0-0.2,0-0.1,0c0,0.1-0.1,0.1-0.3,0.1c-0.2,0-0.7,0.1-1,0.2l-0.7,0.2l0.2,0.2
	c0.1,0.1,0.3,0.2,0.3,0.2c0.1,0,0.2,0.1,0.4,0.2c0.3,0.2,0.3,0.2,0.2,0.4c-0.1,0.1-0.1,0.3-0.1,0.3c0.1,0,0.1,0.1,0,0.2
	c0,0.1-0.1,0.1-0.2,0c-0.1-0.1-0.1-0.1-0.2,0c0,0.1-0.2,0.2-0.4,0.2l-0.3,0.1l0.3,0c0.3,0,0.5,0.3,0.3,0.4c-0.1,0-0.2,0-0.2,0
	c0,0-0.2,0-0.4,0.1c-0.2,0.1-0.5,0.2-0.7,0.3c-0.2,0-0.4,0.1-0.5,0.2c-0.2,0.2-0.2,0.2-1.2-0.1c-0.8-0.2-1.1-0.2-1.4,0.1
	c-0.2,0.2-0.3,0.2-0.8,0.1c-0.7-0.1-2-0.1-1.9,0c0,0,0.4,0.1,0.8,0.2c1,0.2,1.1,0.2,1,0.3c-0.3,0.2,1,0.6,2.3,0.7
	c0.3,0,0.6,0.1,0.7,0.1c0,0,0,0.2-0.2,0.3c-0.2,0.2-0.2,0.3,0,0.4c0.1,0.1,0.2,0.2,0.2,0.2c0,0.1-1.7-0.1-2.2-0.2
	c-0.8-0.3-2.4-0.5-2.6-0.3c-0.1,0.1-0.1,0.1,0,0.2c0.1,0.1,0.3,0.2,1.6,0.5c0.4,0.1,0.6,0.2,0.6,0.3c0,0.1-0.1,0.1-0.7,0.1
	c-0.5,0-0.8,0-0.8,0c0,0.1,0,0.1,0.1,0.1c0.1,0,0.1,0,0.1,0.1c-0.1,0.1-1.5-0.2-1.6-0.3c-0.1-0.1-1.6-0.3-1.9-0.3
	c-0.1,0-0.2,0.1-0.2,0.1s0,0.2-0.1,0.3c0,0.1,1.2,0.4,3.3,0.7c0.3,0,0.7,0.2,0.9,0.2s0.5,0.2,0.7,0.2c0.5,0,1.1,0.2,1,0.3
	c0,0-0.7,0.1-1.4,0.1c-0.7,0-1.3,0-1.2,0c0,0,0.2,0.1,0.5,0.2c0.5,0.2,0.5,0.2,0.3,0.3c-0.2,0.1-0.4,0.1-0.7,0
	c-0.6-0.1-0.7-0.1-0.7,0c0,0.1,0.1,0.1,0.3,0.2c0.5,0.1,0.4,0.3-0.2,0.3c-0.4,0-0.8,0.1-1,0.2c-0.2,0.1-0.4,0.1-0.5,0.1
	c-0.3-0.1-5-0.1-4.9,0c0.1,0.2-1.2,0.2-2.3,0c-2.3-0.4-4.2-0.6-5.4-0.6c-0.7,0-1.7-0.1-2.3-0.2c-0.6-0.1-1.6-0.2-2.3-0.2
	c-0.7-0.1-1.3-0.1-1.3-0.1c0,0-0.4-0.1-0.8-0.1c-0.4,0-0.9-0.1-1.1-0.1c-0.4,0-2.2-0.2-3.5-0.2c-1,0-2.4-0.1-3.4-0.2
	c-0.3,0-1.6-0.1-2.8-0.1c-1.2,0-2.7-0.1-3.2-0.1c-0.5,0-2.1-0.1-3.4-0.1c-2,0-2.4,0-2.5,0.2c-0.1,0.1-0.1,0.1-0.2,0
	c-0.1-0.1-0.2-0.1-0.4-0.1c-0.2,0-0.3,0-0.4-0.1c-0.1-0.1-0.3-0.1-0.4-0.1c-0.2,0-0.4,0-0.5-0.1c-0.6-0.2-1.2-0.2-1.5-0.1
	c-0.2,0.1-0.7,0-0.6-0.1c0,0-0.5-0.1-1.1-0.1c-1.7,0-1.8-0.1-2-0.2c-0.2-0.1-0.2-0.1-0.1,0.1c0,0.1,0,0.2-0.1,0.2
	c-0.1,0-0.3,0-0.4,0c-0.1,0-0.2,0-0.2-0.1s-0.1-0.1-0.2-0.1c-0.1,0-0.1,0-0.1,0.1c0,0.1,0,0.1-0.1,0.1c-0.1,0-0.6-0.1-1.1-0.1
	c-1.1,0-0.9,0-6.1,0c-2.2,0-4.2,0-4.6-0.1c-0.3,0-0.7,0-0.8,0c-0.2,0.1-3.4,0.2-4.4,0.2c-0.8,0-1.7,0.4-1.2,0.6c0.1,0,0,0.1-0.1,0.2
	c-0.1,0.1-0.3,0.2-0.3,0.2c-0.1,0.2-1,0.3-1.2,0.1c-0.2-0.1-0.6-0.1-1.2-0.1c-0.5,0-2.3,0.1-3.8,0.1c-1.6,0-3,0.1-3.1,0.1
	c-0.1,0-0.7,0.1-1.3,0.1c-0.6,0-1.1,0.1-1.2,0.1c-0.2,0.1-1.1,0.3-1.3,0.3c-0.2-0.1-0.5,0-0.9,0c-0.2,0-0.4,0.1-0.5,0.1
	c-0.1,0-0.3,0-0.4,0c-0.1,0-0.6,0-1.1,0.1c-0.5,0.1-1.1,0.1-1.4,0.1c-0.2,0-0.5,0-0.5,0.1c-0.1,0.1-0.3,0.1-0.4,0.2
	c-0.3,0.1-0.3,0-0.3-0.1c0-0.1-0.1-0.2-0.7-0.1c-0.4,0-1.4,0.1-2.3,0.1c-0.9,0-1.8,0.1-2.1,0.1c-0.3,0.1-0.6,0.1-0.6,0.1
	s0,0.1,0.1,0.1c0.1,0.1,0.3,0.1,0.5,0.1s0.3,0,0.3,0c0,0,0,0.1,0.1,0.2c0.1,0.2-0.2,0.2-0.4,0c-0.1-0.1-0.2-0.1-0.2,0
	c0,0.1-0.1,0.1-0.1,0.1c-0.1,0-0.1,0-0.1,0c0,0-0.1,0.1-0.2,0.1c-0.1,0-0.8,0.1-1.5,0.1c-0.7,0.1-2.2,0.1-3.2,0.2
	c-1,0-2,0.1-2.1,0.1c-0.5,0.1-3,0.3-4.4,0.4c-2.5,0.1-4.5,0.5-4.9,0.9c-0.1,0.1-0.3,0.2-0.5,0.2c-1.3,0-3.1,0.2-3.9,0.3
	c-0.3,0-0.9,0.1-1.3,0.1c-0.4,0-0.9,0.1-1.2,0.2c-0.3,0.1-0.5,0.1-0.5,0.1C51.9,51.6,51.9,51.5,51.9,51.3L51.9,51.3z M51.9,50.4
	c0-0.1,0-0.1-0.2,0c-0.1,0.1-0.2,0.2-0.1,0.3c0,0.1,0.1,0.1,0.2,0C51.8,50.6,51.9,50.5,51.9,50.4L51.9,50.4z M68.7,48.9
	c0.4-0.1,0.4-0.1-0.4-0.1c-1.9,0.1-2.5,0.2-2.5,0.2C65.8,49.2,68.3,49.1,68.7,48.9L68.7,48.9z M22.3,47.7c0,0-0.1,0-0.1,0
	c-0.1,0-0.1,0-0.1,0.1c0,0.1,0.1,0.1,0.1,0S22.3,47.7,22.3,47.7z M29.5,47.4c0-0.1,0-0.1-0.2-0.1c-0.1,0-0.3,0-0.3,0.1
	c0,0.1,0,0.1,0.2,0.1C29.4,47.5,29.5,47.4,29.5,47.4z M24.8,46.9c0-0.1-0.1-0.1-0.3,0c-0.3,0.1-0.2,0.2,0.1,0.2
	C24.7,47,24.8,46.9,24.8,46.9z M81.4,46.9c0.3-0.1,0.4-0.1,0.2-0.2c-0.3-0.1-3.4,0.1-5.2,0.2c-0.5,0,3.1,0.1,3.8,0.1
	C80.6,47,81.1,46.9,81.4,46.9L81.4,46.9z M84.8,46.6c0.1,0-0.1,0-0.4,0c-0.9,0-1.2,0.1-0.6,0.2c0.2,0,0.5,0,0.6,0
	C84.5,46.6,84.7,46.6,84.8,46.6z M21,46.6c0.2,0,0.2,0,0-0.1c-0.3-0.1-0.5-0.1-0.5,0.1c0,0.1,0.1,0.1,0.2,0.1
	C20.7,46.6,20.9,46.6,21,46.6L21,46.6z M86.3,46.5c0,0-0.2-0.1-0.4-0.1c-0.2,0-0.5,0-0.5,0.1c0,0.1,0.1,0.1,0.4,0.1
	C86.1,46.5,86.3,46.5,86.3,46.5L86.3,46.5z M164.5,45.3c0-0.1-0.1-0.1-0.4-0.1c-0.4,0-0.4,0-0.2,0.1
	C164.4,45.4,164.4,45.4,164.5,45.3z M10.4,43.8c-0.1,0-0.2,0-0.2,0C10.2,43.9,10.3,43.9,10.4,43.8C10.5,43.9,10.5,43.9,10.4,43.8
	L10.4,43.8z M11.6,43.7C11.8,43.6,11.8,43.6,11.6,43.7c-0.1-0.1-0.2,0-0.3,0C11,43.8,11.3,43.8,11.6,43.7z M12.9,43.7
	c0.1,0,0.2-0.1,0.2-0.2c0-0.2-0.1-0.2-0.4-0.1c-0.5,0.1-0.8,0.2-0.4,0.2c0.1,0,0.2,0,0.3,0.1C12.6,43.8,12.7,43.8,12.9,43.7
	L12.9,43.7z M175.4,42c0-0.1-0.1-0.1-0.2-0.1c-0.1,0-0.2,0,0,0.1C175.3,42.1,175.4,42.1,175.4,42z M15.4,37.9c-0.1,0-0.2,0-0.2,0
	C15.2,38,15.3,38,15.4,37.9C15.5,38,15.5,38,15.4,37.9L15.4,37.9z M14.6,37.6c0-0.2-0.3-0.2-0.6,0c-0.4,0.2-0.3,0.3,0.2,0.2
	C14.5,37.8,14.6,37.7,14.6,37.6z M16.5,37.7c-0.1-0.2-0.5-0.2-0.5-0.1c0,0.1,0.1,0.1,0.3,0.1C16.4,37.8,16.5,37.7,16.5,37.7z
	 M15.7,37.6c0.1-0.1,0.1-0.1-0.2-0.1c-0.2,0-0.4,0-0.4,0.1C15.1,37.7,15.5,37.7,15.7,37.6z M182.4,25.9
	C182.4,25.8,182.3,25.8,182.4,25.9c-0.2-0.1-0.2-0.1-0.2,0S182.2,26,182.4,25.9C182.3,26,182.4,25.9,182.4,25.9z M183.1,24
	c-0.1,0-0.2,0-0.2,0c-0.1,0,0,0.1,0.1,0.1C183.1,24.1,183.2,24.1,183.1,24L183.1,24z M181.6,22.8c-0.1,0-0.3,0-0.4,0
	c-0.1,0,0,0,0.2,0C181.6,22.9,181.7,22.8,181.6,22.8z M177,22c0,0-0.4-0.1-0.8-0.2c-0.5-0.1-0.9-0.1-1.1-0.2c-0.1,0-0.2,0-0.2,0
	c0,0.1,0.5,0.2,0.9,0.2c0.5,0.1,0.9,0.1,1,0.2C176.9,22.1,176.9,22.1,177,22C176.9,22.1,177,22.1,177,22L177,22z M31.1,21.1
	C31.3,21,31.3,21,31.1,21.1c-0.2-0.1-0.4-0.1-0.4,0C30.7,21.2,30.9,21.2,31.1,21.1z M176.3,20.5c0,0-0.5-0.1-1-0.2
	c-1.2-0.1-1.5-0.1-1.3,0c0.1,0.1,0.6,0.1,1.2,0.2C175.7,20.5,176.2,20.6,176.3,20.5C176.2,20.6,176.3,20.6,176.3,20.5L176.3,20.5z
	 M25.5,19.3C25.6,19.3,25.5,19.2,25.5,19.3c-0.2-0.1-0.2,0-0.2,0c0,0,0,0.1,0.1,0.1S25.5,19.4,25.5,19.3z M38.9,19.1
	c-0.1,0-0.2,0-0.2,0C38.7,19.2,38.7,19.2,38.9,19.1C39,19.2,39,19.2,38.9,19.1L38.9,19.1z M23.4,19c0-0.1-0.1-0.1-0.2-0.1
	c-0.1,0-0.2,0,0,0.1C23.4,19.1,23.4,19.1,23.4,19z M23.8,18.8C23.8,18.8,23.8,18.8,23.8,18.8c-0.2,0-0.2,0-0.2,0.1
	c0,0.1,0,0.1,0.1,0C23.8,18.9,23.8,18.9,23.8,18.8L23.8,18.8z M29.5,18.1c0.1,0,0.6-0.1,0.9-0.2c0.4,0,0.9-0.1,1-0.2
	c0.2-0.1,0.3-0.1,0.3-0.1c0,0,0.7-0.2,1-0.3c0.5-0.2,0.5-0.4,0.1-0.4c-0.2,0-0.3,0-0.3-0.1c0-0.2,0.4-0.2,1.2-0.2
	c0.3,0,1.2-0.1,1.5-0.3c0.2-0.1-0.3-0.2-1-0.2c-0.4,0-0.8,0.1-1.2,0.2c-0.4,0.1-0.7,0.3-0.8,0.3c-0.2,0-0.2,0-0.1,0.1
	c0.1,0.1,0.2,0.1,0.2,0c0,0,0.1,0,0.1,0c0,0.1-0.2,0.2-1,0.3c-0.2,0-0.4,0.1-0.4,0.2c0,0.1-0.1,0.1-0.2,0c-0.1-0.1-0.1-0.1-0.1,0
	c0,0.1,0,0.2-0.2,0.1c-0.1,0-0.4,0-0.5,0.1c-0.2,0.1-0.4,0.1-0.5,0c-0.1-0.1-0.1-0.1-0.1,0c0,0.1-0.8,0.4-1,0.4
	c-0.1,0-0.2,0.1-0.2,0.1c0,0.1,0.1,0.1,0.5,0.1C29,18.2,29.4,18.2,29.5,18.1L29.5,18.1z M33.6,14.5c-0.1,0-0.2,0-0.2,0.1
	c-0.1,0.1,0,0.1,0.1,0C33.6,14.6,33.7,14.5,33.6,14.5z M154.4,14.1c0,0-0.1-0.1-0.3-0.1c-0.2,0-0.3,0-0.2,0.1
	C153.9,14.2,154.4,14.2,154.4,14.1L154.4,14.1z M33.9,13.5l0.2,0l-0.2-0.1c-0.3-0.1-0.7,0-0.7,0.1c0,0.1,0.1,0.1,0.2,0
	C33.5,13.5,33.8,13.5,33.9,13.5L33.9,13.5z M153.6,13.5c0,0-0.1-0.1-0.1-0.1c-0.1,0-0.1,0-0.1,0.1s0.1,0.1,0.1,0.1
	C153.5,13.6,153.6,13.6,153.6,13.5z M154,13.5c-0.1,0-0.2,0-0.2,0C153.8,13.6,153.8,13.6,154,13.5C154,13.6,154.1,13.6,154,13.5
	L154,13.5z M35.6,13.3c-0.1,0-0.2,0-0.2,0C35.4,13.4,35.4,13.4,35.6,13.3C35.7,13.4,35.7,13.4,35.6,13.3L35.6,13.3z M24.4,13.2
	C24.4,13.1,24.4,13.1,24.4,13.2c-0.2-0.1-0.2-0.1-0.2,0C24.2,13.2,24.2,13.3,24.4,13.2C24.4,13.3,24.4,13.2,24.4,13.2z M27,12.9
	c0-0.1-0.2,0-0.2,0.1c-0.1,0.1,0,0.1,0.1,0C26.9,13,27,13,27,12.9z M28,12.9c0-0.1,0-0.1,0-0.1c0,0-0.1,0.1-0.1,0.1
	c0,0.1,0,0.1,0,0.1C28,13.1,28,13,28,12.9z M158.9,9.5c-0.1,0-0.2,0-0.2,0C158.7,9.6,158.7,9.6,158.9,9.5
	C158.9,9.6,159,9.6,158.9,9.5L158.9,9.5z M66.8,7.5c0-0.1,0-0.1,0-0.1c-0.1,0-0.1,0-0.1,0.1C66.6,7.6,66.7,7.7,66.8,7.5L66.8,7.5z
	 M19.4,50.4c-0.1-0.1-0.1-0.1,0-0.1c0,0,0-0.1-0.1-0.1c-0.3-0.2,0-0.3,0.5-0.3c0.3,0,0.3,0,0.2,0.1c-0.2,0.1-0.3,0.3-0.2,0.3
	c0.3,0,0.5-0.1,0.5-0.3c0-0.1,0-0.1,0.1,0c0.2,0.2,0.9,0.2,1,0c0-0.1,0.1-0.1,0.2,0c0.2,0.2,0.3,0.6,0.1,0.5c-0.1,0-0.1-0.1-0.1-0.2
	c0-0.1,0-0.1-0.2,0c-0.1,0.1-0.4,0.2-1.1,0.1C19.8,50.5,19.4,50.5,19.4,50.4L19.4,50.4z M18,50.2c-0.1-0.1-0.1-0.3,0.1-0.3
	c0.1,0,0.2,0.3,0.1,0.3C18.2,50.3,18.1,50.2,18,50.2z M20.1,49.4c-0.1-0.2-0.1-0.2,0.1-0.2c0.1,0,0.3,0,0.4,0c0.3,0,0.3,0.1,0.1,0.3
	C20.5,49.6,20.3,49.6,20.1,49.4z M80.7,48.6c0,0,0-0.1,0.1-0.1s0.1,0,0.1,0S80.8,48.7,80.7,48.6C80.7,48.7,80.7,48.7,80.7,48.6z
	 M81.9,48.6c0.1-0.1,0.1-0.1,0.2-0.1C82.1,48.5,82,48.6,81.9,48.6C81.8,48.7,81.8,48.7,81.9,48.6z M28.2,48.3c0,0,0.1-0.1,0.2-0.2
	c0.1-0.1,0.2-0.1,0.3,0c0.1,0.1,0.1,0.1,0,0.2C28.4,48.4,28.2,48.4,28.2,48.3L28.2,48.3z M141.1,47.4c0-0.1,0.1-0.1,0.1-0.1
	c0.1,0,0.2,0,0.2,0.1s0,0.1-0.1,0.1S141.1,47.4,141.1,47.4z M139.4,47.3c0-0.1,0.3-0.1,0.3,0c0,0,0,0.1-0.1,0.1
	C139.5,47.4,139.4,47.3,139.4,47.3L139.4,47.3z M40.2,47.1c-0.1-0.2,0-0.3,0.4-0.1c0.2,0.1,0.3,0.2,0.2,0.2
	C40.4,47.3,40.3,47.2,40.2,47.1z M126.7,46.9C126.7,46.8,126.7,46.8,126.7,46.9c0.1-0.1,0.1-0.1,0.1,0c0,0.1,0,0.1,0,0.1
	C126.7,47,126.7,46.9,126.7,46.9z M125.2,46.8c0-0.1-0.1-0.2,0-0.2c0.1-0.1,0.2,0,0.1,0.2C125.3,46.9,125.3,46.9,125.2,46.8
	L125.2,46.8z M125.6,46.8c-0.2-0.1-0.1-0.2,0.1-0.2c0.1,0,0.2,0.1,0.2,0.1C125.9,46.9,125.8,46.9,125.6,46.8z M173.5,46.3
	c-0.1-0.1-0.1-0.2,0.1-0.2c0.1,0,0.1,0.1,0.1,0.1C173.8,46.4,173.6,46.4,173.5,46.3L173.5,46.3z M49.5,45.7c0,0,0-0.1,0.1-0.1
	c0.1,0,0.2,0,0.1,0.1C49.7,45.8,49.5,45.8,49.5,45.7z M50.4,45.5c0-0.1,0.1-0.2,0.2-0.2c0.1,0,0.4,0,0.6-0.1c0.3,0,0.4,0,0.3,0.1
	c-0.1,0.1-0.1,0.1,0,0.1c0.1,0,0.1,0,0.1,0.1c0,0-0.3,0.1-0.7,0.1C50.4,45.7,50.3,45.7,50.4,45.5z M9.6,45.3
	c-0.1-0.1,0.1-0.2,0.2-0.2c0.1,0.1,0,0.2-0.1,0.2C9.7,45.4,9.6,45.3,9.6,45.3z M10.5,42.7c0-0.1,0-0.1,0.1-0.2c0.1,0,0.1,0,0,0.1
	C10.6,42.8,10.5,42.8,10.5,42.7z M11.2,42.6C11.2,42.6,11.3,42.5,11.2,42.6c0.1-0.1,0.1,0,0.1,0.1C11.3,42.8,11.2,42.8,11.2,42.6z
	 M185.5,29.6C185.4,29.5,185.4,29.5,185.5,29.6c0-0.1,0.1-0.1,0.2,0c0.1,0.1,0.1,0.1,0.1,0.1S185.5,29.6,185.5,29.6z M21.2,22.2
	c0,0,0.1-0.1,0.2-0.1c0.1,0,0.2,0,0.2,0.1c0,0.1-0.1,0.1-0.2,0.1C21.3,22.3,21.2,22.2,21.2,22.2z M25.4,20.7l-0.2-0.2l0.6-0.1
	c0.3,0,0.8-0.1,1.1-0.1c0.3,0,0.5,0,0.5-0.1c0-0.1,0.6,0.1,0.7,0.2c0,0-0.1,0-0.2,0c-0.2,0-0.4,0-0.6,0.1c-0.2,0.1-0.5,0.2-0.8,0.2
	c-0.3,0-0.5,0-0.5,0.1C25.9,21,25.6,20.9,25.4,20.7L25.4,20.7z M24.1,20.7c0,0,0.1,0,0.2,0c0.1,0,0.1,0.1-0.1,0.1
	C24.1,20.8,24.1,20.8,24.1,20.7L24.1,20.7z M22.3,19.4c0-0.1,0-0.2,0.1-0.1C22.4,19.3,22.4,19.3,22.3,19.4
	C22.3,19.5,22.3,19.5,22.3,19.4z M25,18.5c0,0,0-0.2-0.2-0.3c-0.2-0.2-0.2-0.2,0.4-0.5c0.7-0.3,0.8-0.4,0.8-0.1
	c0,0.1-0.1,0.2-0.2,0.2c-0.1,0-0.1,0,0,0.1c0.1,0,0.2,0.1,0.3,0.1c0.1,0,0.2,0,0.2,0.1c0,0.1-0.1,0.1-0.3,0.1c-0.2,0-0.4,0-0.5,0
	c-0.2,0-0.2,0,0,0.1c0.1,0.1,0.1,0.1,0,0.1c-0.1,0-0.2,0-0.2,0.1c0,0.1-0.1,0.1-0.2,0.1S25,18.6,25,18.5L25,18.5z M26.3,17.7
	c-0.1-0.1-0.1-0.1,0-0.2c0.2-0.1,0.3,0,0.2,0.2C26.5,17.7,26.4,17.7,26.3,17.7z M22.8,13.5C22.8,13.4,22.9,13.4,22.8,13.5
	c0.2-0.1,0.3-0.1,0.3,0c0,0.1,0,0.1-0.1,0.1C23,13.6,22.9,13.5,22.8,13.5z M24.9,13c0.1-0.2,0.2-0.2,0.2-0.1
	C25.1,13,25,13.1,24.9,13C24.8,13.2,24.8,13.2,24.9,13L24.9,13z M166.2,11.4c0.1-0.1,0.8-0.2,0.9-0.1c0.1,0,0.1,0.1,0,0.1
	C166.6,11.5,166.1,11.5,166.2,11.4z M165.6,11.3c-0.1-0.1,0-0.1,0.2-0.1c0.2,0,0.3,0,0.3,0.1C166.1,11.4,165.8,11.4,165.6,11.3
	L165.6,11.3z M163,11.2c-0.4-0.1-1.5-0.2-3.4-0.2c-0.7,0-1.3-0.1-1.4-0.2c-0.1-0.1-0.6-0.1-1.1-0.1c-0.5,0-0.9,0-0.9,0
	c0,0,0.6-0.3,0.7-0.3c0,0,0,0,0,0.1c0,0.1,0.1,0.1,0.2,0.1c0.2,0,0.3,0,0.3-0.1c0-0.1,0-0.1,0.1-0.1c0.1,0,0.1,0.1,0,0.1
	c-0.1,0.1,0,0.1,0.1,0c0.1-0.1,0.2-0.1,0.3-0.1c0.1,0,0.4,0,0.7,0c0.3,0,0.5,0,0.5,0.1c0,0,0.2,0.1,0.6,0.1c0.3,0,0.7,0,0.8,0.1
	c0.1,0.1,0.2,0.1,0.2,0c0-0.1,0.1-0.1,0.1,0c0.1,0,0.5,0.1,1,0.1c0.5,0,0.9,0,0.9,0c0,0,0.2,0,0.5,0c0.3,0,0.5,0,0.5,0.1
	c0,0,0.1,0.1,0.3,0.1c0.1,0-0.4,0.3-0.5,0.3C163.4,11.3,163.2,11.2,163,11.2L163,11.2z M159,10.7c0,0-0.1-0.1-0.2-0.1
	s-0.2,0-0.2,0.1c0,0,0.1,0.1,0.2,0.1C158.9,10.8,159,10.7,159,10.7z M164.3,10.4c0-0.1-0.1-0.1-0.2,0c-0.1,0-0.1,0-0.1,0
	C164.1,10.1,164.2,10.1,164.3,10.4c0.1,0,0.1,0.1,0.1,0.1S164.3,10.4,164.3,10.4L164.3,10.4z M162.2,10c-0.1-0.1-0.2-0.2-0.2-0.1
	c0,0-0.3,0.1-0.5,0.1c-0.5,0-1-0.2-0.9-0.3c0.1-0.1,0.8-0.1,1,0c0.2,0.1,0.4,0.1,0.6,0c0.1-0.1,0.6-0.1,0.7,0c0.1,0.2,0,0.5-0.2,0.5
	C162.4,10.2,162.3,10.1,162.2,10L162.2,10z M163.2,10.1C163.2,10,163.2,10,163.2,10.1c0.1,0,0.2,0,0.2-0.1c0.1-0.2,0.2-0.1,0.2,0
	C163.6,10.2,163.3,10.2,163.2,10.1L163.2,10.1z M46.3,9.3c0,0,0.1,0,0.2,0c0.1,0,0.1,0.1-0.1,0.1C46.3,9.4,46.3,9.4,46.3,9.3
	L46.3,9.3z M66.5,6.5C66.5,6.4,66.5,6.4,66.5,6.5c0.1-0.1,0.1-0.1,0.1,0c0,0.1,0,0.1,0,0.1C66.5,6.6,66.5,6.6,66.5,6.5z M68.8,6.5
	c-0.2-0.1-0.1-0.3,0.1-0.2c0.1,0,0.2,0,0.2-0.1c0-0.1,0-0.2,0-0.3c0-0.1,0.1-0.2,0.2-0.2c0.1,0,0.2,0,0.3,0c0,0,0.2-0.1,0.4-0.1
	c0.4-0.1,0.6-0.2,0.5-0.4c0,0,0-0.1,0.1-0.1c0.1,0,0.2,0.1,0.2,0.1c0,0.1,0.1,0.1,0.1,0C71.1,5,71.4,5,71.6,5.1
	c0.1,0.1,0.1,0.1,0.1,0C71.6,5,71.6,5,71.7,5c0.1,0,0.2,0.1,0.3,0.1c0.1,0,0.2,0.1,0.2,0.2c0,0.1,0.1,0.2,0.2,0.1
	c0.3-0.1,0.2-0.3,0-0.3c-0.2,0-0.2,0,0-0.1C72.5,5.1,72.8,5,73,5c0.2,0,0.6-0.1,0.9-0.1C74.8,4.8,77,4.5,78,4.4
	c0.5,0,1.1-0.1,1.3-0.1c0.5,0,1.6-0.1,2.9-0.2c0.5,0,1.2-0.1,1.6-0.1C84.6,4,86,3.9,86.2,4c0.1,0,0.3,0.1,0.6,0.1
	c0.2,0,0.4,0.1,0.4,0.2c0,0-0.1,0.2-0.2,0.3c-0.2,0.2-0.3,0.2-0.8,0.2c-0.3,0-0.5,0-0.5,0.1c0,0.1,0.4,0.1,0.8,0.1
	c0.7,0,1.1,0.1,1,0.3c-0.1,0.1-1.4,0.1-1.4,0.1c0,0-0.3,0-0.7,0c-0.4,0-0.9,0-1.2-0.1c-0.3-0.1-0.6-0.1-0.6,0c0,0-0.2,0.1-0.5,0.1
	c-0.2,0-0.6,0.1-0.7,0.1c-0.2,0-0.3,0-0.4,0c-0.1-0.1-0.6-0.1-1.1-0.1c-0.7,0-0.9-0.1-0.9-0.1c0-0.1,0,0-0.1,0
	c-0.1,0.1-0.3,0.1-0.6,0.1c-0.3,0-0.4,0-0.3,0C79,5.4,79,5.4,78.1,5.4c-0.4,0-0.8,0.1-0.9,0.1c-0.1,0-0.2,0-0.2,0
	c0,0-0.1-0.1-0.2-0.1c-0.1,0-0.2,0-0.2,0.1s-0.1,0.1-0.2,0.1c-0.1,0-0.1,0-0.1-0.1c0.1-0.1-1,0.1-1,0.2c-0.1,0.2-2,0.4-2,0.2
	c0-0.1,0-0.1-0.1-0.1c-0.1,0-0.1,0,0,0.1C73.1,6,72.9,6.1,72.7,6c-0.1-0.1-0.1-0.1-0.2,0c0,0.1-0.2,0.1-0.5,0.1
	c-0.2,0-0.4,0-0.4,0.1c0,0.2-0.5,0.1-0.6-0.1C71,6,70.9,5.9,70.9,6s-0.1,0.1,0,0.1c0,0,0,0.1-0.1,0.1c-0.1,0-0.2,0-0.2,0
	c0-0.1-0.2,0-0.3,0.1C69.9,6.4,68.9,6.6,68.8,6.5L68.8,6.5z M67.4,6.1c0-0.2,0.1-0.2,0.1-0.1c0,0.1,0,0.1,0,0.2
	C67.4,6.2,67.4,6.1,67.4,6.1z M67.8,5.9c0.1-0.1,0.2-0.1,0.2-0.1c0.1,0,0,0.1-0.1,0.1C67.7,6,67.7,6,67.8,5.9L67.8,5.9z M102.2,5.6
	c-0.1,0-0.2-0.1-0.2-0.1c0-0.1,0.4-0.1,0.5,0.1c0,0.1,0,0.1,0,0.1C102.4,5.7,102.3,5.6,102.2,5.6L102.2,5.6z M100.1,5.4
	c0.3-0.1,0.4-0.1,0.2,0C100.3,5.4,100.2,5.5,100.1,5.4C100,5.5,100,5.5,100.1,5.4z M100.7,5.4c0,0,0-0.1,0.1,0
	c0.2,0.1,0.3,0.1,0.1,0.1C100.9,5.5,100.8,5.5,100.7,5.4z M87.9,5.2C87.7,5,87.8,5,89,5c0.7,0,1.4,0,1.5-0.1c0.1,0,0.2,0,0.3,0
	c0,0,0.2,0.1,0.4,0.1c0.5,0,0.5,0.1,0,0.2c-0.2,0-0.4,0-0.3,0c0.1-0.1-0.1-0.1-0.2,0.1c-0.2,0.2-0.6,0.2-0.7,0c0-0.1-0.1-0.1-0.3,0
	c-0.2,0.1-0.4,0-0.3-0.1c0-0.1,0-0.1-0.1,0c-0.1,0-0.4,0.1-0.7,0.1C88.1,5.3,88,5.3,87.9,5.2L87.9,5.2z M95.9,5.3
	C95.9,5.2,95.9,5.2,95.9,5.3c0.1-0.1,0.1-0.1,0.1,0c0,0.1,0,0.1,0,0.1C95.9,5.4,95.9,5.4,95.9,5.3z M91.9,5.1
	C91.8,5,91.8,5,91.9,5.1C91.9,5,92,5,92,5.1C92.1,5.2,92.1,5.2,91.9,5.1z M130.9,5.1c0.1-0.1-0.3-0.2-0.4-0.1
	c-0.1,0.1-0.6,0.1-0.6,0c0-0.1-0.3-0.1-0.8,0c-0.6,0-0.9,0-1.1-0.1c-0.2-0.1-0.3-0.1-0.2-0.1c0.1,0,0.2,0,0.2,0c0,0,0.1-0.1,0.2-0.1
	c0.1,0,0.2-0.1,0.2-0.1c0-0.1,0.1,0,0.1,0.1c0,0.2,0,0.2,0.3,0.1c0.2-0.1,0.3-0.1,0.4,0c0.1,0.2,0.1,0.2,0.1,0c0-0.1,0-0.2,0.2-0.2
	c0.1,0,0.3,0.1,0.3,0.2c0.1,0.1,0.1,0.1,0.1,0c0-0.1,0.3-0.2,0.3,0c0,0,0.3,0.1,0.8,0.1c0.4,0,0.8,0,0.8,0.1c0,0,0.1,0.1,0.3,0.1
	c0.2,0,0.2,0,0.1,0.1C132.1,5.1,130.9,5.2,130.9,5.1L130.9,5.1z M132.6,5.1C132.6,5,132.6,5,132.6,5.1c0.1-0.1,0.3-0.1,0.5-0.1
	c0.4-0.1,0.5,0.1,0.2,0.2C132.8,5.2,132.6,5.2,132.6,5.1z M125.4,4.7c0-0.1-0.2-0.1-0.4-0.1c-0.2,0-0.4,0-0.4,0.1
	c0,0.1-0.1,0.1-0.1,0c0-0.1-0.6-0.2-0.6,0c0,0.1,0,0.1-0.1,0c-0.1-0.1-1-0.2-1.9-0.2c-0.3,0-0.5,0-0.5-0.1c0-0.1-1.3-0.1-1.4,0
	c-0.2,0.1-1.1,0.2-1.1,0.1c0-0.1-0.1-0.1-0.1-0.1s-0.1,0-0.1,0.1c0,0.1-0.7,0.1-1.9,0c-1,0-2,0-2.1,0c-0.1,0-0.4,0-0.6-0.1
	c-0.2-0.1-0.3-0.1-0.3,0c0,0.1-0.3,0.1-0.4,0c0,0-0.5,0-1,0c-0.6,0-1,0-1.1-0.1c-0.1-0.1-0.1-0.1-0.1,0c0,0.1,0,0.1-0.1,0
	c0-0.1-0.6-0.1-1.4-0.1c-0.7,0-3,0-5-0.1c-2,0-4.6-0.1-5.7-0.1c-1.1,0-2.1,0-2.1-0.1c0,0-0.2-0.1-0.5-0.1c-0.3,0-0.5,0-0.5,0.1
	c0,0,0,0.1-0.1,0.1c-0.1,0-0.1,0,0-0.1c0-0.1,0-0.1-0.1-0.1c-0.1,0-0.2,0-0.2-0.1c0-0.1,0-0.1-0.1-0.1s-0.1,0,0,0.1
	C95,4,94.9,4,94.7,4c-0.3,0-0.3,0-0.2-0.1c0.1-0.1,0.1-0.1,0-0.1c-0.1,0-0.1,0,0-0.2c0.1-0.1,0.2-0.1,0.4-0.1c0.1,0,0.2,0,0.2-0.1
	c0-0.1,0.1-0.1,0.2,0c0.1,0,0.2,0,0.1,0c0-0.1,0-0.1,0-0.1s0.1,0.1,0.1,0.2l0.1,0.2l0.3-0.2c0.2-0.1,0.3-0.2,0.3-0.1
	c0,0.1,0.1,0.1,0.2,0c0.1-0.1,0.8-0.1,3.7-0.1c2,0,4.4,0,5.4,0.1c1,0,2.6,0.1,3.6,0.1c3.7,0.1,4.6,0.2,4.7,0.2
	c0.2,0.1,1,0.2,1.1,0.1c0.1,0,0.2,0,0.2,0c0.1,0.1,0.1,0.1,0.2,0c0.1-0.1,0.1-0.1,0.1,0c0,0.1,0.6,0.1,1.7,0.1
	c1.7,0,4.5,0.1,4.5,0.3c0,0,0.3,0.1,0.8,0c0.7,0,2.4,0.1,2.7,0.2c0.1,0,0.1,0.1,0,0.2c-0.1,0.1-0.1,0.1,0,0.1c0.1,0,0.3-0.1,0.4-0.1
	c0.2,0,0.3-0.1,0.2-0.2c0-0.1,0-0.1,0.1,0c0.1,0.1,0.2,0.1,0.7,0.1c0.3,0,0.6,0,0.7,0c0.1,0.1,0.3,0.1,0.5,0.1c0.3,0,0.3,0,0,0.1
	c-0.2,0-0.2,0.1-0.1,0.1c0.2,0.1,0,0.1-1.4,0.1C125.7,4.8,125.4,4.8,125.4,4.7L125.4,4.7z M96.3,3.8c0-0.1-0.1-0.1-0.1-0.1
	C96,3.8,96.1,4,96.2,4C96.3,4,96.4,3.9,96.3,3.8z M90.5,4.2C90.6,4,90.6,4,90.4,4c-0.1,0.1-0.1,0,0-0.2l0.1-0.2l0.1,0.2
	c0.1,0.3,0.3,0.3,0.4,0.1c0-0.1,0-0.1,0-0.1s-0.1-0.1-0.1-0.2c0-0.1,0.1-0.1,0.5-0.1c0.3,0,0.5,0,0.5,0c0-0.1,0.2-0.1,0.4-0.1
	c0.2,0,0.3,0,0.3,0.1c0,0.1,0,0.1,0.1,0c0.2-0.1,0.2-0.1,0.2,0c0,0.1-0.1,0.2-0.1,0.2c0,0-0.1,0-0.1,0.1c0,0.2,0.2,0.1,0.3-0.2
	C93,3.3,93,3.3,93.3,3.4c0.1,0.1,0.2,0.2,0.1,0.4c0,0.1,0,0.2,0,0.2c0,0,0.1,0,0.1,0.1c0,0.1-0.2,0.1-0.6,0.1c-0.6,0-0.6,0-0.7-0.2
	c-0.1-0.2-0.5-0.3-0.5-0.1c0,0.1,0,0.1,0.1,0c0.1,0,0.1,0,0,0.1c0,0.1-0.1,0.1-0.2,0.1c-0.1,0-0.1,0-0.1,0.1
	c0.1,0.1-0.3,0.2-0.6,0.2c-0.1,0-0.3,0-0.4,0.1C90.4,4.4,90.4,4.4,90.5,4.2L90.5,4.2z M93.2,3.8C93.2,3.8,93.2,3.7,93.2,3.8
	c-0.2-0.1-0.2,0-0.2,0C93.1,3.9,93.1,3.9,93.2,3.8C93.2,3.9,93.2,3.9,93.2,3.8z M89.1,4.2c0,0,0-0.1,0.1-0.1c0.1,0,0.2-0.1,0.1-0.2
	c0-0.1,0-0.2,0-0.2c0.1,0,0.1,0.3,0,0.5C89.3,4.3,89.2,4.3,89.1,4.2z M89.8,3.9c0-0.1,0.1-0.1,0.1-0.1c0,0,0.1,0.1,0.1,0.1
	c0,0.1,0,0.1-0.1,0.1S89.7,4,89.8,3.9z M90.1,3.6c0.1-0.1,0.3-0.1,0.4-0.1c0.2,0,0.4,0.1,0.2,0.2c-0.1,0-0.1,0-0.1-0.1
	c0-0.1-0.1-0.1-0.3,0C90.1,3.8,89.9,3.8,90.1,3.6L90.1,3.6z M88.8,3.6c0,0,0.1,0,0.2,0c0.1,0,0.1,0.1-0.1,0.1
	C88.8,3.7,88.8,3.7,88.8,3.6L88.8,3.6z M94.1,3.6C94,3.5,94,3.5,94.1,3.6c0.1-0.1,0.2-0.1,0.2,0C94.3,3.7,94.3,3.7,94.1,3.6
	L94.1,3.6z M93.5,3.4c0-0.1,0-0.1,0.1,0c0.2,0.1,0.3,0.2,0.1,0.2C93.7,3.6,93.6,3.5,93.5,3.4z"/>
</svg>
