<?xml version="1.0" encoding="utf-8"?>
<!-- Generator: Adobe Illustrator 24.2.0, SVG Export Plug-In . SVG Version: 6.00 Build 0)  -->
<svg version="1.1" id="Layer_1" xmlns="http://www.w3.org/2000/svg" xmlns:xlink="http://www.w3.org/1999/xlink" x="0px" y="0px"
	 viewBox="0 0 91.7 100" style="enable-background:new 0 0 91.7 100;" xml:space="preserve">
<style type="text/css">
	.st0{fill:url(#SVGID_1_);}
	.st1{font-family:'ArialMT';}
	.st2{font-size:10px;}
	.st3{fill:#39424E;}
</style>
<g>
	
		<linearGradient id="SVGID_1_" gradientUnits="userSpaceOnUse" x1="52.5" y1="97.3898" x2="52.5" y2="-2.6102" gradientTransform="matrix(1 0 0 -1 -6.6667 97.3898)">
		<stop  offset="0" style="stop-color:#CEE3EB"/>
		<stop  offset="1" style="stop-color:#AEC8C7"/>
	</linearGradient>
	<path class="st0" d="M91.6,44.9L91.6,44.9c-0.2-9.4-0.9-17.8-2.1-19.9c-1-1.7-6.2-5.4-12.6-9.5L59.7,5.7C53.3,2.4,47.8,0,45.8,0
		c-2.4,0-10.2,3.6-18.5,8.2C21,11.6,14.4,15.6,9.5,18.9c-3.9,2.6-6.6,4.8-7.4,6.1c-0.7,1.3-1.3,4.9-1.6,9.7l0,0
		c-0.5,6-0.6,13.9-0.4,21.1C0.3,64.9,1,73,2.1,75c2.9,4.9,38,25,43.7,25c2.4,0,9.8-3.5,17.9-7.9C70.2,88.6,77,84.6,82,81.2l0,0
		c3.9-2.7,6.8-4.9,7.5-6.2c0.7-1.2,1.3-4.8,1.6-9.5l0,0C91.6,59.6,91.8,52,91.6,44.9z"/>
</g>
<text transform="matrix(1 0 0 1 21.2573 65.5)" class="st1 st2">C language</text>
<g transform="translate(-17, 0)">
	<path d="M52.6,75l-2-0.3l-0.9-1.8c-0.1-0.1-0.2-0.2-0.3-0.2c-0.1,0-0.2,0.1-0.3,0.2l-0.3,0.7l-0.6,1.2l-0.5,0.1L46.1,75
		c-0.1,0-0.1,0-0.2,0.1c0,0,0,0,0,0.1c0,0,0,0.1,0,0.1c0,0,0,0,0,0c0,0,0,0.1,0,0.1c0,0,0,0.1,0.1,0.1l1.5,1.4l-0.3,1.8l0,0.2
		c0,0,0,0,0,0l0,0c0,0,0,0,0,0c0,0.2,0.2,0.3,0.4,0.3c0,0,0.1,0,0.1,0l1.8-1l1.8,1c0.2,0.1,0.4,0,0.4-0.1c0-0.1,0-0.1,0-0.2l-0.3-2
		l1.5-1.4c0.1-0.1,0.1-0.3,0-0.5C52.7,75,52.6,75,52.6,75"/>
	<path d="M61.6,75l-2-0.3l-0.9-1.8c-0.1-0.1-0.2-0.2-0.3-0.2c-0.1,0-0.2,0.1-0.3,0.2l-0.3,0.7l-0.6,1.2l-0.5,0.1L55.1,75
		c-0.1,0-0.1,0-0.2,0.1c0,0,0,0,0,0.1c0,0,0,0.1,0,0.1c0,0,0,0,0,0c0,0,0,0.1,0,0.1c0,0,0,0.1,0.1,0.1l1.5,1.4l-0.3,1.8l0,0.2
		c0,0,0,0,0,0l0,0c0,0,0,0,0,0c0,0.2,0.2,0.3,0.4,0.3c0,0,0.1,0,0.1,0l1.8-1l1.8,1c0.2,0.1,0.4,0,0.4-0.1c0-0.1,0-0.1,0-0.2l-0.3-2
		l1.5-1.4c0.1-0.1,0.1-0.3,0-0.5C61.7,75,61.6,75,61.6,75"/>
	<path d="M70.6,75l-2-0.3l-0.9-1.8c-0.1-0.1-0.2-0.2-0.3-0.2c-0.1,0-0.2,0.1-0.3,0.2l-0.3,0.7l-0.6,1.2l-0.5,0.1L64.1,75
		c-0.1,0-0.1,0-0.2,0.1c0,0,0,0,0,0.1c0,0,0,0.1,0,0.1c0,0,0,0,0,0c0,0,0,0.1,0,0.1c0,0,0,0.1,0.1,0.1l1.5,1.4l-0.3,1.8l0,0.2
		c0,0,0,0,0,0l0,0c0,0,0,0,0,0c0,0.2,0.2,0.3,0.4,0.3c0,0,0.1,0,0.1,0l1.8-1l1.8,1c0.2,0.1,0.4,0,0.4-0.1c0-0.1,0-0.1,0-0.2l-0.3-2
		l1.5-1.4c0.1-0.1,0.1-0.3,0-0.5C70.7,75,70.6,75,70.6,75"/>
	<path d="M79.6,75l-2-0.3l-0.9-1.8c-0.1-0.1-0.2-0.2-0.3-0.2c-0.1,0-0.2,0.1-0.3,0.2l-0.3,0.7l-0.6,1.2l-0.5,0.1L73.1,75
		c-0.1,0-0.1,0-0.2,0.1c0,0,0,0,0,0.1c0,0,0,0.1,0,0.1c0,0,0,0,0,0c0,0,0,0.1,0,0.1c0,0,0,0.1,0.1,0.1l1.5,1.4l-0.3,1.8l0,0.2
		c0,0,0,0,0,0l0,0c0,0,0,0,0,0c0,0.2,0.2,0.3,0.4,0.3c0,0,0.1,0,0.1,0l1.8-1l1.8,1c0.2,0.1,0.4,0,0.4-0.1c0-0.1,0-0.1,0-0.2l-0.3-2
		l1.5-1.4c0.1-0.1,0.1-0.3,0-0.5C79.7,75,79.6,75,79.6,75"/>
</g>
<path class="st3" d="M56.6,45.3c-2.5,2.2-5.6,3.4-8.9,3.4c-7.3,0-13.4-5.9-13.4-13.1s6-13.1,13.4-13.1c3.3,0,6.4,1.2,8.9,3.3
	c1,0.9,1.1,2.4,0.2,3.4s-2.4,1.1-3.4,0.2c-1.6-1.4-3.6-2.1-5.7-2.1c-4.7,0-8.5,3.7-8.5,8.2s3.8,8.2,8.5,8.2c2.1,0,4.1-0.8,5.7-2.2
	c1-0.9,2.5-0.8,3.4,0.2C57.7,42.9,57.6,44.5,56.6,45.3z"/>
</svg>
