<?xml version="1.0" encoding="utf-8"?>
<!-- Generator: Adobe Illustrator 24.2.0, SVG Export Plug-In . SVG Version: 6.00 Build 0)  -->
<svg version="1.1" id="Layer_1" xmlns="http://www.w3.org/2000/svg" xmlns:xlink="http://www.w3.org/1999/xlink" x="0px" y="0px"
	 viewBox="0 0 2388.6 1707.2" style="enable-background:new 0 0 2388.6 1707.2;" xml:space="preserve">
<style type="text/css">
	.st0{fill:#231F20;}
	.st1{fill:#FEE1DD;}
	.st2{fill:#526C9C;}
	.st3{fill:#746E6C;}
	.st4{fill:#E2E0E1;}
	.st5{fill:#324973;}
	.st6{fill:#A100FF;}
	.st7{fill:#4B4B4B;}
	.st8{fill:#F3F3F3;}
	.st9{fill:#FED3CC;}
	.st10{fill:#B9BCC3;}
	.st11{fill:#535152;}
	.st12{fill:#EED4CE;}
	.st13{fill:#666666;}
</style>
<path class="st0" d="M2079.2,304.3c-1.2,7.6-3.5,14.6-6.2,20.8c-4.7,11-10.5,19.2-12.9,22.6c-10,14.1-20.4,22.2-29.1,28.9
	c-14.2,11-21.3,16.6-29.3,15.8c-10.3-1.1-16.9-11.3-29.7-31.7c-7.1-11.3-16.2-27.8-24-50.2c-2.6-7.3-4.6-14.4-8.6-28.6
	c-7.3-25.8-7.4-30-12.2-42.3c-7.3-18.6-11.1-28.2-21-32.8c-10.8-5-24.3-2-33.1,4c-25.1,16.9-18,61.6-17.1,67.1
	c6.1,35.8,31.5,60.3,41.4,69.7c18.6,17.9,26.3,16.5,39.1,34.1c5.6,7.7,17.4,26.3,19.6,51.9c1.2,13.9-3.1,29.6-11.8,60.4
	c-7.6,26.9-11.5,40.5-18.2,49.6c-0.6,0.8-1.6,2.2-3.2,4.1c-7.6,9.4-26.7,29.3-51.7,27.8c-6.5-0.4-12.5-2.1-17.9-4.8
	c-4.5-0.7-8.3-2-11.7-3.6c-12.3-6-12.5-14.2-56.3-70.3c-1.2-1.5-2.5-3.1-3.8-4.8c-16.1-13.2-29.4-17.7-29.5-26.4c0-0.3,0-0.7,0-1
	c0.4-4.1,3.5-4.2,28.9-21.2c21.5-14.4,30.1-21.6,37.2-28.7c7.6-7.5,11.3-11.3,14.2-16.6c10.1-18.6,2.9-40.3-1.5-54.5
	c-28.1-89.9-20.3-112.2-49.8-138.1c-14.9-13-26.2-15.5-29-16.1c-25.6-5.1-52.2,10.4-66.9,25.2c-10.6,10.7-10.8,16.6-24.1,28.1
	c-0.3,0.3-0.7,0.5-1,0.8c-13.1,11.1-25.5,16.5-28.5,17.8c-37.6,15.3-73.6,2.6-77.3,1.2c-32.3-12-47.2-35.5-60.3-56.2
	c-17.1-27.1-12.8-38.6-11.6-41.5c0.8-1.8,3.5-7.2,12.6-12.5c18.6-10.8,38.3-5.8,54.8-4.3c33.3,3,59.6-7.7,86.3-18.5
	c16.6-6.8,32.5-18.1,64.1-40.8c55.2-39.5,56.2-47.5,84.2-60.8c18-8.6,45.5-21.3,81.5-19.1c34.8,2.1,59.2,17,78.1,28.6
	c38.2,23.3,61.2,52.6,72.2,68.6c30.7,44.8,11.2,49.1,49.5,135.5C2073.5,259.8,2083.2,279.4,2079.2,304.3z"/>
<path class="st1" d="M1832.4,398.2c-2.9,5.3-6.7,9.1-14.2,16.6c-7.1,7-15.7,14.3-37.2,28.7c-25.4,17-28.5,17.1-28.9,21.2
	c0,0.3-0.1,0.7,0,1c-3.2-1.2-6.3-1.5-9.4-0.9c-4.1,0.8-8.9,3.6-19.2,4.9c-9.4,1.1-14,1.7-17.5-0.5c-6.7-4.1-4.8-14.2-5.6-50.1
	c-0.4-21.2-1.1-18.6-0.8-28.4c0.6-22,3.7-26.2-0.3-32.6c-6.5-10.4-19.3-6.9-25-18.9c-1.1-2.2-1.7-6.3-2.9-14.5
	c-1.6-10.9-2-19.1-2.1-19.8c-1.1-19.3-7.3-55.8-7.9-60.5c-0.1-0.5-0.1-1-0.2-1.5c13.3-11.5,13.4-17.4,24.1-28.1
	c14.8-14.8,41.3-30.3,66.9-25.2c2.8,0.6,14.1,3.1,29,16.1c29.5,25.9,21.8,48.2,49.8,138.1C1835.4,357.9,1842.5,379.7,1832.4,398.2z"
	/>
<path class="st1" d="M2124.2,435.7c-15.6,9.9-30.1,29.4-54.1,54c-50.2,51.2-94.7,76.4-118.3,98.3c-2.9-20.8-7.7-39.3-20.3-42.6
	c-1.9-0.5-3.5-0.5-4.4-0.5c-1.4,0.9-2.8,1.8-4.2,2.7c1.6-1.9,2.6-3.4,3.2-4.1c6.7-9.1,10.6-22.7,18.2-49.6
	c8.7-30.8,13-46.5,11.8-60.4c-2.2-25.5-14-44.1-19.6-51.9c-12.8-17.7-20.6-16.3-39.1-34.1c-9.8-9.5-35.2-33.9-41.4-69.7
	c-0.9-5.5-8-50.1,17.1-67.1c8.8-6,22.4-9,33.1-4c9.9,4.6,13.7,14.3,21,32.8c4.8,12.3,4.9,16.5,12.2,42.3c4,14.2,6.1,21.3,8.6,28.6
	c7.9,22.4,16.9,39,24,50.2c12.8,20.4,19.4,30.6,29.7,31.7c7.9,0.8,15.1-4.7,29.3-15.8c8.7-6.8,19.1-14.8,29.1-28.9
	c2.4-3.4,8.2-11.6,12.9-22.6c4.6,10.2,17.9,39.5,35.7,77.7C2114.9,415.9,2120.2,427.2,2124.2,435.7z"/>
<path class="st2" d="M2314.4,1275.8c-84.8,207.5-233.3,373-266.3,357.6c-6.4-3-5.3-11.2-14-27c-1.9-3.5-4.3-7.3-7.3-11.5
	c-23.5-32.6-55.1-45.3-69.2-52.2c-39.3-19.1-66.1-60.2-119.9-142.5c-29.1-44.5-62.9-97.2-83.4-173.6c-5.6-21-9.7-36.3-11.9-50.4
	c-1.9-12.1-2.4-23.2-1.3-36.2c1.1-12.7,3.4-23.5,6.8-33.4c3.5,0.5,6.5,1,8.9,1.4c6,1.2,16.4,3.8,46.5,22.3
	c40.7,25.1,63.2,45.9,82.7,61c34.7,26.9,64.9,39.7,105.3,56.7c59.4,25.1,69.3,18,177.8,48.3c0,0,25.8,7.2,61.9,10.9
	c27.3,2.8,35.8,1,40.5-0.3C2290.2,1301.8,2305.7,1288.4,2314.4,1275.8z"/>
<path class="st2" d="M2374.2,1014.1c-1.1,51.5-9.7,103.7-23.4,154.9c0-29.7,5.7-60.1-4.2-174.9c-8.8-101.6-13.2-152.4-28.3-215.5
	c-24.2-101-44.9-187.5-108.4-209.3c-44.8-15.4-87.4,9.6-90.9,11.7c-61.5,37.2-61.9,127.6-62,154.2c-0.1,27.9,4.7,50.4,13.5,92
	c9.4,44.2,16.4,57.7,24.6,92.1c13.2,56,11.1,90.1,13.9,123.1c-2.2,0.1-12.3,0.8-25.6-1.1c-24.5-3.5-41.7-13.1-47.9-16.5
	c-4.5-2.4-40.2-15.6-111.5-41.8c-40.2-14.8-46.2-16.1-95.8-34.4c-0.4-0.1-0.7-0.3-1.1-0.4c8.2-28,3.5-36.8,26.2-86.7
	c38.8-84.9,58.2-127.4,75.8-153.5c3.8-5.6,13.3-19.3,15-38.7c1.9-21.8-7.7-31.3-9.6-45c-1.9-13.5,4.7-24.4,17.4-36.2
	c23.6-21.9,68.1-47.1,118.3-98.3c24-24.6,38.5-44.1,54.1-54c7.5-4.8,15.3-7.3,24.5-7.2c13.9,0.3,26.9,8.5,52.1,25
	c21.9,14.3,45.1,29.4,68.4,54.9c20.8,22.8,39.7,51.5,57.7,98.7c23.3,61,31.3,116.2,38.8,226.5
	C2371.2,914.7,2375.1,971.7,2374.2,1014.1z"/>
<ellipse transform="matrix(0.7337 -0.6794 0.6794 0.7337 195.6323 1255.6788)" class="st3" cx="1699.9" cy="378.2" rx="13.9" ry="46.9"/>
<path class="st4" d="M1672,363.2c0.6,0.3,3.4-3.6,5-7.8c1.9-5.1,1.8-10.6,1.1-10.8c-0.3-0.1-0.8,0.9-1,1.4c-0.5,1.2-0.3,2.3-0.3,3.2
	c0.1,0.8,0.3,3.7-0.9,5.9c-0.8,1.5-1.4,1.2-2.6,2.9C1671.9,360.2,1671.5,362.9,1672,363.2z"/>
<path class="st4" d="M1686.4,383.3c-0.2,0,0.2-5.3-0.1-13.8c-0.4-10.4-1.4-14.2,1.1-16.1c2.6-2,7.4-0.3,7.4-0.1
	c0,0.2-3.1-0.7-5.2,0.8c-2.6,1.9-1.8,6-1.8,13.1C1687.7,376.2,1686.6,383.3,1686.4,383.3z"/>
<path class="st4" d="M1695.6,357.2c-0.2,0-0.4,0.9-0.5,1.5c-0.4,2.3-0.3,4.1-0.3,4.7c0.2,3.1-0.7,3.2-0.8,7.2
	c-0.1,3.3,0.5,3.4,0.3,5.4c-0.5,5.9-5.8,9.5-5.3,10.1c0.3,0.4,2.7-0.7,4.3-2.7c1.3-1.6,1.5-3.1,2.2-10c0.6-6.3,0.8-7.7,0.7-10
	C1696.2,360.9,1696,357.2,1695.6,357.2z"/>
<path class="st5" d="M2034.2,1606.4c-21.6,54.5-83.3,76.7-122.8,90.9c-99.3,35.7-195.7,9.6-275.2-11.9
	c-44.7-12.1-69.3-23.8-77.4-27.7c-56.5-27.6-74.3-54.1-126.6-98.8c-61.8-52.7-137.6-117.5-218.7-154.2c-15.9-7.2-54.1-23.3-62.5-56
	c-5.5-21.1,4.9-36.1-2.5-43.6c-15.8-16.1-85.2,28.5-106.9,42.3c-88.8,56.1-38.2,11.1-434.1,182.7c-16.2,7-46.7,20.3-80.1,10.9
	c-6.4-1.8-12.3-4.2-17.9-7.3c-31-16.7-50.2-50.2-65.3-76.5c-11.7-20.5-21.8-38.2-25.7-53.5c-2.5-9.8-2.3-18.6,1.6-26.5
	c12.4-25,51.5-18.4,102.8-33.5c49.2-14.5,71.9-37.8,128.6-82.7c113.3-89.7,102.1-59.8,243.6-166.6c39.3-29.7,104.6-80.6,186.3-107.7
	c17.6-5.9,42.9-12.9,74.4-10.8c42.9,2.8,71.5,20.6,100.5,36.9c73.8,41.5,50.8,17,184.4,84.3c92.4,46.6,138.6,69.9,144.5,74.3
	c25.4,19.2,61.8,51,85.8,39.4c12-5.8,13.2-18.7,31.5-28.2c0,0,15.9-8.2,40-6.4c2.2,14.1,6.3,29.4,11.9,50.4
	c20.5,76.5,54.3,129.2,83.4,173.6c53.8,82.3,80.7,123.4,119.9,142.5c14.1,6.8,45.8,19.6,69.2,52.2
	C2029.9,1599.1,2032.3,1602.9,2034.2,1606.4z"/>
<path class="st6" d="M1373.6,980.8c112.7,20.5,451.7,87.3,452.1,179.1c0,7-1.9,14.3-6.5,22.2c-12.9-1.7-33.1-4.7-57.8-9.1
	c-53.4-9.6-88.1-19-187.3-44.9c-73.4-19.2-52.7-13.5-96.1-24.9c-69.5-18.3-125.8-33.6-162.9-43.8c-105.6-161.3-213.4-327-315-497.2
	c32.5,0.2,69.2,0.4,101.7,0.7C1192.5,702.1,1283.1,841.5,1373.6,980.8z"/>
<path class="st7" d="M1370.8,984.7c133.7,26.5,267.4,53,401.1,79.6c9.7,31.6,19.4,63.3,29.1,94.9c-163.3-41-326.6-81.9-489.9-122.9
	c-98.6-155.7-197.3-311.5-295.9-467.2h89.9C1193.7,707.6,1282.2,846.2,1370.8,984.7z"/>
<path class="st8" d="M2351.6,1223.3c-1.5,5.7-5.9,19.7-32.2,43.7c1.9-4.2,3.1-8.6,3.6-13.2c-1.9,5.1-3.9,10.3-6,15.3
	c-0.9,2.2-1.8,4.4-2.7,6.6c-8.7,12.6-24.3,26.1-42.9,31.2c-4.7,1.3-13.2,3.1-40.5,0.3c-36.1-3.7-61.9-10.9-61.9-10.9
	c-108.5-30.2-118.4-23.2-177.8-48.3c-40.4-17.1-70.6-29.8-105.3-56.7c-19.4-15.1-41.9-35.9-82.7-61c-30.1-18.5-40.5-21.2-46.5-22.3
	c-2.4-0.5-5.4-0.9-8.9-1.4c-13.8-1.8-35.4-3.5-59.8-3.4c-9,0-16.7,0.3-22.1-5c-5-4.9-5.8-12.5-5.1-20.7c0.4-4.9,1.5-10,2.5-14.9
	c3.2-15.2,5.9-27.8,8.7-38.9c4-16.4,8.2-29.4,14.2-42.1c2.3-4.9,5-9.7,8-14.6c7.6-12.5,15.8-25.9,25.2-35.6
	c7.8-8.1,16.5-13.5,26.3-13.5c6.9,0,10.5,2.7,22.2,8.3c2,1,21,7.9,59,21.8c0.4,0.1,0.7,0.3,1.1,0.4c49.7,18.2,55.6,19.6,95.8,34.4
	c71.3,26.2,107,39.3,111.5,41.8c6.2,3.4,23.4,13,47.9,16.5c13.4,1.9,23.5,1.2,25.6,1.1c-2.8-33-0.6-67.1-13.9-123.1
	c-8.1-34.4-15.1-48-24.6-92.1c-8.9-41.6-13.7-64.2-13.5-92c0.1-26.5,0.6-117,62-154.2c3.4-2.1,46.1-27,90.9-11.7
	c63.4,21.8,84.2,108.4,108.4,209.3c15.1,63.2,19.5,113.9,28.3,215.5c9.9,114.8,4.2,145.2,4.2,174.9c0,8.5,0.5,17,2,27.5
	C2353.3,1200.4,2354.9,1210.7,2351.6,1223.3z"/>
<path class="st9" d="M1686.3,981.6c-6.1,12.7-10.2,25.7-14.2,42.1c-18.6,20.8-50.6,36.7-77.1,34.5c-16.6-1.4-21.4-9.1-40.1-7.1
	c-26.9,2.9-37,20.9-56.5,15.3c-2-0.6-17.1-5-19.8-15.3c-0.9-3.7,0-6.9-1.8-7.8c-3.5-1.9-9.2,9.2-18.5,9.2c-4.2,0-9.3-2.2-11.7-6.1
	c-2.8-4.6-1.4-10.9,13.4-39.4c6.7-12.9,10.1-19.3,12.7-23.4c9.1-14.3,21-28.2,30.6-36c33.4-27.5,84.2-18.6,94.4-16.8
	C1601.3,931.5,1676.2,945.3,1686.3,981.6z"/>
<path class="st1" d="M1719.5,931.4c-9.4,9.7-17.6,23.1-25.2,35.6c-16.1,26.5-21,49.5-30.8,95.6c-1,4.9-2.1,10-2.5,14.9
	c-13.5,1.2-32,0.2-47.5-10c-9.4-6.1-10.3-10.8-23.8-18.5c-9.5-5.4-28.9-16.6-46.5-10.4c-4.7,1.7-2.7,2.2-20.4,14.6
	c-19.3,13.5-24.7,14.9-28.6,15.5c-9.4,1.3-22.1-0.6-24.3-7.1c-1.2-3.6,1-8.7,3.8-11.5c4-4.1,8.5-3.1,10.8-7.3
	c1.4-2.6,0.4-4.4,0.8-7.3c0.8-6.8,7.7-10.6,13.8-15c21.4-15.2,21.3-27.7,35.4-29.6c3.5-0.5,9.3-0.5,9.6-2.3c0.2-1.2-2.2-2.6-3.8-3.5
	c-2.6-1.4-6.6-1.8-16.5,2.7c-3.1,1.4-8.4,7.3-18.4,14.4c-7.2,5.1-12.8,10.8-15.3,12.8c-6,5-8.2,8.6-13.8,13.9
	c-8.3,7.8-11.9,10.1-18.7,14c-0.3,0.2-6.7,3-13.2,3.9c-4.9,0.6-6.2-3.1-6.8-3.5c-0.5-0.5-1.7-1.7-1.3-8.6c0.3-6.2,0.4-9.6,2.6-13.3
	c1.2-2.1,2-2.4,6.5-6.5c6.9-6.3,6.5-6.9,11.8-11.6c6.4-5.7,6.3-4.3,12.1-9.6c5.3-4.8,10.3-10.5,11.7-12.1c3.7-4.2,4.7-5.8,7.8-8.1
	c2.6-1.9,3.1-1.7,9-4.8c4.7-2.5,8.2-4.4,12.1-7.4c5.5-4.1,4.9-5.1,7.8-6.2c4.6-1.6,6.8,0.6,12.1-1.1c2.8-0.9,6.7-3.1,6.4-4.7
	c-0.2-1.2-6-2.2-17.7-4.1c-5.4-0.9-8.2-1.3-9.8-1.5c-4.2-0.4-5.2-0.1-13.2-0.6c-6.8-0.4-8-0.7-9.1-1c-2.2-0.7-3.6-1.6-6.4-2
	c-2.2-0.3-3.8-0.1-5.3,0c-7.3,0.6-14.2,0.1-15.8,0c-3.8-0.3-5.5-0.7-8.5-0.1c-2.3,0.5-2.7,1-4.6,1.1c-3.3,0.3-5.9-1-8.3-2.1
	c-1.8-0.8-5.3-2.6-8.4-6.3c-1-1.2-3.4-4.2-4.2-7.9c-1.4-6.7,3.3-13.7,7.1-16.9c9.7-8.4,22.7-0.3,47.6,0.5c21.3,0.7,19.3-5,40.9-5.1
	c24.8-0.1,30,7.3,60.9,11.4c29.6,3.9,25.1-2.9,48,1.4c30.8,5.8,48.3,19.5,69.5,15.9c2.5-0.4,8.3-1.6,16.3-1
	C1716.3,931.1,1717.8,931.2,1719.5,931.4z"/>
<path class="st2" d="M481,1586c-3.1,5.7-5.6,11.4-10.6,22.6c-9.8,22.1-7.4,20.8-12.2,29.5c-10.3,19.1-18.1,18.5-23.9,34.5
	c-4.8,13.3-0.9,17.8-4.8,24.1c-12.1,19.5-67.3,6.1-75.3,4.1c-84.9-21.3-129.7-69.1-250.7-160.2c-11.2-8.4-33.5-25.1-54.6-53.7
	c-3.3-4.4-12.5-20.9-30.9-53.9c-13.4-23.9-18.8-34.2-18-48.9c0.2-4.5,1.1-20.4,12.5-29.6c6.4-5.1,13.9-6.3,19.3-6.7
	c35.9-2.3,61.6,26.8,112.1,37.4c13.1,2.7,25.9,3.5,51.4,4.9c29.1,1.6,43.7,2.4,53.5-0.6c25-7.6,36-24.5,50.6-18.8
	c1,0.4,5.3,3.6,13.9,10.1c8,6.1,11.7,9.1,14.5,11.3c2.1,1.6,3.7,2.9,6.2,4.6c13.3,8.9,23.3,11.5,23,12.5l-0.1,0.1
	c-1.8,0.8-22.6-8.7-47.6-7.2c-8.9,0.5-35.3,2.1-47.6,18.5c-22.1,29.6,16.4,86.9,20.2,92.4c5.2,7.6,10,12.9,13.3,16.6
	c14.4,15.9,32.5,35.9,57.8,41.7c31.7,7.3,59.8-10.8,67.7-16.4c4.1,1.5,8.5,3,13.8,4.8c18.6,6.3,23.5,6.4,27.7,4.2
	c6.3-3.4,5.1-9.3,10.7-16.2c7.4,0.9,20,3.2,22.2,10.3C497,1563.9,490.8,1568,481,1586z"/>
<path class="st10" d="M280.3,1399.1c-3.8-3.9-3.1-11.4,0.1-16.2c3.8-5.6,10.5-6.4,12.7-6.7c12.1-1.5,21.2,7.9,22.9,9.7
	c2,2.1,9.1,8.6,7.4,12.1c-1.7,3.3-9.3-0.9-22.7,2.5c-3.1,0.8-6.2,1.9-10.8,1.7C286.7,1402,282.9,1401.8,280.3,1399.1z"/>
<path class="st11" d="M462.4,1564.1c-26.4,17.6-49.5,20.2-61,20.5c-68,2.1-113.8-63.3-118.2-69.9c-0.4-0.6-0.8-1.1-1-1.5
	c-7.3-11.1-41.2-64.5-20.2-92.4c12.2-16.4,38.7-17.9,47.6-18.5c24.9-1.5,45.8,8,47.6,7.2c-1.5,1.5-2.3,5.7-3.8,13.7
	c-2.4,13.1-4.4,23.6-4,38.4c0.1,5.2,0.8,10.8,2.1,22.1c1.3,11.8,2.1,17.8,3.8,22.3c3.6,9.9,9.8,16.1,15,21.1
	c9.3,8.9,17.8,13,32.6,20.2c1.8,0.9,5.8,2.8,10.4,4.7C423.2,1556.3,439.5,1561.7,462.4,1564.1z"/>
<path class="st12" d="M509.5,1533.6L509.5,1533.6c-8.5,7.3-25.6,0.8-36.4,14.3c-5.5,6.9-4.4,12.7-10.7,16.2c-4.1,2.3-9,2.2-27.7-4.2
	c-5.3-1.8-9.6-3.3-13.8-4.8c-6-2.2-11.4-4.5-18.3-7.8c-14.9-7.2-23.3-11.3-32.6-20.2c-5.3-5-11.4-11.2-15-21.1
	c-1.7-4.6-2.4-10.6-3.8-22.3c-1.3-11.3-1.9-16.9-2.1-22.1c-0.4-14.8,1.6-25.3,4-38.4c1.5-8,2.3-12.2,3.8-13.7c0.1,0,0.1-0.1,0.1-0.1
	c6.5-5.8,16.8,1.6,32.1,1.9c3.5,0.1,7.3-0.2,11.4-1.1c3.5-0.8,8.3-2.7,17.9-6.6c3.8,15.3,13.9,33,25.7,53.5
	C459.3,1483.4,478.4,1516.9,509.5,1533.6z"/>
<path class="st13" d="M1128.2,605.4c6.5,10.2,12.9,20.4,19.4,30.6c8,60.2,16,120.3,24.1,180.5c-8-12.6-15.9-25.2-23.9-37.7
	C1141.2,721,1134.7,663.2,1128.2,605.4z"/>
<path class="st13" d="M1158.8,653c8.2,60.1,16.3,120.3,24.5,180.4c9.3,15,18.5,30,27.8,45c-7.1-58.7-14.3-117.4-21.4-176.1
	C1179.4,685.9,1169.1,669.5,1158.8,653z"/>
</svg>
