<?xml version="1.0" encoding="utf-8"?>
<!-- Generator: Adobe Illustrator 24.2.0, SVG Export Plug-In . SVG Version: 6.00 Build 0)  -->
<svg version="1.1" id="Layer_1" xmlns="http://www.w3.org/2000/svg" xmlns:xlink="http://www.w3.org/1999/xlink" x="0px" y="0px"
	 viewBox="0 0 530 454.3" style="enable-background:new 0 0 530 454.3;" xml:space="preserve">
<style type="text/css">
	.st0{fill:#323034;}
	.st1{fill:#27C747;}
	.st2{fill:#EEBF46;}
	.st3{fill:#EB6563;}
	.st4{fill:#FFFFFF;}
</style>
<g id="terminal-windows">
	<path class="st0" d="M492.1,0H37.9C17,0,0,17,0,37.9v378.6c0,20.9,17,37.9,37.9,37.9h454.2c20.9,0,37.9-17,37.9-37.9V37.8
		C530,16.9,513,0,492.1,0z M123,28.4c10.4,0,18.9,8.4,18.9,18.9c0,10.4-8.5,18.9-18.9,18.9c-10.5,0-19-8.4-19-18.9
		C104.1,36.9,112.5,28.4,123,28.4z M66.2,28.4c10.4,0,18.9,8.4,18.9,18.9c0,10.4-8.5,18.9-18.9,18.9s-18.9-8.4-18.9-18.9
		C47.3,36.9,55.8,28.4,66.2,28.4z M446.5,388.9h-362c-25.4,0-46.1-20.6-46.1-46l-0.4-201.6C37.9,115.7,58.6,95,84,95h362
		c25.4,0,46.1,20.6,46.1,46l0.4,201.6C492.6,368.2,471.9,388.9,446.5,388.9z"/>
</g>
<circle class="st1" cx="179.6" cy="47.3" r="18.9"/>
<circle class="st2" cx="123" cy="47.3" r="18.9"/>
<circle class="st3" cx="66.2" cy="47.3" r="18.9"/>
<path class="st4" d="M475.9,388.9H54.6c-9.3,0-16.8-7.5-16.8-16.8V111.8c0-9.3,7.5-16.8,16.8-16.8h421.3c9.3,0,16.8,7.5,16.8,16.8
	v260.3C492.6,381.4,485.1,388.9,475.9,388.9z"/>
<path class="st0" d="M151.6,242.2l37.7,102.2c1,2.7-0.3,6.1-2.3,6.1h-31.8c-0.9,0-1.8-0.8-2.3-2l-39.2-106.3c-0.5-1.3-0.5-2.8,0-4.1
	L153,131.8c0.5-1.3,1.3-2,2.3-2h31.8c2,0,3.3,3.4,2.3,6.1l-37.7,102.2C151.2,239.4,151.2,240.9,151.6,242.2z"/>
<path class="st0" d="M372.4,242.2l-39.7,102.2c-1.1,2.7,0.3,6.1,2.4,6.1h33.4c1,0,1.9-0.8,2.4-2l41.3-106.3c0.5-1.3,0.5-2.8,0-4.1
	l-41.3-106.3c-0.5-1.3-1.4-2-2.4-2h-33.4c-2.1,0-3.4,3.4-2.4,6.1l39.7,102.2C372.9,239.4,372.9,240.9,372.4,242.2z"/>
<path class="st0" d="M227.7,372.2l-13.6,1.6c-1,0.1-1.7-0.8-1.4-1.7l82-265.7c0.2-0.5,0.6-0.9,1.1-0.9l13.6-1.6
	c1-0.1,1.7,0.8,1.4,1.7l-82,265.7C228.7,371.8,228.3,372.1,227.7,372.2z"/>
</svg>
