<?xml version="1.0" encoding="utf-8"?>
<!-- Generator: Adobe Illustrator 24.2.0, SVG Export Plug-In . SVG Version: 6.00 Build 0)  -->
<svg version="1.1" id="Layer_1" xmlns="http://www.w3.org/2000/svg" xmlns:xlink="http://www.w3.org/1999/xlink" x="0px" y="0px"
	 viewBox="0 0 1773 2500" style="enable-background:new 0 0 1773 2500;" xml:space="preserve">
<style type="text/css">
	.st0{fill:#264DE4;}
	.st1{fill:#2965F1;}
	.st2{fill:#EBEBEB;}
	.st3{fill:#FFFFFF;}
</style>
<path class="st0" d="M885.4,2493.7l-721.5-200.3L3.2,490.1h1766.7l-160.9,1803L885.4,2493.7L885.4,2493.7z"/>
<path class="st1" d="M1471.1,2178.3l137.5-1540.8H886.5v1702.9L1471.1,2178.3L1471.1,2178.3z"/>
<path class="st2" d="M371.7,1306.3l19.8,221.2h494.9v-221.2H371.7z M331.9,858.7l20.1,221.2h534.5V858.7H331.9L331.9,858.7z
	 M886.5,1880.7l-1,0.3l-246.3-66.5l-15.7-176.4h-222l31,347.3l453.1,125.8l1-0.3V1880.7z"/>
<path d="M418.9,0h267.9v112H531v112h155.9v112H418.9V0z M740.4,0h267.9v97.4H852.4v19.5h155.9v224H740.4V238.6h155.9v-19.5H740.4
	L740.4,0L740.4,0z M1061.8,0h267.9v97.4h-155.9v19.5h155.9v224h-267.9V238.6h155.9v-19.5h-155.8L1061.8,0L1061.8,0z"/>
<path class="st3" d="M1399.8,1306.3l39.9-447.7h-554v221.2h311.6l-20.1,226.5H885.7v221.2h272.3l-25.7,286.8l-246.7,66.6V2111
	l453.4-125.7l3.3-37.4l52-582.3L1399.8,1306.3L1399.8,1306.3z"/>
</svg>
