<?xml version="1.0" encoding="utf-8"?>
<!-- Generator: Adobe Illustrator 24.2.0, SVG Export Plug-In . SVG Version: 6.00 Build 0)  -->
<svg version="1.1" id="Layer_1" xmlns="http://www.w3.org/2000/svg" xmlns:xlink="http://www.w3.org/1999/xlink" x="0px" y="0px"
	 viewBox="0 0 115.9 121.8" style="enable-background:new 0 0 115.9 121.8;" xml:space="preserve">
<style type="text/css">
	.st0{fill:#E64C3C;}
	.st1{fill:#4482C3;}
	.st2{fill:#FDD7AD;}
	.st3{fill:#C03A2B;}
	.st4{fill:#F0C419;}
	.st5{fill:#B19046;}
	.st6{fill:#E6E7E8;}
	.st7{fill:#2C2F38;}
	.st8{fill:#95A5A5;}
	.st9{fill:#805333;}
	.st10{fill:#603E26;}
	.st11{fill:#BDC3C7;}
	.st12{fill:#F3D55B;}
	.st13{fill:#E57E25;}
</style>
<g id="Page-1">
	<g id="_x30_35---Creative-Thinking">
		<path id="Shape" class="st0" d="M106.6,54.4c-0.3,0.5-0.5,1.1-0.7,1.7l-8.8,21.4L86.8,62.8L92,50.3c0.2-0.6,0.5-1.1,0.6-1.6
			L106.6,54.4z"/>
		<path id="Shape_1_" class="st1" d="M78.2,47.8c-0.2,3.8-0.6,7.5-1.2,11.3l-13.2,2.1c-0.3-4.8-0.2-9.6,0.3-14.3v0L78.2,47.8z"/>
		<path id="Shape_2_" class="st2" d="M46.3,24.8c0,0,1.7,14.7-3.8,16S31.6,28.2,31.6,28.2l0.4-9.7c1.6,0.6,1.7-5.9,3.5-6.3
			c1.8-0.4,5.1,5.2,6.2,4L46.3,24.8z"/>
		<path id="Shape_3_" class="st0" d="M56.2,67.2l-3.9,12.6l-1.1-0.9l-9.8-8.5l-9.9-42.1c0,0,3.1,5.1,8.6,3.8
			c5.5-1.3,6.1-7.2,6.1-7.2L56.2,67.2z"/>
		<path id="Shape_4_" class="st3" d="M51.3,78.8l-9.8-8.5l-9.9-42.1c0,0,3.1,5.1,8.6,3.8L51.3,78.8z"/>
		<path id="Shape_5_" class="st4" d="M33.6,71.4l-0.2,23.5l-14.9-5.5L3.5,53c-0.2-0.5-0.2-1,0-1.4c0.2-0.5,0.6-0.8,1-1l15.7-6.5
			c1-0.4,2.1,0.1,2.5,1l1.4,3.5l0.7,1.7l0.7,1.7l1.5,3.5l0.7,1.7l0.7,1.8l1.4,3.5l0.7,1.7l0.7,1.7l2.2,5.2L33.6,71.4z"/>
		<path id="Shape_6_" class="st5" d="M25.6,52l-8.7,3.6c-0.2,0.1-0.5,0.1-0.7,0.1c-0.9,0-1.7-0.6-1.8-1.5c-0.2-0.9,0.3-1.8,1.1-2.1
			l8.7-3.6l0.7,1.7L25.6,52z"/>
		<path id="Shape_7_" class="st5" d="M28.5,59l-5.2,2.2c-0.2,0.1-0.5,0.1-0.7,0.1c-0.9,0-1.7-0.6-1.8-1.5c-0.2-0.9,0.3-1.8,1.1-2.1
			l5.2-2.2l0.7,1.7L28.5,59z"/>
		<path id="Shape_8_" class="st5" d="M31.3,66l-8.7,3.6c-0.2,0.1-0.5,0.1-0.7,0.1c-0.9,0-1.7-0.6-1.8-1.5c-0.2-0.9,0.3-1.8,1.1-2.1
			l8.7-3.6l0.7,1.7L31.3,66z"/>
		<path id="Shape_9_" class="st6" d="M112.7,102.4c0,3.5-1.4,6.9-3.9,9.3c-2.5,2.5-5.8,3.9-9.3,3.9h-83c-7.3,0-13.2-5.9-13.2-13.2
			s5.9-13.2,13.2-13.2c1.3,0,2.5,0.2,3.8,0.5c0.1-7.4,4.4-14.2,11.1-17.4s14.6-2.5,20.6,2C56,63.6,67,57.3,78.2,59.4
			c11.2,2,19.4,11.8,19.4,23.2c0,2.3-0.3,4.7-1,6.9c1-0.2,1.9-0.3,2.9-0.3c3.5,0,6.9,1.4,9.3,3.9C111.3,95.5,112.7,98.9,112.7,102.4
			z"/>
		<path id="Shape_10_" class="st7" d="M41.7,16.3c-1.2,1.4-2.7,2.4-4.5,2.9c-1.8,0.3-3.6,0.1-5.3-0.6l0.4-10c0-1.1,0.8-2.1,1.9-2.3
			c0.2,0,0.4-0.1,0.5-0.1c0.9,0,1.8,0.5,2.2,1.3L41.7,16.3z"/>
		<path id="Shape_11_" class="st8" d="M78.2,47.8c-4.7,0.2-9.4-0.1-14.1-0.9c0.3-3.1,0.7-6.1,1.2-9.2c4.2,0.3,8.5,0.5,12.9,0.8
			C78.4,41.7,78.4,44.8,78.2,47.8z"/>
		<path id="Shape_12_" class="st9" d="M65.3,37.8c0,0-7.6-6.9-0.7-14.5c5.7-6.3,8-10.6,7.8-14.7c0-0.4,0.2-0.7,0.6-0.9
			c0.4-0.2,0.8-0.1,1,0.2c4.6,4.5,15.1,17.2,4,30.7"/>
		<path id="Shape_13_" class="st10" d="M74.4,33.9c-0.7,0-1.4-0.4-1.7-1c-0.3-0.6-0.3-1.4,0.2-2c1.7-2.3,2.3-5.1,1.9-7.9
			c-0.2-0.7,0-1.4,0.5-1.9s1.2-0.7,1.8-0.5s1.2,0.7,1.3,1.4c0.8,3.9-0.2,7.9-2.5,11.1C75.5,33.6,75,33.9,74.4,33.9z"/>
		<path id="Shape_14_" class="st11" d="M50,104.3c-0.8,0-1.4-0.5-1.7-1.1c-0.6-1.4-0.9-3-0.9-4.5c0-5.3,3.7-9.9,8.8-11.1
			c5.2-1.2,10.5,1.4,12.7,6.2c0.4,0.9,0,2.1-0.9,2.5c-0.9,0.4-2.1,0-2.5-0.9c-1.2-2.7-3.9-4.4-6.8-4.3c-4.2,0-7.5,3.4-7.5,7.5
			c0,1,0.2,2.1,0.6,3c0.2,0.5,0.2,1,0,1.4c-0.2,0.5-0.6,0.8-1,1C50.5,104.2,50.3,104.3,50,104.3z"/>
		<path id="Shape_15_" class="st11" d="M78.7,99.2c-0.7,0-1.4-0.4-1.7-1.1c-0.9-2-2.9-3.3-5.1-3.3c-1.3,0-2.5,0.4-3.5,1.2
			c-0.8,0.6-2,0.5-2.7-0.3c-0.6-0.8-0.5-2,0.3-2.7c1.7-1.3,3.7-2.1,5.9-2.1c3.7,0,7,2.2,8.6,5.5c0.3,0.6,0.2,1.3-0.1,1.8
			C80,98.9,79.4,99.2,78.7,99.2z"/>
		<path id="Shape_16_" class="st11" d="M29.7,89.2c-1,0-1.9-0.8-1.9-1.9c0-6.9,6.7-9.2,7-9.3c1-0.3,2.1,0.2,2.4,1.2
			c0.3,1-0.2,2.1-1.2,2.4c-2.5,0.9-4.2,3.1-4.4,5.8C31.6,88.3,30.7,89.2,29.7,89.2z"/>
		<path id="Shape_17_" class="st11" d="M61.8,76c-0.2,0-0.3,0-0.5-0.1c-1-0.3-1.6-1.3-1.4-2.3c1.3-5.2,5.9-8.9,11.3-9
			c1,0,1.9,0.8,1.9,1.9c0,1-0.8,1.9-1.9,1.9c-3.6,0.1-6.7,2.6-7.6,6.1C63.4,75.4,62.6,76,61.8,76z"/>
		<path id="Shape_18_" class="st4" d="M112.6,44.1c0.1,0.3,0,0.6-0.2,0.8c-2.4,2.8-4.3,6-5.7,9.5c-0.7,0.5-1.4,0.9-2.2,1.1
			c-2.1,0.5-4.2,0.4-6.2-0.5c0,0,0,0,0,0c-2-0.8-3.7-2.2-4.8-4c-0.4-0.7-0.7-1.4-0.8-2.2c1.5-3.4,2.4-7.1,2.7-10.8
			c0-0.3,0.2-0.6,0.5-0.8l10.6-6.6l2.7-1.7l0.7,3.2L112.6,44.1z"/>
		<path id="Shape_19_" class="st12" d="M109,28.8l-5.8,13.9h0l-5,12.2c0,0,0,0,0,0c-2-0.8-3.7-2.2-4.8-4c-0.4-0.7-0.7-1.4-0.8-2.2
			c1.5-3.4,2.4-7.1,2.7-10.8c0-0.3,0.2-0.6,0.5-0.8l10.6-6.6L109,28.8z"/>
		<path id="Shape_20_" class="st13" d="M109.8,32l-4.1,9.8c-0.3,0.7-1,1.2-1.7,1.2c-0.2,0-0.5-0.1-0.7-0.2h0c-0.7-0.3-1.2-1-1.2-1.7
			c0-0.3,0.1-0.5,0.2-0.7l4.1-9.8l2.7-1.7L109.8,32z"/>
	</g>
</g>
</svg>
