<?xml version="1.0" encoding="utf-8"?>
<!-- Generator: Adobe Illustrator 24.2.0, SVG Export Plug-In . SVG Version: 6.00 Build 0)  -->
<svg version="1.1" id="Layer_1" xmlns="http://www.w3.org/2000/svg" xmlns:xlink="http://www.w3.org/1999/xlink" x="0px" y="0px"
	 viewBox="0 0 517 501.9" style="enable-background:new 0 0 517 501.9;" xml:space="preserve">
<style type="text/css">
	.st0{fill:#E8EDEE;}
	.st1{fill:#B0B6BB;}
	.st2{fill:#38454F;}
	.st3{fill:#EA6148;}
	.st4{fill:#ECBA16;}
</style>
<g id="coding">
	<path class="st0" d="M364.9,494.3H153.1c0-19.5,15.8-35.3,35.3-35.3h141.2C349.1,459,364.9,474.8,364.9,494.3"/>
	<polygon class="st1" points="320.8,459 197.2,459 214.9,388.4 303.1,388.4 	"/>
	<path class="st2" d="M515,317.8H3V48.6c0-17.1,13.8-30.9,30.9-30.9h450.2c17.1,0,30.9,13.8,30.9,30.9L515,317.8L515,317.8z"/>
	<path class="st0" d="M484.1,388.4H33.9C16.8,388.4,3,374.6,3,357.5v-39.7h512v39.7C515,374.6,501.2,388.4,484.1,388.4"/>
	<g>
		<path class="st3" d="M435.6,282.5H303.1c-4.9,0-8.8-4-8.8-8.8c0-4.9,3.9-8.8,8.8-8.8h132.4c4.9,0,8.8,4,8.8,8.8
			C444.4,278.5,440.4,282.5,435.6,282.5"/>
		<path class="st3" d="M170.7,229.5H82.4c-4.9,0-8.8-4-8.8-8.8s3.9-8.8,8.8-8.8h88.3c4.9,0,8.8,4,8.8,8.8S175.6,229.5,170.7,229.5"
			/>
		<path class="st3" d="M391.4,229.5H259c-4.9,0-8.8-4-8.8-8.8s3.9-8.8,8.8-8.8h132.4c4.9,0,8.8,4,8.8,8.8
			C400.2,225.6,396.3,229.5,391.4,229.5"/>
		<path class="st3" d="M214.9,229.5c-1.1,0-2.3-0.3-3.4-0.7c-1.1-0.4-2-1.1-2.9-1.9c-1.6-1.7-2.6-3.9-2.6-6.3s1-4.6,2.6-6.3
			c0.9-0.8,1.8-1.4,2.9-1.9c3.2-1.3,7.1-0.6,9.6,1.9c1.6,1.7,2.6,4,2.6,6.3c0,2.3-1,4.6-2.6,6.3
			C219.5,228.5,217.2,229.5,214.9,229.5"/>
		<path class="st3" d="M259,282.5H126.6c-4.9,0-8.8-4-8.8-8.8c0-4.9,3.9-8.8,8.8-8.8H259c4.9,0,8.8,4,8.8,8.8S263.9,282.5,259,282.5
			"/>
		<path class="st3" d="M82.4,282.5c-1.1,0-2.3-0.3-3.4-0.7c-1.1-0.4-2-1.1-2.9-1.9c-1.6-1.7-2.6-3.9-2.6-6.3c0-1.1,0.3-2.3,0.7-3.4
			c0.4-1.1,1.1-2,1.9-2.9c2.1-2,5.1-2.9,7.9-2.4c0.6,0.1,1.1,0.3,1.7,0.5c0.5,0.2,1.1,0.4,1.5,0.8c0.5,0.4,1,0.7,1.4,1.1
			c0.8,0.9,1.4,1.8,1.9,2.9c0.4,1.1,0.7,2.2,0.7,3.4c0,2.4-1,4.6-2.6,6.3c-0.4,0.4-0.9,0.7-1.4,1.1c-0.4,0.4-1,0.6-1.5,0.8
			c-0.5,0.3-1.1,0.4-1.7,0.5C83.6,282.4,83,282.5,82.4,282.5"/>
		<path class="st3" d="M435.6,229.5c-0.5,0-1.1-0.1-1.7-0.2c-0.6-0.1-1.1-0.3-1.7-0.5c-0.5-0.2-1.1-0.4-1.6-0.8
			c-0.4-0.4-0.9-0.7-1.3-1.1c-1.6-1.7-2.6-4-2.6-6.3c0-2.3,1-4.6,2.6-6.3l1.3-1.1c0.5-0.4,1.1-0.6,1.6-0.8c0.5-0.3,1.1-0.4,1.7-0.5
			c2.8-0.6,5.9,0.4,7.9,2.4c0.4,0.4,0.7,0.9,1.1,1.4c0.4,0.4,0.6,1,0.8,1.5c0.3,0.5,0.4,1.1,0.5,1.7c0.1,0.5,0.2,1.1,0.2,1.7
			s-0.1,1.1-0.2,1.8c-0.1,0.5-0.3,1.1-0.5,1.6c-0.2,0.5-0.4,1.1-0.8,1.6c-0.4,0.4-0.7,0.9-1.1,1.3c-0.4,0.4-0.9,0.7-1.3,1.1
			c-0.5,0.4-1.1,0.6-1.6,0.8c-0.5,0.3-1.1,0.4-1.7,0.5C436.7,229.4,436.1,229.5,435.6,229.5"/>
		<path class="st3" d="M435.6,123.6H303.1c-4.9,0-8.8-4-8.8-8.8s3.9-8.8,8.8-8.8h132.4c4.9,0,8.8,4,8.8,8.8S440.4,123.6,435.6,123.6
			"/>
		<path class="st3" d="M435.6,176.6h-88.3c-4.9,0-8.8-4-8.8-8.8s3.9-8.8,8.8-8.8h88.3c4.9,0,8.8,4,8.8,8.8S440.4,176.6,435.6,176.6"
			/>
		<path class="st3" d="M276.7,176.6H259c-4.9,0-8.8-4-8.8-8.8s3.9-8.8,8.8-8.8h17.7c4.9,0,8.8,4,8.8,8.8S281.5,176.6,276.7,176.6"/>
		<path class="st3" d="M391.4,70.6H259c-4.9,0-8.8-4-8.8-8.8s3.9-8.8,8.8-8.8h132.4c4.9,0,8.8,4,8.8,8.8S396.3,70.6,391.4,70.6"/>
		<path class="st3" d="M435.6,70.6c-0.5,0-1.1-0.1-1.7-0.2c-0.6-0.1-1.1-0.3-1.7-0.5c-0.5-0.2-1.1-0.4-1.6-0.8
			c-0.4-0.4-0.9-0.7-1.3-1.1c-1.6-1.7-2.6-4-2.6-6.3c0-2.3,1-4.6,2.6-6.3l1.3-1.1c0.5-0.4,1.1-0.6,1.6-0.8c0.5-0.3,1.1-0.4,1.7-0.5
			c2.8-0.6,5.9,0.4,7.9,2.4c0.4,0.4,0.7,0.9,1.1,1.4c0.4,0.4,0.6,1,0.8,1.5c0.3,0.5,0.4,1.1,0.5,1.7c0.1,0.5,0.2,1.1,0.2,1.7
			s-0.1,1.1-0.2,1.8c-0.1,0.5-0.3,1.1-0.5,1.6c-0.2,0.5-0.4,1.1-0.8,1.6c-0.4,0.4-0.7,0.9-1.1,1.3c-0.4,0.4-0.9,0.7-1.3,1.1
			c-0.5,0.4-1.1,0.6-1.6,0.8c-0.5,0.3-1.1,0.4-1.7,0.5C436.7,70.5,436.1,70.6,435.6,70.6"/>
		<path class="st3" d="M267.8,123.6c-2.3,0-4.6-1-6.3-2.6c-0.8-0.9-1.4-1.9-1.9-2.9s-0.7-2.2-0.7-3.4c0-1.1,0.3-2.3,0.7-3.4
			s1.1-2,1.9-2.9c2-2,5.1-2.9,7.9-2.4c0.6,0.1,1.1,0.3,1.7,0.5c0.5,0.2,1.1,0.4,1.5,0.8c0.5,0.4,1,0.7,1.3,1.1
			c0.9,0.9,1.5,1.9,1.9,2.9s0.7,2.2,0.7,3.4c0,1.1-0.3,2.3-0.7,3.4s-1.1,2-1.9,2.9c-0.4,0.4-0.8,0.7-1.3,1.1c-0.4,0.4-1,0.6-1.5,0.8
			c-0.5,0.3-1.1,0.4-1.7,0.5C269,123.5,268.4,123.6,267.8,123.6"/>
		<path class="st3" d="M312,176.6c-2.4,0-4.6-1-6.3-2.6c-1.6-1.7-2.6-4-2.6-6.3c0-2.3,1-4.6,2.6-6.3c3.3-3.3,9.3-3.3,12.5,0
			c1.6,1.7,2.6,4,2.6,6.3c0,0.6-0.1,1.1-0.2,1.8c-0.1,0.5-0.3,1.1-0.5,1.6c-0.2,0.5-0.4,1.1-0.8,1.6c-0.4,0.4-0.7,0.9-1.1,1.3
			C316.6,175.6,314.3,176.6,312,176.6"/>
	</g>
	<polygon class="st4" points="82.4,176.6 206,176.6 206,53 82.4,53 	"/>
</g>
</svg>
