<?xml version="1.0" encoding="utf-8"?>
<!-- Generator: Adobe Illustrator 24.2.0, SVG Export Plug-In . SVG Version: 6.00 Build 0)  -->
<svg version="1.1" id="Layer_1" xmlns="http://www.w3.org/2000/svg" xmlns:xlink="http://www.w3.org/1999/xlink" x="0px" y="0px"
	 viewBox="0 0 2085.7 2500" style="enable-background:new 0 0 2085.7 2500;" xml:space="preserve">
<style type="text/css">
	.st0{fill:none;}
	.st1{fill:#2EC866;}
</style>
<path class="st0" d="M-69.2,204h2500v1726.8h-2500V204z"/>
<path d="M1877.3,802.9c-54.8-94.4-727.9-484.3-837.5-484.3c-109.6,0-782.9,388.9-837.4,484.3c-54.5,95.4-54.8,873.3,0,968.7
	c54.8,95.3,727.9,484.3,837.4,484.3c109.5,0,782.7-389.4,837.5-484.3C1932,1676.6,1932,897.3,1877.3,802.9L1877.3,802.9z"/>
<path class="st1" d="M1888.9,814c-55.9-96.3-742.4-494-854.2-494c-111.8,0-798.5,396.7-854.1,494c-55.6,97.3-55.9,890.7,0,988
	c55.9,97.2,742.4,493.9,854.1,493.9c111.7,0,798.3-397.2,854.2-494C1944.7,1705.2,1944.8,910.3,1888.9,814L1888.9,814z
	 M1266.1,1918.6c-15.3,0-157.9-138-146.7-149.3c3.4-3.4,24.2-5.7,67.7-7.1c0-101.2,2.3-264.7,3.6-333.1c0.2-7.8-1.7-13.2-1.7-22.6
	H880.6c0,27.4-1.8,139.7,5.3,281.3c0.9,17.5-6.1,23-22.2,22.9c-39.1-0.1-78.2-0.4-117.4-0.3c-15.8,0-22.7-5.9-22.2-23.6
	c3.5-129.1,11.4-324.3-0.6-820.7v-12.2c-37.3-1.3-63.2-3.7-66.6-7.1c-11.3-11.3,133.3-149.3,148.5-149.3
	c15.3,0,158.9,138.1,147.7,149.3c-3.4,3.4-30.5,5.7-64.7,7.1V866c-9.3,99.4-7.8,307.2-10.1,406.7h309.7c0-17.6,1.5-134.1-4.6-322.8
	c-0.4-13.1,3.7-20,16.2-20.1c42.7-0.3,85.5-0.5,128.2-0.2c13.4,0.1,17.6,6.6,17.4,20.8c-14.1,738.2-2.6,686.7-2.6,811.7
	c34.2,1.4,64.9,3.7,68.3,7.1C1422.3,1780.5,1281.4,1918.6,1266.1,1918.6L1266.1,1918.6z"/>
</svg>
