<?xml version="1.0" encoding="utf-8"?>
<!-- Generator: Adobe Illustrator 24.2.0, SVG Export Plug-In . SVG Version: 6.00 Build 0)  -->
<svg version="1.1" id="Layer_1" xmlns="http://www.w3.org/2000/svg" xmlns:xlink="http://www.w3.org/1999/xlink" x="0px" y="0px"
	 viewBox="0 0 94.6 100" style="enable-background:new 0 0 94.6 100;" xml:space="preserve">
<style type="text/css">
	.st0{fill:#41322A;}
	.st1{fill:#FF7E1B;}
	.st2{fill:none;stroke:#FF7E1B;stroke-width:10;stroke-miterlimit:10;}
</style>
<path class="st0" d="M85.2,34.2c2.1,5,3.1,10.2,3.1,15.7c0,5.5-1,10.7-3.1,15.7c-2.1,5-5.1,9.5-9,13.4s-8.4,6.9-13.4,9
	c-5,2.1-10.2,3.1-15.7,3.1c-5.5,0-10.7-1-15.7-3.1c-5-2.1-9.5-5.1-13.4-9c-3.9-3.9-6.9-8.4-9-13.4C7,60.6,6,55.4,6,49.9
	c0-5.5,1-10.7,3.1-15.7s5.1-9.5,9-13.4c3.9-3.9,8.4-6.9,13.4-9s10.2-3.1,15.7-3.1c5.5,0,10.7,1,15.7,3.1c5,2.1,9.5,5.1,13.4,9
	S83.2,29.2,85.2,34.2z M66.4,67.6V41.4c0-0.2-0.1-0.4-0.3-0.4h-5.3c-0.3,0-0.4,0.1-0.4,0.3l0,26.3c0,0.3,0.1,0.4,0.4,0.4H66
	C66.3,68,66.4,67.9,66.4,67.6z M66.7,33.8c0-2-1.1-3.2-3.3-3.4c-1,0-1.8,0.3-2.5,0.9c-0.7,0.6-1,1.4-1,2.5c0,2.2,1.1,3.3,3.4,3.4
	c1,0,1.8-0.3,2.5-0.9C66.4,35.7,66.7,34.9,66.7,33.8z M55.1,68c0.2,0,0.3-0.1,0.3-0.2c0-0.1-1.8-6.1-5.3-18.2
	c-3.5-12.1-5.3-18.1-5.4-18.2c-0.1,0-2.5-0.1-7.3-0.1c-0.1,0-0.2,0.1-0.2,0.3c0,0.8-0.1,1.4-0.1,1.8c-0.1,0.4-1.7,6.2-4.9,17.6
	c-3.2,11.1-4.7,16.6-4.7,16.7c0,0.1,0,0.2,0.1,0.2c0,0,1,0.1,2.7,0.1c1.8,0,2.8,0,2.8-0.1c0.1,0,1-3.5,2.8-10.2h10.6l2.8,10.1
	c0.1,0.1,0.2,0.2,0.5,0.2H55.1z"/>
<path class="st1" d="M66.4,41.4v26.2c0,0.3-0.1,0.4-0.4,0.4h-5.2c-0.3,0-0.4-0.1-0.4-0.4l0-26.3c0-0.2,0.1-0.3,0.4-0.3h5.3
	C66.3,41,66.4,41.1,66.4,41.4z"/>
<path class="st1" d="M63.4,30.4c2.2,0.2,3.3,1.4,3.3,3.4c0,1.1-0.3,1.9-1,2.5c-0.6,0.6-1.5,0.9-2.5,0.9c-2.2-0.1-3.4-1.3-3.4-3.4
	c0-1.1,0.3-1.9,1-2.5C61.6,30.7,62.4,30.4,63.4,30.4z"/>
<path class="st1" d="M55.4,67.8c0,0.1-0.1,0.2-0.3,0.2h-5.6c-0.2,0-0.4-0.1-0.5-0.2l-2.8-10.1H35.7C33.9,64.5,33,67.9,32.9,68
	c-0.1,0-1,0.1-2.8,0.1c-1.8,0-2.7,0-2.7-0.1c0,0-0.1-0.1-0.1-0.2c0-0.1,1.6-5.7,4.7-16.7c3.2-11.3,4.9-17.2,4.9-17.6
	c0.1-0.4,0.1-1,0.1-1.8c0-0.2,0.1-0.3,0.2-0.3c4.8,0,7.3,0,7.3,0.1c0.1,0,1.9,6.1,5.4,18.2C53.6,61.7,55.4,67.8,55.4,67.8z
	 M44.9,52.4l-1.1-4.4c-1.4-5.4-2.4-9.1-2.8-11.3h-0.1c-0.6,3.2-1.9,8.4-3.8,15.7H44.9z"/>
<path class="st0" d="M43.9,47.9l1.1,4.4h-7.8c1.9-7.3,3.2-12.5,3.8-15.7H41C41.5,38.8,42.4,42.6,43.9,47.9z"/>
<path class="st2" d="M31.4,88c-5-2.1-9.5-5.1-13.4-9c-3.9-3.9-6.9-8.4-9-13.4C7,60.6,6,55.4,6,49.9c0-5.5,1-10.7,3.1-15.7
	s5.1-9.5,9-13.4c3.9-3.9,8.4-6.9,13.4-9s10.2-3.1,15.7-3.1c5.5,0,10.7,1,15.7,3.1c5,2.1,9.5,5.1,13.4,9s6.9,8.4,9,13.4
	s3.1,10.2,3.1,15.7c0,5.5-1,10.7-3.1,15.7c-2.1,5-5.1,9.5-9,13.4s-8.4,6.9-13.4,9c-5,2.1-10.2,3.1-15.7,3.1
	C41.7,91.1,36.4,90.1,31.4,88z"/>
</svg>
