<?xml version="1.0" encoding="utf-8"?>
<!-- Generator: Adobe Illustrator 24.2.0, SVG Export Plug-In . SVG Version: 6.00 Build 0)  -->
<svg version="1.1" id="Layer_1" xmlns="http://www.w3.org/2000/svg" xmlns:xlink="http://www.w3.org/1999/xlink" x="0px" y="0px"
	 viewBox="0 0 91.7 100" style="enable-background:new 0 0 91.7 100;" xml:space="preserve">
<style type="text/css">
	.st0{fill:url(#SVGID_1_);}
	.st1{font-family:'ArialMT';}
	.st2{font-size:10px;}
	.st3{fill:#39424E;}
</style>
<g>
	
		<linearGradient id="SVGID_1_" gradientUnits="userSpaceOnUse" x1="52.5" y1="97.3898" x2="52.5" y2="-2.6102" gradientTransform="matrix(1 0 0 -1 -6.6667 97.3898)">
		<stop  offset="0" style="stop-color:#CEE3EB"/>
		<stop  offset="1" style="stop-color:#AEC8C7"/>
	</linearGradient>
	<path class="st0" d="M91.6,44.9L91.6,44.9c-0.2-9.4-0.9-17.8-2.1-19.9c-1-1.7-6.2-5.4-12.6-9.5L59.7,5.7C53.3,2.4,47.8,0,45.8,0
		c-2.4,0-10.2,3.6-18.5,8.2C21,11.6,14.4,15.6,9.5,18.9c-3.9,2.6-6.6,4.8-7.4,6.1c-0.7,1.3-1.3,4.9-1.6,9.7l0,0
		c-0.5,6-0.6,13.9-0.4,21.1C0.3,64.9,1,73,2.1,75c2.9,4.9,38,25,43.7,25c2.4,0,9.8-3.5,17.9-7.9C70.2,88.6,77,84.6,82,81.2l0,0
		c3.9-2.7,6.8-4.9,7.5-6.2c0.7-1.2,1.3-4.8,1.6-9.5l0,0C91.6,59.6,91.8,52,91.6,44.9z"/>
</g>
<text transform="matrix(1 0 0 1 35.2719 65.5)" class="st1 st2">Java</text>
<g transform="translate(-17, 0)">
	<path d="M57.1,75l-2-0.3l-0.9-1.8c-0.1-0.1-0.2-0.2-0.3-0.2c-0.1,0-0.2,0.1-0.3,0.2l-0.3,0.7l-0.6,1.2l-0.5,0.1L50.6,75
		c-0.1,0-0.1,0-0.2,0.1c0,0,0,0,0,0.1c0,0,0,0.1,0,0.1c0,0,0,0,0,0c0,0,0,0.1,0,0.1c0,0,0,0.1,0.1,0.1l1.5,1.4l-0.3,1.8l0,0.2
		c0,0,0,0,0,0l0,0c0,0,0,0,0,0c0,0.2,0.2,0.3,0.4,0.3c0,0,0.1,0,0.1,0l1.8-1l1.8,1c0.2,0.1,0.4,0,0.4-0.1c0-0.1,0-0.1,0-0.2l-0.3-2
		l1.5-1.4c0.1-0.1,0.1-0.3,0-0.5C57.2,75,57.1,75,57.1,75"/>
	<path d="M66.1,75l-2-0.3l-0.9-1.8c-0.1-0.1-0.2-0.2-0.3-0.2c-0.1,0-0.2,0.1-0.3,0.2l-0.3,0.7l-0.6,1.2l-0.5,0.1L59.6,75
		c-0.1,0-0.1,0-0.2,0.1c0,0,0,0,0,0.1c0,0,0,0.1,0,0.1c0,0,0,0,0,0c0,0,0,0.1,0,0.1c0,0,0,0.1,0.1,0.1l1.5,1.4l-0.3,1.8l0,0.2
		c0,0,0,0,0,0l0,0c0,0,0,0,0,0c0,0.2,0.2,0.3,0.4,0.3c0,0,0.1,0,0.1,0l1.8-1l1.8,1c0.2,0.1,0.4,0,0.4-0.1c0-0.1,0-0.1,0-0.2l-0.3-2
		l1.5-1.4c0.1-0.1,0.1-0.3,0-0.5C66.2,75,66.1,75,66.1,75"/>
	<path d="M75.1,75l-2-0.3l-0.9-1.8c-0.1-0.1-0.2-0.2-0.3-0.2c-0.1,0-0.2,0.1-0.3,0.2l-0.3,0.7l-0.6,1.2l-0.5,0.1L68.6,75
		c-0.1,0-0.1,0-0.2,0.1c0,0,0,0,0,0.1c0,0,0,0.1,0,0.1c0,0,0,0,0,0c0,0,0,0.1,0,0.1c0,0,0,0.1,0.1,0.1l1.5,1.4l-0.3,1.8l0,0.2
		c0,0,0,0,0,0l0,0c0,0,0,0,0,0c0,0.2,0.2,0.3,0.4,0.3c0,0,0.1,0,0.1,0l1.8-1l1.8,1c0.2,0.1,0.4,0,0.4-0.1c0-0.1,0-0.1,0-0.2l-0.3-2
		l1.5-1.4c0.1-0.1,0.1-0.3,0-0.5C75.2,75,75.1,75,75.1,75"/>
</g>
<g id="java">
	<path class="st3" d="M44.9,17.7c-1.7,1.2-3.7,2.6-4.8,4.9c-1.8,4,3.8,8.4,4,8.6c0.1,0.1,0.3,0.1,0.4-0.1c0.1-0.1,0.1-0.2,0-0.3
		c0,0-2-4-2-6.8c0-1,1.4-2.1,2.8-3.3c1.3-1.1,2.8-2.3,3.7-3.7c1.9-3.1-0.2-6.2-0.2-6.3c-0.1-0.1-0.3-0.2-0.4-0.1
		c-0.1,0.1-0.1,0.2-0.1,0.3c0.2,1.4,0,2.9-0.7,4.2C47.2,16.1,46.1,16.9,44.9,17.7z"/>
	<path class="st3" d="M52.3,19.1c0.1-0.1,0.2-0.3,0.1-0.4c-0.1-0.1-0.2-0.2-0.4-0.1c-0.3,0.1-7.3,2.8-7.3,6.1c0,2.2,1,3.4,1.7,4.3
		c0.2,0.3,0.4,0.6,0.6,0.9c0.2,0.7-0.3,2-0.5,2.5c-0.1,0.2,0,0.3,0.1,0.4c0.1,0.1,0.2,0,0.3,0c0.1-0.1,2.9-2.1,2.4-4.5
		c-0.2-0.8-0.5-1.5-1-2.2c-0.6-0.9-1.1-1.6-0.4-2.8C48.7,21.8,52.2,19.1,52.3,19.1z"/>
	<path class="st3" d="M34.1,32.7c-0.1,0.3-0.1,0.7,0.2,1c0.8,1.1,3.4,1.6,7.5,1.6h0c0.6,0,1.1,0,1.7,0c6.6-0.2,9-2.3,9.1-2.4
		c0.1-0.1,0.1-0.3,0-0.4c-0.1-0.1-0.2-0.1-0.3-0.1c-2.3,0.6-6.6,0.9-9.6,0.9c-3.4,0-5.1-0.2-5.5-0.4c0.2-0.3,1.5-0.8,3.2-1.1
		c0.2,0,0.3-0.2,0.2-0.4c0-0.1-0.2-0.3-0.3-0.3C39.4,31.1,34.6,31.2,34.1,32.7z"/>
	<path class="st3" d="M56.1,30.6c-0.9,0-1.9,0.3-2.7,0.7c-0.2,0.1-0.2,0.3-0.1,0.4c0.1,0.1,0.2,0.2,0.3,0.2c0,0,2.9,0,3.2,1.7
		c0.2,1.4-2.7,3.7-3.9,4.5c-0.1,0.1-0.2,0.3-0.1,0.4c0.1,0.1,0.2,0.2,0.3,0.1c0.3-0.1,6.7-1.5,6-5.2C58.7,31.1,57.2,30.6,56.1,30.6z
		"/>
	<path class="st3" d="M51.7,37.6c0-0.1,0-0.2-0.1-0.3L50,36.2c-0.1-0.1-0.2-0.1-0.3,0c-1.3,0.3-2.6,0.5-4,0.7c-1,0.1-2,0.2-3,0.2
		c-2.3,0-3.9-0.3-4.1-0.5c0-0.1,0-0.1,0-0.1c0.1-0.1,0.2-0.2,0.4-0.3c0.2-0.1,0.2-0.2,0.2-0.4c-0.1-0.1-0.2-0.2-0.4-0.2
		c-1.5,0.4-2.3,0.9-2.2,1.5c0.1,1.2,2.8,1.8,5.1,1.9c0.3,0,0.7,0,1,0h0c3.8,0,8.6-1.2,8.7-1.2C51.6,37.8,51.7,37.7,51.7,37.6z"/>
	<path class="st3" d="M40.1,40.1c0.1-0.1,0.2-0.3,0.1-0.4c-0.1-0.1-0.2-0.1-0.3-0.1c-0.2,0-2,0.1-2.1,1.2c0,0.3,0.1,0.7,0.3,0.9
		c0.7,0.8,2.4,1.2,5.4,1.4c0.4,0,0.7,0,1.1,0c2.2,0,4.4-0.4,6.4-1.2c0.2-0.1,0.2-0.3,0.1-0.4c0-0.1-0.1-0.1-0.1-0.1L49,40.2
		c-0.1,0-0.1-0.1-0.2,0c0,0-1.2,0.3-3.1,0.5c-0.4,0.1-0.9,0.1-1.3,0.1c-1.9,0-3.9-0.3-4.3-0.5C40,40.2,40.1,40.1,40.1,40.1z"/>
	<path class="st3" d="M42.8,46.7c8.6,0,13.3-1.5,14.2-2.5c0.2-0.2,0.4-0.6,0.3-0.9c-0.1-0.4-0.3-0.7-0.6-0.9
		c-0.1-0.1-0.3-0.1-0.4,0.1c-0.1,0.1-0.1,0.3,0,0.4c0.1,0.1,0.1,0.2-0.1,0.3c-0.4,0.3-4,1.3-10,1.7c-0.8,0-1.7,0.1-2.6,0.1
		c-5.4,0-9.3-0.7-9.8-1.2c0.2-0.3,1.6-0.7,3.1-1c0.2,0,0.3-0.2,0.3-0.4c0-0.2-0.2-0.3-0.3-0.3c0,0-0.2,0-0.3,0
		c-2.4,0.1-5.3,0.5-5.4,1.7c0,0.4,0.1,0.8,0.3,1C32.1,45.7,34,46.7,42.8,46.7L42.8,46.7z"/>
	<path class="st3" d="M58.6,44.5c-0.1-0.1-0.3,0-0.4,0.1c0,0-1.3,1.4-5.2,2.2c-1.5,0.3-4.3,0.5-8.3,0.5c-4,0-7.9-0.2-7.9-0.2
		c-0.2,0-0.3,0.1-0.3,0.3c0,0.1,0.1,0.3,0.2,0.3c3.2,0.7,6.4,1,9.6,1c2.6,0,5.1-0.2,7.7-0.6c4.5-0.8,4.9-3,4.9-3.1
		C58.8,44.6,58.7,44.5,58.6,44.5z"/>
</g>
</svg>
