<?xml version="1.0" encoding="utf-8"?>
<!-- Generator: Adobe Illustrator 24.2.0, SVG Export Plug-In . SVG Version: 6.00 Build 0)  -->
<svg version="1.1" id="Layer_1" xmlns="http://www.w3.org/2000/svg" xmlns:xlink="http://www.w3.org/1999/xlink" x="0px" y="0px"
	 viewBox="0 0 427.85 511.84" style="enable-background:new 0 0 427.85 511.84;" xml:space="preserve">
<style type="text/css">
	.st0{fill:#FFFFFF;}
	.st1{fill:#272726;}
	.st2{fill:#E7A524;}
	.st3{fill:#090909;}
	.st4{fill:#EAB13B;}
	.st5{fill:#9C9A99;}
	.st6{fill:#B3B1B0;}
	.st7{fill:#E6AA39;}
	.st8{fill:#FFC541;}
	.st9{fill:#FFC441;}
</style>
<g>
	<path class="st0" d="M272.84,0c64.61,0,129.21,0.03,193.82-0.08c3.2-0.01,4.21,0.34,4.21,3.97c-0.12,168.03-0.12,336.05,0,504.08
		c0,3.69-1.09,3.95-4.24,3.94c-81.92-0.1-163.84-0.08-245.77-0.08c1.06-3.42,4.27-2.64,6.57-2.99c11.99-1.79,23.28-5.57,33.96-11.21
		c8.42-4.45,16.22-9.76,22.97-16.57c14.06-14.18,28.21-28.26,42.34-42.38c5.65-5.64,10.94-11.64,16.26-17.57
		c7.67-8.55,8.46-18.66,3.51-28.84c-4.75-9.76-12.33-15.77-23.78-16.22c-8.77-0.35-15.47,2.99-21.86,8.88
		c-19.45,17.93-37.38,37.42-56.96,55.21c-8.53,7.75-18.64,11.61-29.76,12.68c-15.43,1.49-30.25-0.58-43.21-10.1
		c-10.76-10.28-21.29-20.8-31.59-31.56c-1.14-1.86-2.66-3.39-4.19-4.92c-17.87-17.86-35.74-35.73-53.6-53.61
		c-1.65-1.65-3.37-3.2-5.34-4.47c-8.66-9.37-14.04-20.35-16.28-32.9c-1.65-16.3,0.16-31.8,10.42-45.35
		c3.89-3.48,7.88-6.87,10.93-11.19c1.31-1.67,2.8-3.16,4.48-4.46c5.2-3.26,8.25-8.61,12.48-12.82
		c11.55-11.5,23.06-23.05,34.59-34.57c1.65-1.65,3.3-3.28,4.53-5.3c10.55-11.08,21.53-21.73,32.36-32.54
		c1.77-1.77,3.89-3.12,6.17-4.19c16.13-7.82,32.77-9.26,49.95-4.06c8.32,2.52,15.4,7.15,21.4,13.31
		c17.43,17.86,35.97,34.58,53.51,52.34c14.23,14.41,34.28,11.74,44.88-5.47c6.18-10.04,5.27-23.35-3.64-32.3
		c-19.59-19.7-38.16-40.4-58.37-59.47c-11.64-10.98-25.42-18.68-40.78-23.41c-2.14-0.66-4.77-0.71-5.52-3.58
		c0.15-2.83,2.4-4.27,4.12-5.99c14.66-14.74,29.45-29.36,44.06-44.15c11.63-11.77,12.85-28.07,3.15-40.23
		c-3.27-4.09-7.37-7.13-12.27-9.13C275.01,2.15,272.77,2.49,272.84,0z"/>
	<path class="st0" d="M189.87,511.84c-75.6,0-151.2-0.02-226.79,0.08c-3.18,0-4.22-0.32-4.21-3.97c0.12-168.03,0.12-336.07,0-504.1
		c0-3.72,1.14-3.93,4.25-3.93C62.02,0.02,160.93,0,259.84,0c0.2,2.18-1.7,2.21-2.95,2.69c-5.07,1.95-9.44,4.95-13.24,8.74
		C187.24,67.81,130.65,124.02,74.6,180.77c-14.38,14.56-29.08,28.84-42.99,43.85c-16.58,17.89-25.35,39.6-29.43,63.42
		c-1.08,6.29-1.04,12.59-0.97,18.91c-0.1,32.25,12.14,59.41,33.81,82.82c22.16,23.92,45.76,46.4,68.66,69.58
		c10.15,10.28,19.89,21.04,32.11,29.05c13.97,10.78,29.78,17.21,47.1,20.21C185.38,509.03,188.74,508.23,189.87,511.84z"/>
	<path class="st1" d="M0.01,306.91c-0.39-34.11,11.22-63.66,35.1-87.82c56.32-56.97,113.05-113.54,169.61-170.26
		c10-10.02,20.1-19.95,29.98-30.08c7.41-7.6,14.8-15.13,25.14-18.74c4.33,0,8.66,0,12.99,0c2.69,1.21,5.51,2.21,8.06,3.66
		c17.84,10.17,20.84,33.1,6.01,48.55c-14.98,15.6-30.41,30.77-45.63,46.13c-1.4,1.41-2.74,2.9-4.1,4.35
		c0.24,2.78-2.11,3.94-3.55,5.66c-11.23,13.4-24.62,24.63-36.95,36.92c-4.94,4.93-9.04,10.62-14.23,15.31
		c-2.22,2.01-4.37,4.07-7.06,5.45c-13.54,10.7-24.65,23.9-36.98,35.85c-13.48,13.52-27.05,26.95-40.45,40.55
		c-4.14,4.21-8.31,8.41-12.15,12.91c-1.17,1.16-2.35,2.33-3.52,3.49c-3.42,3.9-7.42,7.25-10.73,11.26
		c-9.77,13.72-12.38,29.1-10.53,45.51c-2.03,0.47-2.25-1.26-2.32-2.35c-0.3-4.38-3.12-4.82-6.61-4.81
		c-14.65,0.04-29.3,0.05-43.95-0.01C5.37,308.43,2.43,308.96,0.01,306.91z"/>
	<path class="st2" d="M189.87,511.84c-3.79-2.3-8.22-1.95-12.33-2.89c-14.29-3.25-27.55-8.75-39.56-17.17
		c-1.61-1.13-3.42-2.09-4.45-3.91c1.65-0.72,3.26-0.2,4.87,0.2c12.64,3.11,22.43-1.62,30.17-11.32c7.47-9.37,7.62-19.76,3.41-30.53
		c-0.64-1.64-2.17-3.05-1.33-5.08c15.87,11.38,33.44,12.95,51.93,8.88c8.66-1.91,16.02-6.26,22.37-12.48
		c18.45-18.05,36.97-36.04,55.47-54.04c12.3-11.97,29.82-12.08,41.44-0.29c11.79,11.97,11.75,29.4-0.18,41.58
		c-17.12,17.5-34.45,34.8-51.39,52.47c-18.38,19.16-40.76,30.02-66.89,33.57c-0.92,0.13-2.06-0.24-2.53,1.02
		C210.53,511.84,200.2,511.84,189.87,511.84z"/>
	<path class="st3" d="M170.65,441.13c14.32,22.19-1.63,47.14-23.02,49.3c-5.04,0.51-9.5-1.05-14.08-2.56
		c-5.77-3.43-10.75-7.77-15.47-12.52c-26.62-26.82-53.3-53.59-80.01-80.33c-21.14-21.16-34.12-46.36-37.73-76.16
		c-0.48-3.94-0.24-7.97-0.33-11.95c17.9,0,35.79,0.14,53.68-0.1c4.51-0.06,7.01,0.72,6.23,5.82c-0.16,1.07-0.29,2.38,1.11,2.99
		c2.69,11.88,7.63,22.64,15.89,31.74c21.08,21.26,42.39,42.29,63.43,63.58C150.45,421,160.55,431.07,170.65,441.13z"/>
	<path class="st4" d="M175.39,166.03c18.23-19.53,37.67-37.86,56.3-56.99c1.95-2,3.67-4.23,5.49-6.35
		c24.96,6.33,44.43,21.01,61.49,39.71c10.31,11.3,21.37,21.92,32.1,32.84c3.85,3.92,7.75,7.79,11.53,11.76
		c11.37,11.95,11.1,29.64-0.58,41.24c-11.6,11.52-28.81,11.63-40.72,0.1c-17.93-17.37-35.77-34.82-53.64-52.24
		c-17.82-17.36-45.12-22.06-67.84-11.67C178.17,165.04,176.76,165.5,175.39,166.03z"/>
	<path class="st5" d="M427.85,307.97c-0.67,15.57-12.23,26.9-27.63,26.9c-70.87,0.03-141.74,0.03-212.61,0
		c-16.06-0.01-28.16-12.76-27.6-28.93c2.7-2.35,6-1.64,9.09-1.64c67.91-0.04,135.81-0.03,203.72-0.03c15.98,0,31.96-0.08,47.93,0.07
		C423.56,304.37,427.05,303.72,427.85,307.97z"/>
	<path class="st6" d="M427.85,307.97c-1.21-2.54-3.54-2.05-5.66-2.05c-87.4,0-174.79,0.02-262.19,0.03
		c-1.13-12.84,10.74-28.4,27.13-28.3c71.11,0.4,142.22,0.36,213.34,0.02c14.71-0.07,26.56,11.92,27.3,25.55
		C427.85,304.78,429.21,306.38,427.85,307.97z"/>
	<path class="st7" d="M140.35,410.94c-1.2,0.13-1.74-0.84-2.41-1.51c-19.67-19.76-39.32-39.53-58.96-59.33
		c-0.8-0.8-1.38-1.83-2.06-2.75c1.49-0.01,2.38,0.99,3.32,1.94c19.58,19.87,39.18,39.73,58.75,59.62
		C139.55,409.49,139.9,410.26,140.35,410.94z"/>
	<path class="st8" d="M85.81,255.35c-0.79-1.55,0.71-2.05,1.41-2.76c16.36-16.48,32.76-32.92,49.17-49.34
		c0.56-0.56,1.33-0.91,2.01-1.36c-2.06,3.48-5.26,5.93-8.01,8.77c-13.29,13.7-26.66,27.32-40,40.97
		C89.01,253.04,87.74,254.61,85.81,255.35z"/>
	<path class="st9" d="M71.56,270.1c2.87-4.42,5.9-8.7,10.72-11.26C79.44,263.3,75.8,266.99,71.56,270.1z"/>
</g>
</svg>
