<?xml version="1.0" encoding="utf-8"?>
<!-- Generator: Adobe Illustrator 24.2.0, SVG Export Plug-In . SVG Version: 6.00 Build 0)  -->
<svg version="1.1" id="Layer_1" xmlns="http://www.w3.org/2000/svg" xmlns:xlink="http://www.w3.org/1999/xlink" x="0px" y="0px"
	 viewBox="0 0 47 47" style="enable-background:new 0 0 47 47;" xml:space="preserve">
<style type="text/css">
	.st0{fill:none;}
	.st1{fill:none;stroke:#333333;stroke-width:1.645;stroke-miterlimit:4.7;}
	.st2{fill:#FFFFFF;stroke:#333333;stroke-width:1.645;stroke-miterlimit:4.7;}
	.st3{fill:#35A6FF;}
	.st4{fill:#333333;}
	.st5{opacity:0.2;enable-background:new    ;}
	.st6{fill:none;stroke:#FFFFFF;stroke-width:1.645;stroke-linecap:round;stroke-miterlimit:4.7;}
</style>
<path class="st0" d="z"/>
<g>
	<g>
		<path class="st1" d="M29.8,31.9l4.2,4.3l3.4,0"/>
		<circle class="st2" cx="37.4" cy="36.2" r="1.7"/>
	</g>
	<g>
		<path class="st1" d="M19.6,34.9L16,39.3H9"/>
		<circle class="st2" cx="9.3" cy="39.3" r="1.7"/>
	</g>
	<g>
		<path class="st1" d="M34.6,16.9l3.2-3.4"/>
		<circle class="st2" cx="37.7" cy="13.8" r="1.7"/>
	</g>
	<path class="st3" d="M19.9,11.4c-1.9,0-3.5,1.6-3.5,3.5c0,0.9,0.3,1.7,0.9,2.3c0.2,0.2,0.3,0.3,0.5,0.4c0.4-0.9,1.2-1.6,2.2-1.9
		l0.3,1c-0.1,0-0.2,0.1-0.4,0.2c-0.7,0.3-1.2,1-1.3,1.7c-0.1,0.6,0,1.3,0.3,1.8c0.1,0.1,0.1,0.2,0.2,0.3l-0.8,0.7
		c-0.2-0.2-0.3-0.4-0.4-0.6c-0.3-0.6-0.5-1.4-0.4-2.1c-0.3-0.2-0.6-0.4-1-0.8c-0.5-0.5-0.8-1.2-1-1.9c0-0.2-0.1-0.4-0.1-0.5
		c-1.5,0.4-2.6,1.8-2.6,3.4c0,0.9,0.4,1.8,1,2.5c0.1,0.1,0.1,0.1,0.2,0.2l-0.7,0.8c-0.3-0.3-0.6-0.6-0.8-0.9
		c-0.1-0.1-0.1-0.2-0.2-0.3c-0.6,0.6-0.9,1.5-0.9,2.3c0,0.9,0.3,1.7,0.9,2.3c0.3-0.5,0.7-0.9,1.1-1.3l0.3,0.4l0.3,0.4
		c-0.1,0-0.1,0.1-0.2,0.1c-0.7,0.7-1.1,1.6-1.1,2.6c0,1.6,1.1,3,2.6,3.4c0.1-0.9,0.5-1.7,1.1-2.4c-0.2-0.7-0.3-1.4-0.2-2.2
		c0.1-0.4,0.2-0.9,0.4-1.3l0.7,0.3l0.2,0.1c-0.1,0.3-0.2,0.6-0.3,1c-0.2,1.6,0.6,3.1,2.1,3.7c0.1,0.1,0.3,0.1,0.4,0.1l-0.3,1
		c-1.1-0.3-2-0.9-2.6-1.8c-0.4,0.6-0.6,1.3-0.6,2c0,1.9,1.6,3.5,3.5,3.5s3.5-1.6,3.5-3.5V14.9C23.4,13,21.8,11.4,19.9,11.4z"/>
	<path class="st4" d="M19.9,10.4c-2.3,0-4.3,1.8-4.5,4.1c-2.1,0.4-3.7,2.3-3.7,4.5c0,0.4,0.1,0.8,0.2,1.2c-1,0.9-1.5,2.1-1.5,3.4
		s0.6,2.5,1.5,3.4c-0.1,0.4-0.2,0.8-0.2,1.2c0,2.2,1.6,4.1,3.7,4.5c0.2,2.3,2.2,4.1,4.5,4.1c2.5,0,4.5-2,4.5-4.5V14.9
		C24.4,12.4,22.4,10.4,19.9,10.4z M23.4,32c0,1.9-1.6,3.5-3.5,3.5c-1.9,0-3.5-1.6-3.5-3.5c0-0.7,0.2-1.4,0.6-2
		c0.6,0.9,1.6,1.6,2.6,1.8l0.3-1c-1.7-0.4-2.8-2.1-2.6-3.9c0-0.3,0.1-0.7,0.3-1l-1-0.5c-0.2,0.4-0.3,0.8-0.4,1.3
		c-0.1,0.7,0,1.5,0.2,2.2c-0.6,0.7-1,1.5-1.1,2.4c-1.5-0.4-2.6-1.8-2.6-3.4c0-1,0.5-2,1.3-2.7l-0.7-0.8c-0.4,0.4-0.8,0.8-1.1,1.3
		c-0.6-0.6-0.9-1.5-0.9-2.3c0-0.9,0.3-1.7,0.9-2.3c0.3,0.5,0.6,0.9,1,1.2l0.7-0.8c-0.8-0.7-1.2-1.6-1.2-2.6c0-1.6,1.1-3,2.6-3.4
		c0.1,0.9,0.5,1.7,1.1,2.4c0.3,0.4,0.6,0.6,1,0.8c-0.1,1,0.2,1.9,0.8,2.7l0.8-0.7c-0.5-0.6-0.7-1.4-0.5-2.1c0.2-0.9,0.8-1.6,1.7-1.9
		l-0.3-1c-1,0.3-1.7,1-2.2,1.9c-0.2-0.1-0.3-0.3-0.5-0.4c-0.6-0.6-0.9-1.5-0.9-2.3c0-1.9,1.6-3.5,3.5-3.5s3.5,1.6,3.5,3.5L23.4,32
		L23.4,32z"/>
	<g>
		<path class="st1" d="M19.8,11.4V7"/>
		<circle class="st2" cx="19.8" cy="6.4" r="1.7"/>
	</g>
	<g>
		<path class="st1" d="M28.1,11.2L31,7h5.4"/>
		<circle class="st2" cx="36.5" cy="7" r="1.7"/>
	</g>
	<g>
		<path class="st1" d="M36.4,24.8h3.3"/>
		<circle class="st2" cx="39.8" cy="24.8" r="1.7"/>
	</g>
	<g>
		<path class="st1" d="M27.9,36.2v4.4"/>
		<circle class="st2" cx="27.9" cy="40.6" r="1.7"/>
	</g>
	<g>
		<path class="st1" d="M14.3,15.2l-3-3.2H7.2"/>
		<circle class="st2" cx="7.2" cy="12" r="1.7"/>
	</g>
	<g>
		<path class="st1" d="M13.8,31.2H8.6"/>
		<circle class="st2" cx="8.6" cy="31.2" r="1.7"/>
	</g>
	<g>
		<path class="st3" d="M27.9,11.4c1.9,0,3.5,1.6,3.5,3.5c0,0.9-0.3,1.7-0.9,2.3c-0.1,0.2-0.3,0.3-0.5,0.4c-0.4-0.9-1.2-1.6-2.2-1.9
			l-0.3,1c0.1,0,0.2,0.1,0.4,0.2c0.7,0.3,1.2,1,1.3,1.7c0.1,0.6,0,1.3-0.3,1.8c-0.1,0.1-0.1,0.2-0.2,0.3l0.8,0.7
			c0.2-0.2,0.3-0.4,0.4-0.6c0.3-0.6,0.5-1.4,0.4-2.1c0.3-0.2,0.6-0.4,1-0.8c0.5-0.5,0.8-1.2,1-1.9c0-0.2,0.1-0.4,0.1-0.5
			c1.5,0.4,2.6,1.8,2.6,3.4c0,0.9-0.4,1.8-1,2.5c-0.1,0.1-0.1,0.1-0.2,0.2l0.7,0.8c0.3-0.3,0.6-0.6,0.8-0.9c0.1-0.1,0.1-0.2,0.2-0.3
			c0.6,0.6,0.9,1.5,0.9,2.3c0,0.9-0.3,1.7-0.9,2.3c-0.3-0.5-0.7-0.9-1.1-1.3L34,24.9l-0.3,0.4c0.1,0,0.1,0.1,0.2,0.1
			c0.7,0.7,1.1,1.6,1.1,2.6c0,1.6-1.1,3-2.6,3.4c-0.1-0.9-0.5-1.7-1.1-2.4c0.2-0.7,0.3-1.4,0.2-2.2c-0.1-0.4-0.2-0.9-0.4-1.3
			L30.3,26l-0.2,0.1c0.1,0.3,0.2,0.6,0.3,1c0.2,1.6-0.6,3.1-2.1,3.7c-0.1,0.1-0.3,0.1-0.4,0.1l0.3,1c1.1-0.3,2-0.9,2.6-1.8
			c0.4,0.6,0.6,1.3,0.6,2c0,1.9-1.6,3.5-3.5,3.5s-3.5-1.6-3.5-3.5V14.9C24.4,13,26,11.4,27.9,11.4z"/>
		<path class="st4" d="M23.3,14.9V32c0,2.5,2,4.5,4.5,4.5c2.3,0,4.3-1.8,4.5-4.1c2.1-0.4,3.7-2.3,3.7-4.5c0-0.4-0.1-0.8-0.2-1.2
			c1-0.9,1.5-2.1,1.5-3.4c0-1.3-0.6-2.5-1.5-3.4c0.1-0.4,0.2-0.8,0.2-1.2c0-2.2-1.6-4.1-3.7-4.5c-0.2-2.3-2.2-4.1-4.5-4.1
			C25.4,10.4,23.3,12.4,23.3,14.9z M24.4,14.9c0-1.9,1.6-3.5,3.5-3.5c1.9,0,3.5,1.6,3.5,3.5c0,0.9-0.3,1.7-0.9,2.3
			c-0.1,0.2-0.3,0.3-0.5,0.4c-0.4-0.9-1.2-1.6-2.2-1.9l-0.3,1c0.9,0.3,1.5,1,1.7,1.9c0.2,0.8,0,1.5-0.5,2.1l0.8,0.7
			c0.6-0.8,0.9-1.7,0.8-2.7c0.3-0.2,0.6-0.4,1-0.8c0.6-0.7,1-1.5,1.1-2.4c1.5,0.4,2.6,1.8,2.6,3.4c0,1-0.4,2-1.2,2.6l0.7,0.8
			c0.4-0.3,0.7-0.7,1-1.2c0.6,0.6,0.9,1.5,0.9,2.3c0,0.9-0.3,1.7-0.9,2.3c-0.3-0.5-0.7-0.9-1.1-1.3l-0.7,0.8C34.5,26,35,27,35,28
			c0,1.6-1.1,3-2.6,3.4c-0.1-0.9-0.5-1.7-1.1-2.4c0.2-0.7,0.3-1.4,0.2-2.2c-0.1-0.4-0.2-0.9-0.4-1.3l-1,0.5c0.1,0.3,0.2,0.6,0.3,1
			c0.3,1.8-0.9,3.4-2.6,3.9l0.3,1c1.1-0.3,2-0.9,2.6-1.8c0.4,0.6,0.6,1.3,0.6,2c0,1.9-1.6,3.5-3.5,3.5s-3.5-1.6-3.5-3.5L24.4,14.9
			L24.4,14.9z"/>
		<path class="st5" d="M37.4,23.5c0-1.3-0.6-2.5-1.5-3.4c0.1-0.4,0.2-0.8,0.2-1.2c0-2.2-1.6-4.1-3.7-4.5c-0.2-2.1-1.9-3.8-4-4
			c0.1,0.5,0.1,0.9,0.1,1.4c2.1,0.8,3.4,3.3,3.1,6.1c-0.1,0.5-0.2,1-0.3,1.5c0.9,1.2,1.3,2.8,1,4.5c-0.2,1.6-1,3.1-2.1,4.1
			c0,0.5,0,1,0,1.5c-0.3,2.8-2.3,4.9-4.5,5.1c-0.1,0.4-0.2,0.8-0.4,1.2c0.8,0.5,1.7,0.8,2.6,0.8c2.3,0,4.3-1.8,4.5-4.1
			c2.1-0.4,3.7-2.3,3.7-4.5c0-0.4-0.1-0.8-0.2-1.2C36.9,26,37.4,24.8,37.4,23.5z"/>
	</g>
	<path class="st5" d="M19.9,10.4c-0.1,0-0.2,0-0.4,0c0.5,0.7,0.7,1.6,0.7,2.5v17.8c0,2.2-1.5,4-3.6,4.5c0.8,0.9,2,1.3,3.2,1.3
		c2.5,0,4.5-2,4.5-4.5V14.9C24.4,12.4,22.4,10.4,19.9,10.4z"/>
	<path class="st6" d="M25.5,16.9v0.3"/>
	<path class="st6" d="M27.6,12.7c-1.3,0-1.9,0.9-2,2.5"/>
	<path class="st6" d="M14.2,18.2c0.1-0.3,0.3-0.6,0.6-0.9"/>
	<path class="st6" d="M14.3,19.9c0,0,0-0.1-0.1-0.1"/>
</g>
<path class="st0" d="z"/>
</svg>
