<?xml version="1.0" encoding="utf-8"?>
<!-- Generator: Adobe Illustrator 24.2.0, SVG Export Plug-In . SVG Version: 6.00 Build 0)  -->
<svg version="1.1" id="Layer_1" xmlns="http://www.w3.org/2000/svg" xmlns:xlink="http://www.w3.org/1999/xlink" x="0px" y="0px"
	 viewBox="0 0 94.6 100" style="enable-background:new 0 0 94.6 100;" xml:space="preserve">
<style type="text/css">
	.st0{fill:#28253A;}
	.st1{fill:#37C5FF;}
	.st2{fill:none;stroke:#37C5FF;stroke-width:10;stroke-miterlimit:10;}
</style>
<path class="st0" d="M83.7,35.1c2,4.9,3,10,3,15.3c0,5.3-1,10.4-3,15.3c-2,4.9-4.9,9.2-8.7,13c-3.8,3.8-8.1,6.7-13,8.7
	c-4.9,2-10,3-15.3,3c-5.3,0-10.4-1-15.3-3c-4.9-2-9.2-4.9-13-8.7s-6.7-8.1-8.7-13c-2-4.9-3-9.9-3-15.3c0-5.3,1-10.4,3-15.3
	c2-4.9,4.9-9.2,8.7-13s8.1-6.7,13-8.7c4.9-2,9.9-3,15.3-3c5.3,0,10.4,1,15.3,3s9.2,4.9,13,8.7C78.8,25.9,81.7,30.2,83.7,35.1z
	 M66.8,57.8c0-1.8-0.5-3.2-1.6-4.1c-1.1-1-3-1.8-5.7-2.5c-2.7-0.7-4.2-1.2-4.7-1.6c-0.3-0.3-0.5-0.6-0.5-1c0-0.5,0.2-0.9,0.6-1.1
	c0.6-0.4,1.5-0.6,2.8-0.6c1.1,0,1.9,0.2,2.5,0.7c0.6,0.4,0.9,1.1,1.1,1.9l4.8-1c-0.5-1.9-1.4-3.2-2.7-4.2c-1.2-0.9-3.2-1.4-5.9-1.4
	c-2.8,0-4.8,0.6-6.1,1.9c-1.3,1.2-1.9,2.7-1.9,4.5c0,2,0.8,3.6,2.3,4.7c1.1,0.8,3.7,1.8,7.8,2.7c0.8,0.2,1.4,0.5,1.7,0.7
	c0.2,0.3,0.3,0.7,0.3,1.1c0,0.6-0.2,1.1-0.6,1.5c-0.7,0.5-1.7,0.8-3,0.8c-1.2,0-2.2-0.3-2.8-0.8c-0.6-0.6-1.1-1.4-1.3-2.5l-5.2,0.9
	c0.5,2,1.5,3.6,3,4.7c1.5,1.2,3.6,1.8,6.2,1.8c2.9,0,5.1-0.7,6.6-2.1C66,61.4,66.8,59.7,66.8,57.8z M47.1,44.3
	c0-2.3-0.5-4.2-1.6-5.6c-1-1.5-2.3-2.4-3.8-2.8c-1-0.3-3.1-0.4-6.4-0.4h-8.5v28.9h5.3V53.4h3.5c2.4,0,4.3-0.1,5.5-0.4
	c1-0.2,1.9-0.7,2.8-1.3c0.9-0.7,1.7-1.7,2.3-2.9C46.8,47.6,47.1,46.1,47.1,44.3z"/>
<path class="st1" d="M65.2,53.7c1.1,1,1.6,2.3,1.6,4.1c0,1.9-0.7,3.6-2.2,5c-1.5,1.4-3.7,2.1-6.6,2.1c-2.6,0-4.6-0.6-6.2-1.8
	c-1.5-1.1-2.5-2.7-3-4.7l5.2-0.9c0.2,1.1,0.6,1.9,1.3,2.5c0.6,0.6,1.6,0.8,2.8,0.8c1.3,0,2.3-0.3,3-0.8c0.4-0.3,0.6-0.8,0.6-1.5
	c0-0.4-0.1-0.8-0.3-1.1c-0.3-0.2-0.8-0.5-1.7-0.7c-4.1-1-6.7-1.9-7.8-2.7c-1.5-1.1-2.3-2.7-2.3-4.7c0-1.8,0.6-3.3,1.9-4.5
	c1.3-1.3,3.4-1.9,6.1-1.9c2.7,0,4.6,0.5,5.9,1.4c1.3,0.9,2.2,2.3,2.7,4.2l-4.8,1c-0.2-0.8-0.6-1.4-1.1-1.9c-0.6-0.5-1.4-0.7-2.5-0.7
	c-1.3,0-2.3,0.2-2.8,0.6c-0.4,0.2-0.6,0.6-0.6,1.1c0,0.4,0.2,0.7,0.5,1c0.5,0.4,2,0.9,4.7,1.6C62.2,51.8,64.1,52.7,65.2,53.7z"/>
<path class="st1" d="M45.5,38.7c1.1,1.5,1.6,3.3,1.6,5.6c0,1.8-0.3,3.3-0.8,4.5c-0.6,1.2-1.4,2.2-2.3,2.9c-0.9,0.6-1.9,1.1-2.8,1.3
	c-1.2,0.3-3.1,0.4-5.5,0.4h-3.5v10.9h-5.3V35.4h8.5c3.3,0,5.4,0.1,6.4,0.4C43.2,36.3,44.5,37.2,45.5,38.7z M41,46.6
	c0.4-0.7,0.6-1.4,0.6-2.3c0-1-0.3-1.9-0.9-2.5c-0.6-0.7-1.3-1.1-2.2-1.3c-0.6-0.2-1.9-0.2-3.8-0.2h-2.6v8.2H35
	c2.1,0,3.5-0.1,4.2-0.4C40,47.7,40.5,47.3,41,46.6z"/>
<path class="st0" d="M41.6,44.3c0,0.9-0.2,1.6-0.6,2.3c-0.4,0.6-1,1.1-1.7,1.5c-0.7,0.3-2.1,0.4-4.2,0.4h-2.9v-8.2h2.6
	c1.9,0,3.2,0.1,3.8,0.2c0.9,0.2,1.6,0.6,2.2,1.3C41.3,42.5,41.6,43.3,41.6,44.3z"/>
<path class="st2" d="M31.4,87.3c-4.9-2-9.2-4.9-13-8.7s-6.7-8.1-8.7-13c-2-4.9-3-9.9-3-15.3c0-5.3,1-10.4,3-15.3
	c2-4.9,4.9-9.2,8.7-13s8.1-6.7,13-8.7c4.9-2,9.9-3,15.3-3c5.3,0,10.4,1,15.3,3s9.2,4.9,13,8.7c3.8,3.8,6.7,8.1,8.7,13
	c2,4.9,3,10,3,15.3c0,5.3-1,10.4-3,15.3c-2,4.9-4.9,9.2-8.7,13c-3.8,3.8-8.1,6.7-13,8.7c-4.9,2-10,3-15.3,3
	C41.4,90.4,36.3,89.3,31.4,87.3z"/>
</svg>
