<?xml version="1.0" encoding="utf-8"?>
<!-- Generator: Adobe Illustrator 24.2.0, SVG Export Plug-In . SVG Version: 6.00 Build 0)  -->
<svg version="1.1" id="Layer_1" xmlns="http://www.w3.org/2000/svg" xmlns:xlink="http://www.w3.org/1999/xlink" x="0px" y="0px"
	 viewBox="0 0 94.6 100" style="enable-background:new 0 0 94.6 100;" xml:space="preserve">
<style type="text/css">
	.st0{fill:#1B0124;}
	.st1{fill:#DF76FF;}
	.st2{fill:none;stroke:#DF76FF;stroke-width:10;stroke-miterlimit:10;}
</style>
<path class="st0" d="M85.5,36.4c2.1,5,3.1,10.3,3.1,15.8c0,5.5-1,10.8-3.1,15.8c-2.1,5-5.1,9.5-9,13.4c-3.9,3.9-8.4,6.9-13.4,9
	c-5,2.1-10.3,3.1-15.8,3.1c-5.5,0-10.8-1-15.8-3.1c-5-2.1-9.5-5.1-13.4-9s-6.9-8.4-9-13.4C7,62.9,6,57.7,6,52.2
	c0-5.5,1-10.8,3.1-15.8c2.1-5,5.1-9.5,9-13.4s8.4-6.9,13.4-9c5-2.1,10.3-3.1,15.8-3.1c5.5,0,10.8,1,15.8,3.1s9.5,5.1,13.4,9
	C80.4,26.9,83.4,31.4,85.5,36.4z M67.9,45.3c0-1.8-0.1-2.7-0.4-2.7c-6.4,0.2-10.6,1-12.6,2.4l-0.2,0.3c0.1,1.8,0.2,6.5,0.2,14
	s0,11.3,0.1,11.4c0.1,0,1.1,0.1,3,0.1l2.9,0l0.1-21.9c1.5-0.4,3.6-0.7,6.4-0.7C67.8,48.1,67.9,47.2,67.9,45.3z M49.4,44.9
	c0-3.3-1.1-6.2-3.3-8.5C44,34.1,40.5,33,35.8,33c-3.3,0-6.2,0.1-8.8,0.2c-0.2,0-0.3,6.3-0.3,19c0,12.5,0,18.8,0.1,18.9
	c0.1,0.1,1.1,0.1,3,0.1l2.9-0.1c0.1-0.1,0.2-4.6,0.2-13.5C43.9,57.5,49.4,53.3,49.4,44.9z"/>
<path class="st1" d="M67.5,42.6c0.3,0,0.4,0.9,0.4,2.7c0,1.9-0.1,2.8-0.4,2.8c-2.8,0-5,0.3-6.4,0.7L61,70.7l-2.9,0c-2,0-3,0-3-0.1
	c-0.1,0-0.1-3.8-0.1-11.4s-0.1-12.2-0.2-14l0.2-0.3C56.9,43.6,61.1,42.8,67.5,42.6z"/>
<path class="st1" d="M46.1,36.5c2.2,2.3,3.3,5.1,3.3,8.5c0,8.4-5.5,12.6-16.6,12.6c0,8.9-0.1,13.4-0.2,13.5l-2.9,0.1
	c-1.9,0-2.9,0-3-0.1c-0.1-0.1-0.1-6.3-0.1-18.9c0-12.6,0.1-19,0.3-19c2.6-0.1,5.5-0.2,8.8-0.2C40.5,33,44,34.1,46.1,36.5z
	 M35.6,51.9c5.3,0,8-2.3,8-6.9c-0.4-4.3-2.9-6.6-7.6-6.6l-3.1,0.2l0,13.3H35.6z"/>
<path class="st0" d="M43.6,45c0,4.6-2.7,6.9-8,6.9h-2.7l0-13.3l3.1-0.2C40.6,38.5,43.2,40.7,43.6,45z"/>
<path class="st2" d="M31.5,90.3c-5-2.1-9.5-5.1-13.4-9s-6.9-8.4-9-13.4C7,62.9,6,57.7,6,52.2c0-5.5,1-10.8,3.1-15.8
	c2.1-5,5.1-9.5,9-13.4s8.4-6.9,13.4-9c5-2.1,10.3-3.1,15.8-3.1c5.5,0,10.8,1,15.8,3.1s9.5,5.1,13.4,9c3.9,3.9,6.9,8.4,9,13.4
	c2.1,5,3.1,10.3,3.1,15.8c0,5.5-1,10.8-3.1,15.8c-2.1,5-5.1,9.5-9,13.4c-3.9,3.9-8.4,6.9-13.4,9c-5,2.1-10.3,3.1-15.8,3.1
	C41.8,93.4,36.5,92.4,31.5,90.3z"/>
</svg>
