<?xml version="1.0" encoding="utf-8"?>
<!-- Generator: Adobe Illustrator 24.2.0, SVG Export Plug-In . SVG Version: 6.00 Build 0)  -->
<svg version="1.1" id="Layer_1" xmlns="http://www.w3.org/2000/svg" xmlns:xlink="http://www.w3.org/1999/xlink" x="0px" y="0px"
	 viewBox="0 0 91.7 100" style="enable-background:new 0 0 91.7 100;" xml:space="preserve">
<style type="text/css">
	.st0{fill:url(#SVGID_1_);}
	.st1{font-family:'ArialMT';}
	.st2{font-size:10px;}
	.st3{fill:none;}
	.st4{fill:#39424E;}
</style>
<g>
	
		<linearGradient id="SVGID_1_" gradientUnits="userSpaceOnUse" x1="52.5" y1="97.3898" x2="52.5" y2="-2.6102" gradientTransform="matrix(1 0 0 -1 -6.6667 97.3898)">
		<stop  offset="0" style="stop-color:#CEE3EB"/>
		<stop  offset="1" style="stop-color:#AEC8C7"/>
	</linearGradient>
	<path class="st0" d="M91.6,44.9L91.6,44.9c-0.2-9.4-0.9-17.8-2.1-19.9c-1-1.7-6.2-5.4-12.6-9.5L59.7,5.7C53.3,2.4,47.8,0,45.8,0
		c-2.4,0-10.2,3.6-18.5,8.2C21,11.6,14.4,15.6,9.5,18.9c-3.9,2.6-6.6,4.8-7.4,6.1c-0.7,1.3-1.3,4.9-1.6,9.7l0,0
		c-0.5,6-0.6,13.9-0.4,21.1C0.3,64.9,1,73,2.1,75c2.9,4.9,38,25,43.7,25c2.4,0,9.8-3.5,17.9-7.9C70.2,88.6,77,84.6,82,81.2l0,0
		c3.9-2.7,6.8-4.9,7.5-6.2c0.7-1.2,1.3-4.8,1.6-9.5l0,0C91.6,59.6,91.8,52,91.6,44.9z"/>
</g>
<text transform="matrix(1 0 0 1 9.4269 65.5)" class="st1 st2">Problem Solving</text>
<g transform="translate(-17, 0)">
	<path d="M57.1,75l-2-0.3l-0.9-1.8c-0.1-0.1-0.2-0.2-0.3-0.2c-0.1,0-0.2,0.1-0.3,0.2l-0.3,0.7l-0.6,1.2l-0.5,0.1L50.6,75
		c-0.1,0-0.1,0-0.2,0.1c0,0,0,0,0,0.1c0,0,0,0.1,0,0.1c0,0,0,0,0,0c0,0,0,0.1,0,0.1c0,0,0,0.1,0.1,0.1l1.5,1.4l-0.3,1.8l0,0.2
		c0,0,0,0,0,0l0,0c0,0,0,0,0,0c0,0.2,0.2,0.3,0.4,0.3c0,0,0.1,0,0.1,0l1.8-1l1.8,1c0.2,0.1,0.4,0,0.4-0.1c0-0.1,0-0.1,0-0.2l-0.3-2
		l1.5-1.4c0.1-0.1,0.1-0.3,0-0.5C57.2,75,57.1,75,57.1,75"/>
	<path d="M66.1,75l-2-0.3l-0.9-1.8c-0.1-0.1-0.2-0.2-0.3-0.2c-0.1,0-0.2,0.1-0.3,0.2l-0.3,0.7l-0.6,1.2l-0.5,0.1L59.6,75
		c-0.1,0-0.1,0-0.2,0.1c0,0,0,0,0,0.1c0,0,0,0.1,0,0.1c0,0,0,0,0,0c0,0,0,0.1,0,0.1c0,0,0,0.1,0.1,0.1l1.5,1.4l-0.3,1.8l0,0.2
		c0,0,0,0,0,0l0,0c0,0,0,0,0,0c0,0.2,0.2,0.3,0.4,0.3c0,0,0.1,0,0.1,0l1.8-1l1.8,1c0.2,0.1,0.4,0,0.4-0.1c0-0.1,0-0.1,0-0.2l-0.3-2
		l1.5-1.4c0.1-0.1,0.1-0.3,0-0.5C66.2,75,66.1,75,66.1,75"/>
	<path d="M75.1,75l-2-0.3l-0.9-1.8c-0.1-0.1-0.2-0.2-0.3-0.2c-0.1,0-0.2,0.1-0.3,0.2l-0.3,0.7l-0.6,1.2l-0.5,0.1L68.6,75
		c-0.1,0-0.1,0-0.2,0.1c0,0,0,0,0,0.1c0,0,0,0.1,0,0.1c0,0,0,0,0,0c0,0,0,0.1,0,0.1c0,0,0,0.1,0.1,0.1l1.5,1.4l-0.3,1.8l0,0.2
		c0,0,0,0,0,0l0,0c0,0,0,0,0,0c0,0.2,0.2,0.3,0.4,0.3c0,0,0.1,0,0.1,0l1.8-1l1.8,1c0.2,0.1,0.4,0,0.4-0.1c0-0.1,0-0.1,0-0.2l-0.3-2
		l1.5-1.4c0.1-0.1,0.1-0.3,0-0.5C75.2,75,75.1,75,75.1,75"/>
</g>
<g id="problem_solving">
	<polygon class="st3" points="46.1,36.6 50.6,34 46.1,31.5 	"/>
	<path class="st3" d="M45.7,28.3V23c0,0,0,0,0-0.1l-0.6-0.4l-3.9-2.2v5.4l1.8,1.1L45.7,28.3z"/>
	<polygon class="st3" points="46,22.6 46,22.6 50.8,19.8 46.1,17.1 41.3,19.9 	"/>
	<polygon class="st3" points="30.8,39.7 45.6,48.2 45.6,42.9 30.8,34.3 	"/>
	<path class="st3" d="M46,42.4C46,42.4,46,42.4,46,42.4L60.6,34l-11.5-6.7l-3.1,1.7l0,0l0,0h0c-0.1,0-0.3,0-0.4-0.1l-0.6-0.4
		l-2.3-1.4L31,33.8L46,42.4z M40.7,33.7l5-2.9h0l0.1,0h0c0.1,0,0.1,0,0.2,0h0l0.1,0l0,0l4.9,2.9c0.1,0.1,0.2,0.1,0.2,0.3
		c0,0.1,0,0.1-0.1,0.2L46.1,37L46,37.1c0,0,0,0-0.1,0c0,0,0,0,0,0c0,0-0.1,0-0.1,0c0,0,0,0-0.1,0c0,0-0.1,0-0.1,0l-0.1,0l-4.9-2.8
		c-0.2-0.1-0.2-0.2-0.2-0.3C40.5,33.9,40.6,33.8,40.7,33.7z"/>
	<path class="st4" d="M40.7,34.3l4.9,2.8l0.1,0c0,0,0.1,0,0.1,0c0,0,0,0,0.1,0c0,0,0.1,0,0.1,0c0,0,0,0,0,0c0,0,0.1,0,0.1,0l0.1-0.1
		l4.9-2.8c0.1-0.1,0.1-0.1,0.1-0.2c0-0.2-0.1-0.2-0.2-0.3L46,30.8l0,0l-0.1,0h0c-0.1,0-0.1,0-0.2,0h0l-0.1,0h0l-5,2.9
		c-0.1,0-0.2,0.1-0.2,0.3C40.5,34.1,40.5,34.2,40.7,34.3z M46.1,36.6v-5.1l4.5,2.5L46.1,36.6z"/>
	<path class="st4" d="M61.3,34c0-0.1,0-0.2-0.1-0.2l-11.4-6.8l1.4-0.7c0.1-0.1,0.1-0.1,0.1-0.2V20c0,0,0,0,0-0.1c0,0,0,0,0,0
		c0-0.1,0-0.2-0.1-0.2l-4.9-2.9c-0.1-0.1-0.2-0.1-0.3,0l-5.1,2.9c0,0-0.1,0.1-0.1,0.1c0,0,0,0,0,0c0,0.1,0,0.1,0,0.2v5.8
		c0,0.1,0,0.2,0.1,0.2l1.3,0.7l-11.7,6.7c-0.1,0.1-0.1,0.1-0.1,0.2c0,0,0,0,0,0.1c0,0,0,0,0,0v5.8c0,0.1,0,0.2,0.1,0.2l15.4,8.9
		c0.1,0,0.2-0.1,0.2-0.1l0,0L61.2,40c0.1,0,0.1-0.1,0.1-0.2v-5.7l0,0C61.3,34.1,61.3,34,61.3,34z M46.1,17.1l4.7,2.7L46,22.6l0,0
		l-4.7-2.7L46.1,17.1z M41.2,20.3l3.9,2.2l0.6,0.4c0,0,0,0,0,0.1v5.3L43,26.7l-1.8-1.1L41.2,20.3z M45.1,28.5l0.6,0.4
		c0.1,0.1,0.2,0.1,0.4,0.1h0l0,0l0,0l3.1-1.7L60.6,34L46,42.4c0,0,0,0,0,0l-15-8.6l11.7-6.7L45.1,28.5z M45.6,48.2l-14.8-8.5v-5.3
		l14.8,8.5V48.2z"/>
</g>
</svg>
