<?xml version="1.0" encoding="utf-8"?>
<!-- Generator: Adobe Illustrator 24.2.0, SVG Export Plug-In . SVG Version: 6.00 Build 0)  -->
<svg version="1.1" id="Layer_1" xmlns="http://www.w3.org/2000/svg" xmlns:xlink="http://www.w3.org/1999/xlink" x="0px" y="0px"
	 viewBox="0 0 91.7 100" style="enable-background:new 0 0 91.7 100;" xml:space="preserve">
<style type="text/css">
	.st0{fill:url(#SVGID_1_);}
	.st1{enable-background:new    ;}
	.st2{fill:#39424E;}
</style>
<g>
	
		<linearGradient id="SVGID_1_" gradientUnits="userSpaceOnUse" x1="52.5" y1="97.3898" x2="52.5" y2="-2.6102" gradientTransform="matrix(1 0 0 -1 -6.6667 97.3898)">
		<stop  offset="0" style="stop-color:#F9D641"/>
		<stop  offset="1" style="stop-color:#F8BC36"/>
	</linearGradient>
	<path class="st0" d="M91.6,44.9L91.6,44.9c-0.2-9.4-0.9-17.8-2.1-19.9c-1-1.7-6.2-5.4-12.6-9.5L59.7,5.7C53.3,2.4,47.8,0,45.8,0
		c-2.4,0-10.2,3.6-18.5,8.2C21,11.6,14.4,15.6,9.5,18.9c-3.9,2.6-6.6,4.8-7.4,6.1c-0.7,1.3-1.3,4.9-1.6,9.7l0,0
		c-0.5,6-0.6,13.9-0.4,21.1C0.3,64.9,1,73,2.1,75c2.9,4.9,38,25,43.7,25c2.4,0,9.8-3.5,17.9-7.9C70.2,88.6,77,84.6,82,81.2l0,0
		c3.9-2.7,6.8-4.9,7.5-6.2c0.7-1.2,1.3-4.8,1.6-9.5l0,0C91.6,59.6,91.8,52,91.6,44.9z"/>
</g>
<g>
	<g class="st1">
		<path d="M28.8,57.6h2.1c1.6,0,2.7,0.5,2.7,2.1c0,1.5-1.1,2.2-2.7,2.2h-1.2v2.9h-0.9V57.6z M30.8,61.2c1.3,0,1.9-0.5,1.9-1.5
			c0-1-0.6-1.4-1.9-1.4h-1v2.9H30.8z"/>
		<path d="M34.8,67.1l0.2-0.7c0.1,0,0.3,0.1,0.4,0.1c0.6,0,1-0.5,1.2-1.2l0.1-0.4l-2.2-5.4h0.9l1.1,3c0.2,0.5,0.4,1,0.5,1.5h0
			c0.2-0.5,0.3-1,0.5-1.5l1-3h0.9l-2,5.8c-0.4,1.1-0.9,1.9-2,1.9C35.1,67.2,34.9,67.1,34.8,67.1z"/>
		<path d="M40.9,63.2v-3h-0.8v-0.7l0.8-0.1l0.1-1.5h0.8v1.5h1.5v0.7h-1.5v3c0,0.7,0.2,1,0.8,1c0.2,0,0.4-0.1,0.6-0.1l0.2,0.7
			c-0.3,0.1-0.7,0.2-1,0.2C41.3,65,40.9,64.2,40.9,63.2z"/>
		<path d="M44.8,56.9h0.9v2.2l0,1.1c0.5-0.5,1-0.9,1.8-0.9c1.1,0,1.6,0.7,1.6,2.1v3.4h-0.9v-3.3c0-1-0.3-1.4-1-1.4
			c-0.6,0-0.9,0.3-1.5,0.8v3.9h-0.9V56.9z"/>
		<path d="M50.7,62.2c0-1.8,1.2-2.8,2.5-2.8c1.3,0,2.5,1,2.5,2.8c0,1.8-1.2,2.8-2.5,2.8C51.9,65,50.7,63.9,50.7,62.2z M54.8,62.2
			c0-1.2-0.6-2.1-1.6-2.1s-1.6,0.8-1.6,2.1c0,1.2,0.6,2.1,1.6,2.1S54.8,63.4,54.8,62.2z"/>
		<path d="M57.4,59.4h0.8l0.1,0.8h0c0.5-0.5,1.1-0.9,1.8-0.9c1.1,0,1.6,0.7,1.6,2.1v3.4h-0.9v-3.3c0-1-0.3-1.4-1-1.4
			c-0.6,0-0.9,0.3-1.5,0.8v3.9h-0.9V59.4z"/>
	</g>
</g>
<g transform="translate(-21.5, 0)">
	<path d="M52.6,75l-2-0.3l-0.9-1.8c-0.1-0.1-0.2-0.2-0.3-0.2c-0.1,0-0.2,0.1-0.3,0.2l-0.3,0.7l-0.6,1.2l-0.5,0.1L46.1,75
		c-0.1,0-0.1,0-0.2,0.1c0,0,0,0,0,0.1c0,0,0,0.1,0,0.1c0,0,0,0,0,0c0,0,0,0.1,0,0.1c0,0,0,0.1,0.1,0.1l1.5,1.4l-0.3,1.8l0,0.2
		c0,0,0,0,0,0l0,0c0,0,0,0,0,0c0,0.2,0.2,0.3,0.4,0.3c0,0,0.1,0,0.1,0l1.8-1l1.8,1c0.2,0.1,0.4,0,0.4-0.1c0-0.1,0-0.1,0-0.2l-0.3-2
		l1.5-1.4c0.1-0.1,0.1-0.3,0-0.5C52.7,75,52.6,75,52.6,75"/>
	<path d="M61.6,75l-2-0.3l-0.9-1.8c-0.1-0.1-0.2-0.2-0.3-0.2c-0.1,0-0.2,0.1-0.3,0.2l-0.3,0.7l-0.6,1.2l-0.5,0.1L55.1,75
		c-0.1,0-0.1,0-0.2,0.1c0,0,0,0,0,0.1c0,0,0,0.1,0,0.1c0,0,0,0,0,0c0,0,0,0.1,0,0.1c0,0,0,0.1,0.1,0.1l1.5,1.4l-0.3,1.8l0,0.2
		c0,0,0,0,0,0l0,0c0,0,0,0,0,0c0,0.2,0.2,0.3,0.4,0.3c0,0,0.1,0,0.1,0l1.8-1l1.8,1c0.2,0.1,0.4,0,0.4-0.1c0-0.1,0-0.1,0-0.2l-0.3-2
		l1.5-1.4c0.1-0.1,0.1-0.3,0-0.5C61.7,75,61.6,75,61.6,75"/>
	<path d="M70.6,75l-2-0.3l-0.9-1.8c-0.1-0.1-0.2-0.2-0.3-0.2c-0.1,0-0.2,0.1-0.3,0.2l-0.3,0.7l-0.6,1.2l-0.5,0.1L64.1,75
		c-0.1,0-0.1,0-0.2,0.1c0,0,0,0,0,0.1c0,0,0,0.1,0,0.1c0,0,0,0,0,0c0,0,0,0.1,0,0.1c0,0,0,0.1,0.1,0.1l1.5,1.4l-0.3,1.8l0,0.2
		c0,0,0,0,0,0l0,0c0,0,0,0,0,0c0,0.2,0.2,0.3,0.4,0.3c0,0,0.1,0,0.1,0l1.8-1l1.8,1c0.2,0.1,0.4,0,0.4-0.1c0-0.1,0-0.1,0-0.2l-0.3-2
		l1.5-1.4c0.1-0.1,0.1-0.3,0-0.5C70.7,75,70.6,75,70.6,75"/>
	<path d="M79.6,75l-2-0.3l-0.9-1.8c-0.1-0.1-0.2-0.2-0.3-0.2c-0.1,0-0.2,0.1-0.3,0.2l-0.3,0.7l-0.6,1.2l-0.5,0.1L73.1,75
		c-0.1,0-0.1,0-0.2,0.1c0,0,0,0,0,0.1c0,0,0,0.1,0,0.1c0,0,0,0,0,0c0,0,0,0.1,0,0.1c0,0,0,0.1,0.1,0.1l1.5,1.4l-0.3,1.8l0,0.2
		c0,0,0,0,0,0l0,0c0,0,0,0,0,0c0,0.2,0.2,0.3,0.4,0.3c0,0,0.1,0,0.1,0l1.8-1l1.8,1c0.2,0.1,0.4,0,0.4-0.1c0-0.1,0-0.1,0-0.2l-0.3-2
		l1.5-1.4c0.1-0.1,0.1-0.3,0-0.5C79.7,75,79.6,75,79.6,75"/>
	<path d="M88.6,75l-2-0.3l-0.9-1.8c-0.1-0.1-0.2-0.2-0.3-0.2c-0.1,0-0.2,0.1-0.3,0.2l-0.3,0.7l-0.6,1.2l-0.5,0.1L82.1,75
		c-0.1,0-0.1,0-0.2,0.1c0,0,0,0,0,0.1c0,0,0,0.1,0,0.1c0,0,0,0,0,0c0,0,0,0.1,0,0.1c0,0,0,0.1,0.1,0.1l1.5,1.4l-0.3,1.8l0,0.2
		c0,0,0,0,0,0l0,0c0,0,0,0,0,0c0,0.2,0.2,0.3,0.4,0.3c0,0,0.1,0,0.1,0l1.8-1l1.8,1c0.2,0.1,0.4,0,0.4-0.1c0-0.1,0-0.1,0-0.2l-0.3-2
		l1.5-1.4c0.1-0.1,0.1-0.3,0-0.5C88.7,75,88.6,75,88.6,75"/>
</g>
<g id="python">
	<path class="st2" d="M39.4,27.5c0-1.2-0.1-2.2,0-3.3c0-1,0.7-1.9,1.7-2.1c1.1-0.3,2.1-0.5,3.2-0.6c1.6-0.2,3.3-0.1,4.9,0.3
		c1.9,0.4,3,1.7,3,3.7c0,1.8,0,3.6,0,5.4c0,2.3-1.3,3.6-3.6,3.6c-1.9,0-3.9,0-5.8,0c-2.5,0-4.2,1.8-4.2,4.3c0,0.9,0,1.7,0,2.7
		c-1,0-2.1,0-3-0.2c-1.2-0.2-1.9-1.1-2.3-2.2c-0.7-1.9-0.9-3.9-0.6-5.9c0.1-0.5,0.2-0.9,0.3-1.4c0.5-2.1,2-3.3,4.2-3.3
		c2.7,0,5.3,0,8,0c0.2,0,0.4,0,0.7,0v-0.8H39.4z M42.2,25.9c0.7,0,1.2-0.5,1.2-1.2c0,0,0,0,0,0c0-0.7-0.5-1.2-1.2-1.2
		c-0.7,0-1.2,0.5-1.2,1.2c0,0,0,0,0,0.1C41,25.3,41.5,25.9,42.2,25.9C42.1,25.9,42.2,25.9,42.2,25.9L42.2,25.9z"/>
	<path class="st2" d="M52.3,42.2c0,1.2,0.1,2.2,0,3.3c0,1-0.7,1.9-1.7,2.1c-1.1,0.3-2.1,0.5-3.2,0.6c-1.6,0.2-3.3,0.1-4.9-0.3
		c-1.9-0.4-3-1.7-3-3.7c0-1.8,0-3.6,0-5.4c0-2.3,1.3-3.6,3.6-3.6c1.9,0,3.9,0,5.8,0c2.5,0,4.2-1.8,4.2-4.3c0-0.9,0-1.7,0-2.7
		c1,0,2.1,0,3,0.2c1.2,0.2,1.9,1.1,2.3,2.2c0.7,1.9,0.9,3.9,0.6,5.9c-0.1,0.5-0.2,0.9-0.3,1.4c-0.5,2.1-2,3.3-4.2,3.3
		c-2.7,0-5.3,0-8,0c-0.2,0-0.4,0-0.7,0v0.8H52.3z M49.5,43.9c-0.7,0-1.2,0.5-1.2,1.2c0,0,0,0,0,0c0,0.7,0.5,1.2,1.2,1.2
		c0.7,0,1.2-0.5,1.2-1.2c0,0,0,0,0-0.1C50.7,44.4,50.2,43.9,49.5,43.9C49.5,43.9,49.5,43.9,49.5,43.9L49.5,43.9z"/>
</g>
<image style="display:none;overflow:visible;opacity:0.2;" width="339" height="392" xlink:href="9147CE51.jpg"  transform="matrix(0.3175 0 0 0.3175 -5.6554 -14.0481)">
</image>
</svg>
