<?xml version="1.0" encoding="utf-8"?>
<!-- Generator: Adobe Illustrator 24.2.0, SVG Export Plug-In . SVG Version: 6.00 Build 0)  -->
<svg version="1.1" id="Layer_1" xmlns="http://www.w3.org/2000/svg" xmlns:xlink="http://www.w3.org/1999/xlink" x="0px" y="0px"
	 viewBox="0 0 510 473.3" style="enable-background:new 0 0 510 473.3;" xml:space="preserve">
<style type="text/css">
	.st0{fill:#192954;}
	.st1{fill:#B11F24;}
	.st2{fill:#E4E4E4;}
	.st3{fill:#D0D0D0;}
	.st4{fill:#F04C3D;stroke:#EE3129;stroke-width:2;stroke-miterlimit:10;}
	.st5{fill:#C0BFBF;}
	.st6{fill:#C83B2C;}
	.st7{fill:#B4B4B5;}
	.st8{fill:none;}
	.st9{fill:#DA4232;stroke:#EE3129;stroke-miterlimit:10;}
	.st10{fill:#6BCCE0;}
	.st11{fill:#F4889D;}
</style>
<circle class="st0" cx="106.5" cy="130.6" r="91.5"/>
<circle class="st1" cx="402" cy="329.1" r="91.5"/>
<polygon class="st2" points="299.2,329.1 150.5,329.1 235.4,267.6 "/>
<path class="st2" d="M124.8,113.8c-4.6,0.5-8.4,2-11.3,4.3C116.6,115.5,120.5,113.9,124.8,113.8z"/>
<path class="st2" d="M383,113.8c4.7,0,9,1.7,12.4,4.6c-2.7-2.2-6.1-3.7-10.4-4.3c-4.7-0.7-9.5,0.6-13.3,3.5
	c-38.9,29.6-77.9,59.1-116.8,88.7l-116.1-89c-2.4-1.9-5.2-3.1-8.2-3.5H383z"/>
<polygon class="st3" points="235.4,267.6 150.5,329.1 147.5,329.1 147.5,182.8 "/>
<path class="st2" d="M147.5,182.8v146.3h-21.2c-0.5,0-1,0-1.5-0.1c-0.1,0-0.1,0-0.2,0c-0.5,0-1-0.1-1.5-0.2c-0.3-0.1-0.7-0.1-1-0.2
	c-0.3-0.1-0.6-0.2-1-0.3c0,0-0.1,0-0.2,0c-0.3-0.1-0.5-0.2-0.8-0.3c-0.8-0.3-1.6-0.6-2.3-1c-0.2-0.1-0.4-0.2-0.6-0.3
	c-0.1-0.1-0.3-0.2-0.4-0.2c-0.2-0.1-0.4-0.2-0.6-0.4c-0.3-0.2-0.7-0.5-1-0.7c-0.2-0.2-0.4-0.3-0.6-0.5c-0.2-0.2-0.4-0.4-0.6-0.6
	c-1.7-1.5-3.1-3.4-4.1-5.5c-1.3-2.6-2-5.5-2-8.6V132.8c0-0.7,0-1.4,0.1-2c0.2-2.3,0.9-4.6,1.9-6.6c0,0,0,0,0,0
	c0.6-1.2,1.3-2.4,2.2-3.4c-0.8,1-1.5,2.2-2.1,3.4c0,0.1-0.1,0.2-0.1,0.3v20.2c0.4,0.8,0.9,1.5,1.4,2.1l3.4,3.4l0,0L147.5,182.8z"/>
<path class="st2" d="M401.8,130c-0.8-3.8-2.2-7-4.3-9.5C399.8,123.2,401.3,126.4,401.8,130z"/>
<path class="st4" d="M108.7,124.1c-0.1,0.1-0.1,0.2-0.1,0.3v-0.3H108.7z"/>
<path class="st4" d="M147.5,182.6v145.6h-22c-0.5,0-1,0-1.5-0.1c-0.1,0-0.1,0-0.2,0c-0.5,0-1-0.1-1.5-0.2c-0.3-0.1-0.7-0.1-1-0.2
	c-0.3-0.1-0.7-0.2-1-0.3c0,0-0.1,0-0.2,0c-0.3-0.1-0.6-0.2-0.8-0.3c-0.8-0.3-1.6-0.6-2.4-1c-0.2-0.1-0.4-0.2-0.6-0.3
	c-0.1-0.1-0.3-0.1-0.4-0.2c-0.2-0.1-0.4-0.2-0.6-0.4c-0.4-0.2-0.7-0.5-1-0.7c-0.2-0.2-0.4-0.3-0.6-0.5c-0.2-0.2-0.5-0.4-0.7-0.6
	c-2.8-2.5-4.3-6.2-4.3-9.9V144.6c0.4,0.7,0.9,1.5,1.5,2.1l3.5,3.4l0,0L147.5,182.6z"/>
<path class="st5" d="M399.8,141.9v168.2c0,10.5-8.4,19-18.8,19h-82.7l-63-61.5L393,151.9C396.4,149.5,398.8,145.9,399.8,141.9z"/>
<path class="st6" d="M362.1,127.5v201.6h22c4.5,0,8.7-1.6,12-4.2c3.2-2.5,4.9-6.4,4.9-10.4V127.5H362.1z"/>
<path class="st7" d="M235.4,267.6l-87.9-84.8v-8c35.9,26.1,71.9,52.3,107.8,78.4C248.7,258,242,262.8,235.4,267.6z"/>
<path class="st4" d="M402,132.8v9.1c-1,4-3.5,7.5-6.9,10c-46.6,33.7-93.2,67.5-139.8,101.2c-35.9-26.1-71.9-52.3-107.8-78.4
	c-11.3-8.2-22.6-16.4-33.9-24.7l0,0l-3.5-3.4c-0.5-0.7-1-1.4-1.5-2.1v-20.2c0-0.1,0.1-0.2,0.1-0.3c0.6-1.3,1.3-2.4,2.2-3.4
	c0.4-0.5,0.9-1,1.3-1.5c0.1-0.1,0.3-0.3,0.4-0.4c0.1-0.1,0.2-0.2,0.3-0.3c0.2-0.2,0.4-0.3,0.6-0.5c0.2-0.1,0.4-0.3,0.6-0.4
	c0.3-0.2,0.7-0.5,1-0.7c0.1,0,0.1-0.1,0.2-0.1c0.3-0.2,0.5-0.3,0.8-0.5c0.1-0.1,0.3-0.2,0.4-0.2c0,0,0,0,0,0c0.3-0.2,0.6-0.3,1-0.5
	c0.1,0,0.2-0.1,0.3-0.1c0.3-0.1,0.6-0.3,1-0.4c0,0,0.1,0,0.1,0c0.4-0.2,0.9-0.3,1.3-0.4c0.5-0.1,1-0.3,1.4-0.4
	c0.5-0.1,1-0.2,1.5-0.3c0.5-0.1,1-0.2,1.6-0.2c0,0,0,0,0,0c0.2,0,0.5,0,0.7,0h5c3,0.5,5.8,1.7,8.2,3.5l116.1,89
	c38.9-29.6,77.9-59.1,116.8-88.7c3.8-2.9,8.6-4.2,13.3-3.5c4.3,0.6,7.7,2.1,10.4,4.3c0.1,0.1,0.3,0.2,0.4,0.3
	c0.4,0.4,0.9,0.8,1.3,1.3c0.2,0.2,0.3,0.3,0.5,0.5c2.1,2.5,3.5,5.7,4.3,9.5C401.9,130.9,402,131.8,402,132.8z"/>
<path class="st4" d="M110,146.7l3.5,3.4C112.2,149.1,111,147.9,110,146.7z"/>
<path class="st4" d="M130.5,113.8h-5c-0.2,0-0.5,0-0.7,0c0.7-0.1,1.4-0.2,2.2-0.2C128.2,113.5,129.4,113.6,130.5,113.8z"/>
<line class="st8" x1="302.2" y1="332" x2="299.2" y2="329.1"/>
<polyline class="st8" points="101.1,138 106.5,143.3 108.6,145.3 110,146.7 "/>
<path class="st9" d="M147.5,174.7v8l-33.9-32.7C124.9,158.3,136.2,166.5,147.5,174.7z"/>
<line class="st8" x1="150.5" y1="329.1" x2="147.5" y2="331.3"/>
<path class="st10" d="M164.2,95.7c2,1.9,2.1,5,0.2,7L90,181.3l-0.2-0.2l-22.3-21.1l-18.7-17.7c-2-1.9-2.1-5-0.2-7l14.5-15.3
	c1.9-2,5-2.1,7-0.2l18.7,17.7l53.2-56.2c1.9-2,5-2.1,7-0.2L164.2,95.7z"/>
<path class="st11" d="M458.2,367.7l-17.3,17.4c-2.5,2.5-6.6,2.5-9.2,0l-29.7-29.5l-29.5,29.7c-2.5,2.5-6.6,2.5-9.2,0L346,368.1
	c-2.5-2.5-2.5-6.6,0-9.2l29.5-29.7l-29.7-29.5c-2.5-2.5-2.5-6.6,0-9.2l17.3-17.4c2.5-2.5,6.6-2.5,9.2,0l29.7,29.5l29.5-29.7
	c2.5-2.5,6.6-2.5,9.2,0l17.4,17.3c2.5,2.5,2.5,6.6,0,9.2L428.5,329l29.7,29.5C460.7,361.1,460.7,365.2,458.2,367.7z"/>
</svg>
