<?xml version="1.0" encoding="utf-8"?>
<!-- Generator: Adobe Illustrator 24.2.0, SVG Export Plug-In . SVG Version: 6.00 Build 0)  -->
<svg version="1.1" id="Layer_1" xmlns="http://www.w3.org/2000/svg" xmlns:xlink="http://www.w3.org/1999/xlink" x="0px" y="0px"
	 viewBox="0 0 510 419.9" style="enable-background:new 0 0 510 419.9;" xml:space="preserve">
<style type="text/css">
	.st0{fill:none;}
	.st1{display:none;fill:#B2489B;enable-background:new    ;}
	.st2{font-family:'BernHardOpti-LightCursive';}
	.st3{font-size:48.5624px;}
	.st4{display:none;enable-background:new    ;}
	.st5{fill:#B2489B;}
</style>
<rect x="17.9" y="56.2" class="st0" width="556.1" height="248.9"/>
<text transform="matrix(1 0 0 1 11.3789 66.4141)" class="st1 st2 st3">W1</text>
<rect x="10.3" y="56.2" class="st0" width="556.1" height="248.9"/>
<text transform="matrix(1 0 0 1 10.3105 66.4141)" class="st4 st2 st3">W1</text>
<g>
	<path d="M98.3,263.2c-21.3-11.7-39.9-30.2-50.2-52.9c-5.5-11-8.9-23.4-10.3-35.7c-2.1-13.1-2.1-24.7-2.1-37.1
		c0-12.4,2.1-24.7,6.2-37.1C46,87.9,52.2,77.6,59.1,66.6c7.6-10.3,17.2-19.2,28.2-26.1c5.5-3.4,11-6.2,17.2-8.2
		c6.2-2.1,13.1-3.4,19.9-3.4c13.7,0,27.5,6.2,37.1,15.1c9.6,8.9,17.2,22,19.2,35.1c1.4,6.9,1.4,13.1,0.7,19.9
		c-0.7,6.2-1.4,12.4-2.1,17.9c-2.1,11.7-3.4,24.1-6.2,35.7C164.3,199.9,154,246,143,292.7l-15.1-4.1c6.9-19.2,15.1-38.5,24.1-57.1
		c9.6-18.6,19.2-36.4,30.2-53.6c10.3-17.9,22-34.4,33.7-51.6c11.7-16.5,22.7-33.7,35.7-50.2c1.4-2.1,3.4-4.1,4.8-6.2
		c0.7-0.7,2.1-2.1,2.7-3.4c0.7-0.7,1.4-1.4,1.4-1.4c0.7-0.7,1.4-1.4,3.4-2.1c0.7,0,0.7,0,1.4-0.7c0,0,0.7-0.7,2.7,0s3.4,0.7,4.8,2.7
		c2.1,2.1,2.1,4.1,2.1,4.8c0,2.7,0,2.1,0,3.4l1.4,0.7c-0.7,1.4-0.7,2.1-1.4,2.7l-2.1,3.4l-4.1,6.9c-4.8,8.9-9.6,17.2-14.4,26.1
		c-8.9,17.9-17.2,36.4-22.7,55c-5.5,19.2-8.2,38.5-8.2,57.7c0,9.6,0.7,19.9,3.4,28.9c1.4,4.8,2.7,8.9,4.8,12.4
		c2.1,4.1,4.8,7.6,8.2,11c6.2,6.9,13.7,10.3,22,9.6s17.2-4.8,25.4-9.6c16.5-10.3,30.9-24.7,43.3-39.9c12.4-15.1,21.3-33,28.2-51.6
		c3.4-9.6,6.2-18.6,8.9-28.9c2.7-9.6,4.1-19.2,5.5-28.9l6.2-30.9c1.4-10.3,2.7-19.2,0.7-28.2c-2.1-8.2-6.2-17.9-12.4-23.4
		c-2.7-2.7-6.2-3.4-8.9-3.4c-3.4,0.7-6.9,2.7-9.6,5.5c-4.8,4.8-6.2,14.4-4.1,23.4c2.1,8.9,6.9,17.2,13.1,23.4
		c6.9,5.5,16.5,8.9,25.4,8.2c9.6-0.7,18.6-4.8,26.1-11l1.4,1.4c-6.2,8.9-15.8,15.1-26.8,17.9c-11,2.1-23.4,0-33.7-6.9
		s-16.5-17.9-19.9-28.9c-1.4-5.5-2.1-11.7-1.4-18.6c0.7-6.2,3.4-13.1,8.2-19.2c4.8-4.8,11-8.9,18.6-10.3c8.2-1.4,16.5,2.1,21.3,6.9
		c5.5,4.8,8.2,9.6,11,15.1c2.7,5.5,4.8,10.3,6.2,16.5c2.7,12.4,1.4,24.1-0.7,33.7l-4.8,30.2c-1.4,10.3-3.4,20.6-6.9,30.9
		c-2.7,9.6-6.2,19.9-10.3,29.6c-7.6,19.2-17.9,38.5-31.6,54.3c-13.7,15.8-28.9,30.2-46.7,41.9c-8.9,5.5-19.2,10.3-30.9,11.7
		c-2.7,0.7-6.2,0-8.9,0c-2.7-0.7-6.2-1.4-8.9-2.7c-5.5-2.7-9.6-6.2-13.7-10.3s-6.9-8.2-9.6-13.1s-4.8-10.3-6.2-15.1
		c-2.7-10.3-3.4-20.6-4.1-31.6c-0.7-20.6,2.7-41.9,8.9-61.2c5.5-19.9,13.7-38.5,23.4-57.1c4.8-8.9,9.6-17.9,15.1-26.8l4.1-6.9
		l2.1-3.4c0-0.7,0.7-0.7,0.7-1.4c0,0,0-0.7,0,0.7c0,0,0,0.7,0.7,2.1c0.7,0.7,1.4,0.7,2.1,0.7c0.7,0,1.4,0,1.4,0l0,0
		c0,0-1.4,0.7-2.1,2.1l-2.1,2.7c-1.4,2.1-3.4,3.4-4.8,5.5c-26.1,30.9-49.5,64.6-68.1,100.4c-9.6,17.9-18.6,35.7-26.1,54.3
		c-8.2,18.6-15.1,37.1-22,56.4l-15.1-4.1c11-46.1,21.3-92.8,29.6-139.6c2.1-11.7,4.1-23.4,5.5-35.1c0.7-5.5,1.4-11.7,2.1-17.2
		c0.7-5.5,0.7-11,0-15.8c-2.7-19.9-21.3-37.8-41.2-37.8c-10.3,0-19.9,4.1-29.6,9.6c-9.6,5.5-17.9,13.1-24.1,22
		c-6.2,8.9-12.4,19.2-15.8,29.6s-5.5,21.3-6.2,33s-1.4,23.4,0,35.1c1.4,11.7,4.1,22.7,8.2,33c8.9,20.6,24.7,39.2,44,51.6L98.3,263.2
		z"/>
</g>
<path d="M398.7,219.2c0.7-2.7,0.7-4.8,1.4-7.6c5.5-1.4,11-3.4,16.5-6.2c13.7-5.5,25.4-12.4,34.4-18.6c2.1,0,4.1,0,6.2,0
	c-1.4,2.7-3.4,7.6-4.8,13.1c-3.4,10.3-4.1,15.1-6.9,27.5c-2.7,10.3-2.7,9.6-7.6,27.5c-2.7,10.3-4.8,18.6-6.2,23.4c0,0.7,0,1.4,0,2.7
	c0.7,1.4,2.1,2.1,2.7,2.7c2.1,1.4,7.6,2.7,14.4,2.7c-0.7,2.1-0.7,4.8-1.4,6.9c-9.6-0.7-19.9-0.7-30.9-0.7c-9.6,0-19.2,0.7-28.9,0.7
	c0-2.1,0.7-4.8,0.7-6.9c4.8-0.7,8.9-1.4,11.7-2.1c3.4-0.7,5.5-0.7,7.6-2.1c2.7-1.4,4.8-4.1,6.2-5.5c5.5-22.7,11.7-46.1,17.2-68.7
	c-5.5,2.1-11.7,4.8-18.6,6.9C407.6,216.4,402.8,217.8,398.7,219.2z"/>
<g>
	<path class="st5" d="M91,263.2c-21.3-11.7-39.9-30.2-50.2-52.9c-5.5-11-8.9-23.4-10.3-35.7c-1.4-12.4-1.4-24.7-1.4-36.4
		c0-12.4,2.1-24.7,6.2-37.1c4.1-12.4,10.3-22.7,17.2-33.7C60.1,56.9,69.7,48,80.7,41.1c5.5-3.4,11-6.2,17.2-8.2
		c6.2-2.1,13.1-3.4,19.9-3.4c13.7,0,27.5,6.2,37.1,15.1c9.6,8.9,17.2,22,19.2,35.1c1.4,6.9,1.4,13.1,0.7,19.9
		c-0.7,6.2-1.4,12.4-2.1,17.9c-2.1,11.7-3.4,24.1-6.2,35.7c-8.9,47.4-19.2,93.5-30.2,140.2l-15.1-4.1c6.9-19.2,15.1-38.5,24.1-57.1
		c9.6-18.6,19.2-36.4,30.2-53.6c10.3-17.9,22-34.4,33.7-51.6C221,110.6,232,93.4,245,76.9c1.4-2.1,3.4-4.1,4.8-6.2
		c0.7-0.7,2.1-2.1,2.7-3.4c0.7-0.7,1.4-1.4,1.4-1.4c0.7-0.7,1.4-1.4,3.4-2.1c0.7,0,0.7,0,1.4-0.7c0,0,0.7-0.7,2.7,0
		c2.1,0.7,3.4,0.7,4.8,2.7c2.1,2.1,2.1,4.1,2.1,4.8c0,2.7,0,2.1,0,3.4l-0.7,1.4c-0.7,1.4-0.7,2.1-1.4,2.7l-2.1,3.4l-4.1,6.9
		c-4.8,8.9-9.6,17.2-14.4,26.1c-8.9,17.9-17.2,36.4-22.7,55c-5.5,19.2-8.2,38.5-8.2,57.7c0,9.6,0.7,19.9,3.4,28.9
		c1.4,4.8,2.7,8.9,4.8,12.4c2.1,4.1,4.8,7.6,8.2,11c6.2,6.9,13.7,10.3,22,9.6c8.2-0.7,17.2-4.8,25.4-9.6
		c16.5-10.3,30.9-24.7,43.3-39.9c12.4-15.1,21.3-33,28.2-51.6c3.4-9.6,6.2-18.6,8.9-28.9c2.7-9.6,4.1-19.2,5.5-28.9l4.1-30.2
		c1.4-10.3,2.7-19.2,0.7-28.2c-2.1-8.2-6.2-17.9-12.4-23.4c-2.7-2.7-6.2-3.4-8.9-3.4c-3.4,0.7-6.9,2.7-9.6,5.5
		c-4.8,4.8-6.2,14.4-4.1,23.4s6.9,17.2,13.1,23.4c6.9,5.5,16.5,8.9,25.4,8.2c9.6-0.7,18.6-4.8,26.1-11l1.4,1.4
		c-6.2,8.9-15.8,15.1-26.8,17.9c-11,2.1-23.4,0-33.7-6.9S323.4,89.2,320,78.2c-1.4-5.5-2.1-11.7-1.4-18.6c0.7-6.2,3.4-13.1,8.2-19.2
		c4.8-4.8,11-8.9,18.6-10.3c8.2-1.4,16.5,2.1,21.3,6.9c5.5,4.8,8.2,9.6,11,15.1c2.7,5.5,4.8,10.3,6.2,16.5
		c2.7,12.4,1.4,24.1-0.7,33.7l-4.8,30.2c-1.4,10.3-3.4,20.6-6.9,30.9c-2.7,9.6-6.2,19.9-10.3,29.6c-7.6,19.2-17.9,38.5-31.6,54.3
		s-28.9,30.2-46.7,41.9c-8.9,5.5-19.2,10.3-30.9,11.7c-2.7,0.7-6.2,0-8.9,0c-2.7-0.7-6.2-1.4-8.9-2.7c-5.5-2.7-9.6-6.2-13.7-10.3
		c-4.1-4.1-6.9-8.2-9.6-13.1c-2.7-4.8-4.8-10.3-6.2-15.1c-2.7-10.3-3.4-20.6-4.1-31.6c-0.7-20.6,2.7-41.9,8.9-61.2
		c5.5-19.9,13.7-38.5,23.4-57.1c4.8-8.9,9.6-17.9,15.1-26.8l4.1-6.9l2.1-3.4c0-0.7,0.7-0.7,0.7-1.4c0,0,0-0.7,0,0.7
		c0,0,0,0.7,0.7,2.1c0.7,0.7,1.4,0.7,2.1,0.7s1.4,0,1.4,0l0,0c0,0-1.4,0.7-2.1,2.1l2.1,0.7c-1.4,2.1-3.4,3.4-4.8,5.5
		c-26.1,30.9-49.5,64.6-68.1,100.4c-9.6,17.9-18.6,35.7-26.1,54.3c-8.2,18.6-15.1,37.1-22,56.4l-15.1-4.1
		c11-46.1,21.3-92.8,29.6-139.6c2.1-11.7,4.1-23.4,5.5-35.1c0.7-5.5,1.4-11.7,2.1-17.2c0.7-5.5,0.7-11,0-15.8
		c-2.7-19.9-21.3-37.8-41.2-37.8c-10.3,0-19.9,4.1-29.6,9.6c-9.6,5.5-17.9,13.1-24.1,22c-6.2,8.9-12.4,19.2-15.8,29.6
		s-5.5,21.3-6.2,33s-1.4,23.4,0,35.1c1.4,11.7,4.1,22.7,8.2,33c8.9,20.6,24.7,39.2,44,51.6L91,263.2z"/>
</g>
<path class="st5" d="M391.5,219.2c0.7-2.7,0.7-4.8,1.4-7.6c5.5-1.4,11-3.4,16.5-6.2c13.7-5.5,25.4-12.4,34.4-18.6c2.1,0,4.1,0,6.2,0
	c-1.4,2.7-3.4,7.6-4.8,13.1c-3.4,10.3-4.1,15.1-6.9,27.5c-2.7,10.3-2.7,9.6-7.6,27.5c-2.7,10.3-4.8,18.6-6.2,23.4c0,0.7,0,1.4,0,2.7
	c0.7,1.4,2.1,2.1,2.7,2.7c2.1,1.4,7.6,2.7,14.4,2.7c-0.7,2.1-0.7,4.8-1.4,6.9c-9.6-0.7-19.9-0.7-30.9-0.7c-9.6,0-19.2,0.7-28.9,0.7
	c0-2.1,0.7-4.8,0.7-6.9c4.8-0.7,8.9-1.4,11.7-2.1c3.4-0.7,5.5-0.7,7.6-2.1c2.7-1.4,4.8-4.1,6.2-5.5c5.5-22.7,11.7-46.1,17.2-68.7
	c-5.5,2.1-11.7,4.8-18.6,6.9C401.1,216.4,396.3,217.8,391.5,219.2z"/>
</svg>
