<?xml version="1.0" encoding="utf-8"?>
<!-- Generator: Adobe Illustrator 24.2.0, SVG Export Plug-In . SVG Version: 6.00 Build 0)  -->
<svg version="1.1" id="Layer_1" xmlns="http://www.w3.org/2000/svg" xmlns:xlink="http://www.w3.org/1999/xlink" x="0px" y="0px"
	 viewBox="0 0 527 346.9" style="enable-background:new 0 0 527 346.9;" xml:space="preserve">
<style type="text/css">
	.st0{fill:none;}
	.st1{display:none;fill:#B2489B;enable-background:new    ;}
	.st2{font-family:'BernHardOpti-LightCursive';}
	.st3{font-size:48.5624px;}
	.st4{display:none;enable-background:new    ;}
	.st5{fill:#B2489B;}
</style>
<rect x="18.3" y="57.9" class="st0" width="588.7" height="263.4"/>
<text transform="matrix(1 0 0 1 11.3789 66.4141)" class="st1 st2 st3">W1</text>
<rect x="10.3" y="57.9" class="st0" width="588.7" height="263.4"/>
<text transform="matrix(1 0 0 1 10.3105 66.4141)" class="st4 st2 st3">W1</text>
<g>
	<path d="M103.4,276.9c-22.6-12.4-42.2-32-53.1-56c-5.8-11.6-9.5-24.7-10.9-37.8c-2.2-13.8-2.2-26.2-2.2-39.3s2.2-26.2,6.5-39.3
		c4.4-13.1,10.9-24,18.2-35.7c8-10.9,18.2-20.4,29.8-27.7c5.8-3.6,11.6-6.5,18.2-8.7c6.5-2.2,13.8-3.6,21.1-3.6
		c14.6,0,29.1,6.5,39.3,16s18.2,23.3,20.4,37.1c1.5,7.3,1.5,13.8,0.7,21.1c-0.7,6.5-1.5,13.1-2.2,18.9c-2.2,12.4-3.6,25.5-6.5,37.8
		c-9.5,50.2-20.4,99-32,148.4l-16-4.4c7.3-20.4,16-40.8,25.5-60.4c10.2-19.6,20.4-38.6,32-56.8c10.9-18.9,23.3-36.4,35.7-54.6
		c12.4-17.5,24-35.7,37.8-53.1c1.5-2.2,3.6-4.4,5.1-6.5c0.7-0.7,2.2-2.2,2.9-3.6c0.7-0.7,1.5-1.5,1.5-1.5c0.7-0.7,1.5-1.5,3.6-2.2
		c0.7,0,0.7,0,1.5-0.7c0,0,0.7-0.7,2.9,0c2.2,0.7,3.6,0.7,5.1,2.9c2.2,2.2,2.2,4.4,2.2,5.1c0,2.9,0,2.2,0,3.6l1.5,0.7
		c-0.7,1.5-0.7,2.2-1.5,2.9l-2.2,3.6l-4.4,7.3c-5.1,9.5-10.2,18.2-15.3,27.7c-9.5,18.9-18.2,38.6-24,58.2
		c-5.8,20.4-8.7,40.8-8.7,61.1c0,10.2,0.7,21.1,3.6,30.6c1.5,5.1,2.9,9.5,5.1,13.1c2.2,4.4,5.1,8,8.7,11.6
		c6.5,7.3,14.6,10.9,23.3,10.2c8.7-0.7,18.2-5.1,26.9-10.2c17.5-10.9,32.7-26.2,45.8-42.2s22.6-34.9,29.8-54.6
		c3.6-10.2,6.5-19.6,9.5-30.6c2.9-10.2,4.4-20.4,5.8-30.6l6.5-32.7c1.5-10.9,2.9-20.4,0.7-29.8c-2.2-8.7-6.5-18.9-13.1-24.7
		c-2.9-2.9-6.5-3.6-9.5-3.6c-3.6,0.7-7.3,2.9-10.2,5.8c-5.1,5.1-6.5,15.3-4.4,24.7c2.2,9.5,7.3,18.2,13.8,24.7
		c7.3,5.8,17.5,9.5,26.9,8.7c10.2-0.7,19.6-5.1,27.7-11.6l1.5,1.5c-6.5,9.5-16.7,16-28.4,18.9c-11.6,2.2-24.7,0-35.7-7.3
		c-10.9-7.3-17.5-18.9-21.1-30.6c-1.5-5.8-2.2-12.4-1.5-19.6c0.7-6.5,3.6-13.8,8.7-20.4c5.1-5.1,11.6-9.5,19.6-10.9
		c8.7-1.5,17.5,2.2,22.6,7.3c5.8,5.1,8.7,10.2,11.6,16s5.1,10.9,6.5,17.5c2.9,13.1,1.5,25.5-0.7,35.7l-5.1,32
		c-1.5,10.9-3.6,21.8-7.3,32.7c-2.9,10.2-6.5,21.1-10.9,31.3c-8,20.4-18.9,40.8-33.5,57.5c-14.6,16.7-30.6,32-49.5,44.4
		c-9.5,5.8-20.4,10.9-32.7,12.4c-2.9,0.7-6.5,0-9.5,0c-2.9-0.7-6.5-1.5-9.5-2.9c-5.8-2.9-10.2-6.5-14.6-10.9s-7.3-8.7-10.2-13.8
		c-2.9-5.1-5.1-10.9-6.5-16c-2.9-10.9-3.6-21.8-4.4-33.5c-0.7-21.8,2.9-44.4,9.5-64.8c5.8-21.1,14.6-40.8,24.7-60.4
		c5.1-9.5,10.2-18.9,16-28.4l4.4-7.3L279,73c0-0.7,0.7-0.7,0.7-1.5c0,0,0-0.7,0,0.7c0,0,0,0.7,0.7,2.2c0.7,0.7,1.5,0.7,2.2,0.7
		s1.5,0,1.5,0l0,0c0,0-1.5,0.7-2.2,2.2l-2.2,2.9c-1.5,2.2-3.6,3.6-5.1,5.8c-27.7,32.7-52.4,68.4-72,106.2
		c-10.2,18.9-19.6,37.8-27.7,57.5c-8.7,19.6-16,39.3-23.3,59.7l-16-4.4c11.6-48.8,22.6-98.2,31.3-147.7c2.2-12.4,4.4-24.7,5.8-37.1
		c0.7-5.8,1.5-12.4,2.2-18.2s0.7-11.6,0-16.7c-2.9-21.1-22.6-40-43.7-40c-10.9,0-21.1,4.4-31.3,10.2C90.3,61.6,81.6,69.6,75.1,79
		S62,99.4,58.3,110.3c-3.6,10.9-5.8,22.6-6.5,34.9c-0.7,12.4-1.5,24.7,0,37.1c1.5,12.4,4.4,24,8.7,34.9
		c9.5,21.8,26.2,41.5,46.6,54.6L103.4,276.9z"/>
</g>
<g>
	<path class="st5" d="M97.5,276.9c-22.6-12.4-42.2-32-53.1-56c-5.8-11.6-9.5-24.7-10.9-37.8S32,156.9,32,144.5
		c0-13.1,2.2-26.2,6.5-39.3c4.4-13.1,10.9-24,18.2-35.7c8-10.9,18.2-20.4,29.8-27.7c5.8-3.6,11.6-6.5,18.2-8.7
		c6.5-2.2,13.8-3.6,21.1-3.6c14.6,0,29.1,6.5,39.3,16s18.2,23.3,20.4,37.1c1.5,7.3,1.5,13.8,0.7,21.1c-0.7,6.5-1.5,13.1-2.2,18.9
		c-2.2,12.4-3.6,25.5-6.5,37.8c-9.5,50.2-20.4,99-32,148.4l-16-4.4c7.3-20.4,16-40.8,25.5-60.4c10.2-19.6,20.4-38.6,32-56.8
		c10.9-18.9,23.3-36.4,35.7-54.6c12.4-17.5,24-35.7,37.8-53.1c1.5-2.2,3.6-4.4,5.1-6.5c0.7-0.7,2.2-2.2,2.9-3.6
		c0.7-0.7,1.5-1.5,1.5-1.5c0.7-0.7,1.5-1.5,3.6-2.2c0.7,0,0.7,0,1.5-0.7c0,0,0.7-0.7,2.9,0c2.2,0.7,3.6,0.7,5.1,2.9
		c2.2,2.2,2.2,4.4,2.2,5.1c0,2.9,0,2.2,0,3.6l-0.7,1.5c-0.7,1.5-0.7,2.2-1.5,2.9l-2.2,3.6l-4.4,7.3c-5.1,9.5-10.2,18.2-15.3,27.7
		c-9.5,18.9-18.2,38.6-24,58.2c-5.8,20.4-8.7,40.8-8.7,61.1c0,10.2,0.7,21.1,3.6,30.6c1.5,5.1,2.9,9.5,5.1,13.1
		c2.2,4.4,5.1,8,8.7,11.6c6.5,7.3,14.6,10.9,23.3,10.2c8.7-0.7,18.2-5.1,26.9-10.2c17.5-10.9,32.7-26.2,45.8-42.2
		c13.1-16,22.6-34.9,29.8-54.6c3.6-10.2,6.5-19.6,9.5-30.6c2.9-10.2,4.4-20.4,5.8-30.6l4.4-32c1.5-10.9,2.9-20.4,0.7-29.8
		c-2.2-8.7-6.5-18.9-13.1-24.7c-2.9-2.9-6.5-3.6-9.5-3.6c-3.6,0.7-7.3,2.9-10.2,5.8c-5.1,5.1-6.5,15.3-4.4,24.7
		c2.2,9.5,7.3,18.2,13.8,24.7c7.3,5.8,17.5,9.5,26.9,8.7c10.2-0.7,19.6-5.1,27.7-11.6l1.5,1.5c-6.5,9.5-16.7,16-28.4,18.9
		c-11.6,2.2-24.7,0-35.7-7.3c-10.9-7.3-17.5-18.9-21.1-30.6c-1.5-5.8-2.2-12.4-1.5-19.6c0.7-6.5,3.6-13.8,8.7-20.4
		c5.1-5.1,11.6-9.5,19.6-10.9c8.7-1.5,17.5,2.2,22.6,7.3c5.8,5.1,8.7,10.2,11.6,16s5.1,10.9,6.5,17.5c2.9,13.1,1.5,25.5-0.7,35.7
		l-5.1,32c-1.5,10.9-3.6,21.8-7.3,32.7c-2.9,10.2-6.5,21.1-10.9,31.3c-8,20.4-18.9,40.8-33.5,57.5s-30.6,32-49.5,44.4
		c-9.5,5.8-20.4,10.9-32.7,12.4c-2.9,0.7-6.5,0-9.5,0c-2.9-0.7-6.5-1.5-9.5-2.9c-5.8-2.9-10.2-6.5-14.6-10.9s-7.3-8.7-10.2-13.8
		c-2.9-5.1-5.1-10.9-6.5-16c-2.9-10.9-3.6-21.8-4.4-33.5c-0.7-21.8,2.9-44.4,9.5-64.8c5.8-21.1,14.6-40.8,24.7-60.4
		c5.1-9.5,10.2-18.9,16-28.4l4.4-7.3l2.2-3.6c0-0.7,0.7-0.7,0.7-1.5c0,0,0-0.7,0,0.7c0,0,0,0.7,0.7,2.2c0.7,0.7,1.5,0.7,2.2,0.7
		s1.5,0,1.5,0l0,0c0,0-1.5,0.7-2.2,2.2l2.2,0.7c-1.5,2.2-3.6,3.6-5.1,5.8c-27.7,32.7-52.4,68.4-72,106.2
		c-10.2,18.9-19.6,37.8-27.7,57.5c-8.7,19.6-16,39.3-23.3,59.7l-16-4.4c11.6-48.8,22.6-98.2,31.3-147.7c2.2-12.4,4.4-24.7,5.8-37.1
		c0.7-5.8,1.5-12.4,2.2-18.2s0.7-11.6,0-16.7c-2.9-21.1-22.6-40-43.7-40c-10.9,0-21.1,4.4-31.3,10.2C85.2,61.6,76.4,69.6,69.9,79
		c-6.5,9.5-13.1,20.4-16.7,31.3c-3.6,10.9-5.8,22.6-6.5,34.9c-0.7,12.4-1.5,24.7,0,37.1c1.5,12.4,4.4,24,8.7,34.9
		c9.5,21.8,26.2,41.5,46.6,54.6L97.5,276.9z"/>
</g>
<path d="M424.2,236.2c-2.2-0.8-4.4-1.7-6.6-2.5c1.2-2.6,3-6.3,5.7-10.4c3.7-5.7,10.6-16.1,23.6-22.4c4.9-2.4,13.9-6.8,25.1-4.6
	c3.1,0.6,10.9,2.3,16.8,9.3c5.3,6.2,6,13.2,6.3,16.6c1.2,13.3-5.7,23.7-10.1,30.2c-4.9,7.4-10,11.8-17.9,18.8
	c-8.4,7.4-15.9,12.7-21.3,16.2c6.3-0.3,13.1-0.5,20.3-0.4c7.7,0.1,15,0.6,21.8,1.2c2.1-3.9,4.6-7.9,7.3-12.1
	c2.2-3.3,4.3-6.4,6.5-9.2c2,0.8,4,1.7,6,2.5c-1.6,2.8-7.1,13-11.6,22.2c-1.9,3.8-3.2,6.8-4.6,9.9c-1.2,2.7-2,5-2.7,6.6
	c-11.8-2.1-26.1-3.8-42.5-3.7c-15,0.1-28.2,1.6-39.2,3.6c0.3-2.7,0.7-5.5,1-8.2c12.4-6.9,22.3-13.5,29.3-18.7
	c35-25.5,38.5-40.7,39.2-45.9c0.5-3.9,0.1-7.3-1-10.4c-2.3-6.4-8.1-12.5-16.1-14.1c-8.1-1.7-14.5,2.1-16.6,3.3
	c-1.3,0.8-3.1,1.9-5.9,4.7C433.7,222,428.7,227.6,424.2,236.2z"/>
<path class="st5" d="M418.1,236.2c-2.2-0.8-4.4-1.7-6.6-2.5c1.2-2.6,3-6.3,5.7-10.4c3.7-5.7,10.6-16.1,23.6-22.4
	c4.9-2.4,13.9-6.8,25.1-4.6c3.1,0.6,10.9,2.3,16.8,9.3c5.3,6.2,6,13.2,6.3,16.6c1.2,13.3-5.7,23.7-10.1,30.2
	c-4.9,7.4-10,11.8-17.9,18.8c-8.4,7.4-15.9,12.7-21.3,16.2c6.3-0.3,13.1-0.5,20.3-0.4c7.7,0.1,15,0.6,21.8,1.2
	c2.1-3.9,4.6-7.9,7.3-12.1c2.2-3.3,4.3-6.4,6.5-9.2c2,0.8,4,1.7,6,2.5c-1.6,2.8-7.1,13-11.6,22.2c-1.9,3.8-3.2,6.8-4.6,9.9
	c-1.2,2.7-2,5-2.7,6.6c-11.8-2.1-26.1-3.8-42.5-3.7c-15,0.1-28.2,1.6-39.2,3.6c0.3-2.7,0.7-5.5,1-8.2c12.4-6.9,22.3-13.5,29.3-18.7
	c35-25.5,38.5-40.7,39.2-45.9c0.5-3.9,0.1-7.3-1-10.4c-2.3-6.4-8.1-12.5-16.1-14.1c-8.1-1.7-14.5,2.1-16.6,3.3
	c-1.3,0.8-3.1,1.9-5.9,4.7C427.6,222,422.7,227.6,418.1,236.2z"/>
</svg>
